<svg xmlns="http://www.w3.org/2000/svg" width="307.68" height="223.31" viewBox="0 0 307.68 223.31">
  <g id="Grupo_78303" data-name="Grupo 78303" transform="translate(-1162.881 -468)">
    <g id="Grupo_73839" data-name="Grupo 73839" transform="translate(1162.881 500.507)">
      <path id="Trazado_131082" data-name="Trazado 131082" d="M644.658,266.411H412.916c-20.935,0-37.971-14.236-37.971-31.729V107.336c0-17.495,17.036-31.728,37.971-31.728h50.315a1.723,1.723,0,1,1,0,3.391H412.916C394.216,79,379,91.712,379,107.336V234.683c0,15.625,15.212,28.334,33.913,28.334H644.658c18.7,0,33.906-12.71,33.906-28.334V187.349a2.063,2.063,0,0,1,4.062,0v47.334C682.625,252.175,665.589,266.411,644.658,266.411Z" transform="translate(-374.945 -75.608)" fill="#529ad9"/>
    </g>
    <g id="Grupo_73840" data-name="Grupo 73840" transform="translate(1240.356 468)">
      <circle id="Elipse_5349" data-name="Elipse 5349" cx="34.897" cy="34.897" r="34.897" transform="translate(1.698 1.695)" fill="#529ad9"/>
      <path id="Trazado_131083" data-name="Trazado 131083" d="M433.474,137.061a36.592,36.592,0,1,1,36.594-36.594A36.637,36.637,0,0,1,433.474,137.061Zm0-69.8a33.2,33.2,0,1,0,33.2,33.2A33.24,33.24,0,0,0,433.474,67.265Z" transform="translate(-396.877 -63.876)" fill="#529ad9"/>
    </g>
    <path id="Trazado_131111" data-name="Trazado 131111" d="M5.633,9.688a3.713,3.713,0,0,1-.211,1.324,2.859,2.859,0,0,1-.672.957q-.471.461-1.373,1.215a2.543,2.543,0,0,0-1.01,1.527L2.346,15a1.559,1.559,0,0,0,.569,1.3,2.6,2.6,0,0,0,1.638.449,2.666,2.666,0,0,0,1.594-.441,1.359,1.359,0,0,0,.613-1.152H8.576a2.484,2.484,0,0,1-1.123,2.055,4.842,4.842,0,0,1-2.9.8,4.885,4.885,0,0,1-2.973-.785,2.573,2.573,0,0,1-1.05-2.184A3.761,3.761,0,0,1,2.1,12.32l1.069-.883a2.287,2.287,0,0,0,.647-1.75Zm.078-2.477a.767.767,0,0,1-.27.594,1.162,1.162,0,0,1-.8.242,1.182,1.182,0,0,1-.8-.242.762.762,0,0,1-.275-.594.731.731,0,0,1,.275-.578,1.209,1.209,0,0,1,.8-.234,1.189,1.189,0,0,1,.8.234A.736.736,0,0,1,5.711,7.211Zm15.824,4.18a3.933,3.933,0,0,1-1.673,2.785,6.43,6.43,0,0,1-3.743.98,5.655,5.655,0,0,1-4.057-1.445,5.076,5.076,0,0,1-1.526-3.867V8.75a5.377,5.377,0,0,1,.711-2.789,4.7,4.7,0,0,1,2.016-1.848,6.74,6.74,0,0,1,3.022-.645A6.014,6.014,0,0,1,19.936,4.48a3.934,3.934,0,0,1,1.6,2.8H19.642a3,3,0,0,0-1.064-1.969A3.772,3.772,0,0,0,16.287,4.7a3.749,3.749,0,0,0-2.83,1.063,4.179,4.179,0,0,0-1.025,3.023v1.1a4.274,4.274,0,0,0,.971,2.945A3.445,3.445,0,0,0,16.12,13.93a4.292,4.292,0,0,0,2.408-.566,2.925,2.925,0,0,0,1.113-1.973Zm1.805-.7a4.164,4.164,0,0,1,.613-2.234A4.076,4.076,0,0,1,25.66,6.93a5.576,5.576,0,0,1,2.5-.539,5.069,5.069,0,0,1,3.507,1.2A4.053,4.053,0,0,1,33,10.766v.1a4.192,4.192,0,0,1-.594,2.215,4.01,4.01,0,0,1-1.7,1.527,5.64,5.64,0,0,1-2.536.547,5.055,5.055,0,0,1-3.5-1.2A4.035,4.035,0,0,1,23.34,10.8Zm1.825.172a3.12,3.12,0,0,0,.819,2.258,3.239,3.239,0,0,0,4.39-.012,3.386,3.386,0,0,0,.814-2.418,3.118,3.118,0,0,0-.829-2.254,2.912,2.912,0,0,0-2.2-.863,2.88,2.88,0,0,0-2.168.852A3.364,3.364,0,0,0,25.165,10.867ZM28.981,3h2.2L28.55,5.3H27.088Zm8.005,3.547.049.938a4.421,4.421,0,0,1,3.149-1.094A3.224,3.224,0,0,1,43.216,7.75a3.857,3.857,0,0,1,1.378-.984A4.933,4.933,0,0,1,46.6,6.391q3.492,0,3.551,2.945V15H48.337V9.422a1.694,1.694,0,0,0-.52-1.355,2.674,2.674,0,0,0-1.746-.449,2.8,2.8,0,0,0-1.678.48,1.828,1.828,0,0,0-.775,1.293V15H41.794V9.461q0-1.844-2.266-1.844a2.527,2.527,0,0,0-2.443,1.211V15H35.27V6.547ZM52.408,10.7a4.164,4.164,0,0,1,.613-2.234A4.076,4.076,0,0,1,54.728,6.93a5.576,5.576,0,0,1,2.5-.539,5.069,5.069,0,0,1,3.507,1.2,4.053,4.053,0,0,1,1.339,3.18v.1a4.192,4.192,0,0,1-.594,2.215,4.01,4.01,0,0,1-1.7,1.527,5.64,5.64,0,0,1-2.536.547,5.055,5.055,0,0,1-3.5-1.2A4.035,4.035,0,0,1,52.408,10.8Zm1.825.172a3.12,3.12,0,0,0,.819,2.258,3.239,3.239,0,0,0,4.39-.012,3.386,3.386,0,0,0,.814-2.418,3.118,3.118,0,0,0-.829-2.254,2.912,2.912,0,0,0-2.2-.863,2.88,2.88,0,0,0-2.168.852A3.364,3.364,0,0,0,54.233,10.867ZM75.5,12.758a1.007,1.007,0,0,0-.554-.91,6.231,6.231,0,0,0-1.933-.559,10.854,10.854,0,0,1-2.188-.562,3.059,3.059,0,0,1-1.2-.781,1.6,1.6,0,0,1-.388-1.078,2.078,2.078,0,0,1,1.1-1.758,5.077,5.077,0,0,1,2.82-.719,5.225,5.225,0,0,1,2.928.742,2.209,2.209,0,0,1,1.123,1.9H75.394a1.231,1.231,0,0,0-.633-1.023,2.776,2.776,0,0,0-1.594-.43,2.957,2.957,0,0,0-1.55.344,1.026,1.026,0,0,0-.559.9.846.846,0,0,0,.52.789,7.54,7.54,0,0,0,1.879.508,11.608,11.608,0,0,1,2.2.578,3.167,3.167,0,0,1,1.251.809,1.7,1.7,0,0,1,.407,1.152,2.056,2.056,0,0,1-1.138,1.816,5.676,5.676,0,0,1-2.953.684A6.539,6.539,0,0,1,70.97,14.8a3.612,3.612,0,0,1-1.535-1A2.1,2.1,0,0,1,68.88,12.4h1.815a1.425,1.425,0,0,0,.731,1.152,3.363,3.363,0,0,0,1.8.426,3.521,3.521,0,0,0,1.653-.332A1,1,0,0,0,75.5,12.758Zm8.584,2.4a5.3,5.3,0,0,1-3.512-1.129,3.731,3.731,0,0,1-1.354-3.02v-.266a4.224,4.224,0,0,1,.6-2.246,4.163,4.163,0,0,1,1.687-1.547,5.054,5.054,0,0,1,2.35-.559,4.5,4.5,0,0,1,3.218,1.086,4.076,4.076,0,0,1,1.148,3.109v.6H81.035a2.675,2.675,0,0,0,.917,2.02,3.262,3.262,0,0,0,2.232.77,3.822,3.822,0,0,0,1.629-.312,3.94,3.94,0,0,0,1.167-.828l1.109.688A4.866,4.866,0,0,1,84.086,15.156ZM83.86,7.578a2.741,2.741,0,0,0-1.844.637A2.813,2.813,0,0,0,81.094,10h5.317V9.891a2.436,2.436,0,0,0-.746-1.707A2.584,2.584,0,0,0,83.86,7.578ZM97.271,15H95.456V3h1.815Zm2.423-4.3a4.164,4.164,0,0,1,.613-2.234,4.076,4.076,0,0,1,1.707-1.531,5.576,5.576,0,0,1,2.5-.539,5.069,5.069,0,0,1,3.507,1.2,4.053,4.053,0,0,1,1.339,3.18v.1a4.192,4.192,0,0,1-.594,2.215,4.01,4.01,0,0,1-1.7,1.527,5.64,5.64,0,0,1-2.536.547,5.055,5.055,0,0,1-3.5-1.2A4.035,4.035,0,0,1,99.694,10.8Zm1.825.172a3.12,3.12,0,0,0,.819,2.258,3.239,3.239,0,0,0,4.39-.012,3.386,3.386,0,0,0,.814-2.418,3.118,3.118,0,0,0-.829-2.254,2.912,2.912,0,0,0-2.2-.863,2.88,2.88,0,0,0-2.168.852A3.364,3.364,0,0,0,101.519,10.867ZM111.2,10.7a4.292,4.292,0,0,1,1.148-3.145,4.643,4.643,0,0,1,6.073-.074l.088-.937h1.658V14.8a3.092,3.092,0,0,1-1.221,2.586,5.224,5.224,0,0,1-3.282.945,6.66,6.66,0,0,1-2.247-.391,3.83,3.83,0,0,1-1.678-1.07l.942-.867a3.916,3.916,0,0,0,2.855,1.148,3.22,3.22,0,0,0,2.065-.594,2.021,2.021,0,0,0,.741-1.672v-.727a4.226,4.226,0,0,1-2.973,1,4,4,0,0,1-3.017-1.2A4.5,4.5,0,0,1,111.2,10.7Zm1.825.164a3.233,3.233,0,0,0,.736,2.246,2.631,2.631,0,0,0,2.06.816,2.787,2.787,0,0,0,2.521-1.242V8.828a2.836,2.836,0,0,0-2.5-1.211,2.656,2.656,0,0,0-2.07.82A3.5,3.5,0,0,0,113.026,10.867Zm15.01-3.023a6.8,6.8,0,0,0-.893-.055A2.482,2.482,0,0,0,124.72,9v6h-1.815V6.547h1.766l.029.977a3.036,3.036,0,0,1,2.531-1.133,2.278,2.278,0,0,1,.8.109ZM135.865,15a2.539,2.539,0,0,1-.255-.891,4.589,4.589,0,0,1-3.022,1.047,4.376,4.376,0,0,1-2.575-.707,2.119,2.119,0,0,1-1.006-1.793,2.266,2.266,0,0,1,1.261-2.051,7.127,7.127,0,0,1,3.546-.73h1.766V9.211A1.458,1.458,0,0,0,135.011,8a2.667,2.667,0,0,0-1.678-.449,3.14,3.14,0,0,0-1.629.391,1.116,1.116,0,0,0-.657.945h-1.825a1.768,1.768,0,0,1,.564-1.223,3.869,3.869,0,0,1,1.53-.934,6.3,6.3,0,0,1,2.124-.344,4.934,4.934,0,0,1,2.874.73A2.424,2.424,0,0,1,137.4,9.133v3.891a3.9,3.9,0,0,0,.373,1.852V15Zm-3.012-1.1a3.832,3.832,0,0,0,1.619-.352,2.438,2.438,0,0,0,1.109-.914V10.9h-1.423q-3.336,0-3.336,1.555a1.212,1.212,0,0,0,.569,1.063A2.568,2.568,0,0,0,132.853,13.9Zm12.518-6.055a6.8,6.8,0,0,0-.893-.055A2.482,2.482,0,0,0,142.055,9v6H140.24V6.547h1.766l.029.977a3.036,3.036,0,0,1,2.531-1.133,2.278,2.278,0,0,1,.8.109ZM153.2,15a2.538,2.538,0,0,1-.255-.891,4.589,4.589,0,0,1-3.022,1.047,4.376,4.376,0,0,1-2.575-.707,2.119,2.119,0,0,1-1.006-1.793,2.266,2.266,0,0,1,1.261-2.051,7.127,7.127,0,0,1,3.546-.73h1.766V9.211A1.458,1.458,0,0,0,152.346,8a2.667,2.667,0,0,0-1.678-.449,3.14,3.14,0,0,0-1.629.391,1.116,1.116,0,0,0-.657.945h-1.825a1.768,1.768,0,0,1,.564-1.223,3.869,3.869,0,0,1,1.53-.934,6.3,6.3,0,0,1,2.124-.344,4.934,4.934,0,0,1,2.874.73,2.424,2.424,0,0,1,1.079,2.012v3.891a3.9,3.9,0,0,0,.373,1.852V15Zm-3.012-1.1a3.832,3.832,0,0,0,1.619-.352,2.438,2.438,0,0,0,1.109-.914V10.9h-1.423q-3.336,0-3.336,1.555a1.212,1.212,0,0,0,.569,1.063A2.568,2.568,0,0,0,150.188,13.9ZM151.866,3h2.2l-2.629,2.3h-1.462Zm15.088,12.156a5.3,5.3,0,0,1-3.512-1.129,3.731,3.731,0,0,1-1.354-3.02v-.266a4.224,4.224,0,0,1,.6-2.246,4.163,4.163,0,0,1,1.687-1.547,5.054,5.054,0,0,1,2.35-.559,4.5,4.5,0,0,1,3.218,1.086,4.076,4.076,0,0,1,1.148,3.109v.6H163.9a2.675,2.675,0,0,0,.917,2.02,3.262,3.262,0,0,0,2.232.77,3.822,3.822,0,0,0,1.629-.312,3.94,3.94,0,0,0,1.167-.828l1.109.688A4.866,4.866,0,0,1,166.954,15.156Zm-.226-7.578a2.741,2.741,0,0,0-1.844.637A2.813,2.813,0,0,0,163.962,10h5.317V9.891a2.436,2.436,0,0,0-.746-1.707A2.584,2.584,0,0,0,166.728,7.578ZM175.165,15H173.35V3h1.815Zm10.34-10.5V6.547h1.982V7.664h-1.982v5.242a1.008,1.008,0,0,0,.265.762,1.287,1.287,0,0,0,.9.254,5.462,5.462,0,0,0,.863-.094V15a6.527,6.527,0,0,1-1.393.156,2.574,2.574,0,0,1-1.835-.586,2.183,2.183,0,0,1-.618-1.664V7.664h-1.933V6.547h1.933V4.5Zm9.232,3.344a6.8,6.8,0,0,0-.893-.055A2.482,2.482,0,0,0,191.421,9v6h-1.815V6.547h1.766l.029.977a3.036,3.036,0,0,1,2.531-1.133,2.278,2.278,0,0,1,.8.109ZM202.566,15a2.538,2.538,0,0,1-.255-.891,4.589,4.589,0,0,1-3.022,1.047,4.376,4.376,0,0,1-2.575-.707,2.119,2.119,0,0,1-1.006-1.793,2.266,2.266,0,0,1,1.261-2.051,7.127,7.127,0,0,1,3.546-.73h1.766V9.211A1.458,1.458,0,0,0,201.712,8a2.667,2.667,0,0,0-1.678-.449,3.14,3.14,0,0,0-1.629.391,1.116,1.116,0,0,0-.657.945h-1.825a1.768,1.768,0,0,1,.564-1.223,3.869,3.869,0,0,1,1.53-.934,6.3,6.3,0,0,1,2.124-.344,4.934,4.934,0,0,1,2.874.73A2.424,2.424,0,0,1,204.1,9.133v3.891a3.9,3.9,0,0,0,.373,1.852V15Zm-3.012-1.1a3.832,3.832,0,0,0,1.619-.352,2.438,2.438,0,0,0,1.109-.914V10.9h-1.422q-3.336,0-3.336,1.555a1.212,1.212,0,0,0,.569,1.063A2.568,2.568,0,0,0,199.554,13.9ZM201.231,3h2.2L200.8,5.3h-1.462Zm7.426,3.547.059,1.063A4.294,4.294,0,0,1,211.9,6.391q3.365,0,3.394,3.023V15h-1.815V9.406a1.7,1.7,0,0,0-.525-1.352,2.444,2.444,0,0,0-1.6-.437,3.11,3.11,0,0,0-1.55.375,2.8,2.8,0,0,0-1.04.984V15h-1.815V6.547Zm15.549,6.211a1.007,1.007,0,0,0-.554-.91,6.231,6.231,0,0,0-1.933-.559,10.854,10.854,0,0,1-2.188-.562,3.059,3.059,0,0,1-1.2-.781,1.6,1.6,0,0,1-.387-1.078,2.078,2.078,0,0,1,1.1-1.758,5.077,5.077,0,0,1,2.82-.719,5.225,5.225,0,0,1,2.928.742,2.209,2.209,0,0,1,1.123,1.9H224.1a1.231,1.231,0,0,0-.633-1.023,2.776,2.776,0,0,0-1.594-.43,2.957,2.957,0,0,0-1.55.344,1.026,1.026,0,0,0-.559.9.846.846,0,0,0,.52.789,7.54,7.54,0,0,0,1.879.508,11.608,11.608,0,0,1,2.2.578,3.167,3.167,0,0,1,1.251.809,1.7,1.7,0,0,1,.407,1.152,2.056,2.056,0,0,1-1.138,1.816,5.676,5.676,0,0,1-2.953.684,6.539,6.539,0,0,1-2.256-.359,3.612,3.612,0,0,1-1.535-1,2.1,2.1,0,0,1-.554-1.395H219.4a1.425,1.425,0,0,0,.731,1.152,3.363,3.363,0,0,0,1.8.426,3.521,3.521,0,0,0,1.653-.332A1,1,0,0,0,224.207,12.758ZM230.358,15h-1.815V6.547h1.815ZM228.4,4.3a.767.767,0,0,1,.27-.594,1.162,1.162,0,0,1,.8-.242,1.182,1.182,0,0,1,.8.242.762.762,0,0,1,.275.594.739.739,0,0,1-.275.586,1.209,1.209,0,0,1-.8.234,1.189,1.189,0,0,1-.8-.234A.744.744,0,0,1,228.4,4.3Zm7.328.2V6.547h1.982V7.664h-1.982v5.242a1.009,1.009,0,0,0,.265.762,1.287,1.287,0,0,0,.9.254,5.461,5.461,0,0,0,.863-.094V15a6.527,6.527,0,0,1-1.393.156,2.574,2.574,0,0,1-1.835-.586,2.183,2.183,0,0,1-.618-1.664V7.664h-1.933V6.547h1.933V4.5Zm3.424,6.2a4.164,4.164,0,0,1,.613-2.234,4.076,4.076,0,0,1,1.707-1.531,5.576,5.576,0,0,1,2.5-.539,5.069,5.069,0,0,1,3.507,1.2,4.053,4.053,0,0,1,1.339,3.18v.1a4.192,4.192,0,0,1-.594,2.215,4.01,4.01,0,0,1-1.7,1.527,5.64,5.64,0,0,1-2.536.547,5.055,5.055,0,0,1-3.5-1.2,4.035,4.035,0,0,1-1.339-3.164Zm1.825.172a3.12,3.12,0,0,0,.819,2.258,3.239,3.239,0,0,0,4.39-.012A3.386,3.386,0,0,0,247,10.7a3.118,3.118,0,0,0-.829-2.254,2.912,2.912,0,0,0-2.2-.863,2.88,2.88,0,0,0-2.168.852A3.364,3.364,0,0,0,240.973,10.867ZM.8,34.7a4.283,4.283,0,0,1,1.158-3.129,4.051,4.051,0,0,1,3.031-1.184,4.157,4.157,0,0,1,2.953,1.016V27H9.753V39H8.085L8,38.094a4.157,4.157,0,0,1-3.031,1.063,4,4,0,0,1-3.007-1.2A4.33,4.33,0,0,1,.8,34.813Zm1.815.164a3.2,3.2,0,0,0,.746,2.25,2.657,2.657,0,0,0,2.06.813A2.779,2.779,0,0,0,7.938,36.7V32.813a2.818,2.818,0,0,0-2.5-1.2,2.668,2.668,0,0,0-2.08.82A3.5,3.5,0,0,0,2.611,34.867Zm14.362,4.289a5.3,5.3,0,0,1-3.512-1.129,3.731,3.731,0,0,1-1.354-3.02v-.266a4.224,4.224,0,0,1,.6-2.246A4.163,4.163,0,0,1,14.4,30.949a5.054,5.054,0,0,1,2.35-.559,4.5,4.5,0,0,1,3.218,1.086,4.076,4.076,0,0,1,1.148,3.109v.6H13.922a2.675,2.675,0,0,0,.917,2.02,3.262,3.262,0,0,0,2.232.77,3.822,3.822,0,0,0,1.629-.312,3.94,3.94,0,0,0,1.167-.828l1.109.688A4.866,4.866,0,0,1,16.973,39.156Zm-.226-7.578a2.741,2.741,0,0,0-1.844.637A2.813,2.813,0,0,0,13.981,34H19.3v-.109a2.436,2.436,0,0,0-.746-1.707A2.584,2.584,0,0,0,16.748,31.578ZM30.158,39H28.344V27h1.815Zm2.423-4.3a4.164,4.164,0,0,1,.613-2.234A4.076,4.076,0,0,1,34.9,30.93a5.576,5.576,0,0,1,2.5-.539,5.069,5.069,0,0,1,3.507,1.2,4.053,4.053,0,0,1,1.339,3.18v.1a4.192,4.192,0,0,1-.594,2.215,4.01,4.01,0,0,1-1.7,1.527,5.64,5.64,0,0,1-2.536.547,5.055,5.055,0,0,1-3.5-1.2A4.035,4.035,0,0,1,32.582,34.8Zm1.825.172a3.12,3.12,0,0,0,.819,2.258,3.239,3.239,0,0,0,4.39-.012A3.386,3.386,0,0,0,40.43,34.7a3.118,3.118,0,0,0-.829-2.254,2.912,2.912,0,0,0-2.2-.863,2.88,2.88,0,0,0-2.168.852A3.364,3.364,0,0,0,34.406,34.867ZM50.7,36.758a1.007,1.007,0,0,0-.554-.91,6.231,6.231,0,0,0-1.933-.559,10.854,10.854,0,0,1-2.188-.562,3.059,3.059,0,0,1-1.2-.781,1.6,1.6,0,0,1-.388-1.078,2.078,2.078,0,0,1,1.1-1.758,5.077,5.077,0,0,1,2.82-.719,5.225,5.225,0,0,1,2.928.742,2.209,2.209,0,0,1,1.123,1.9H50.593a1.231,1.231,0,0,0-.633-1.023,2.776,2.776,0,0,0-1.594-.43,2.957,2.957,0,0,0-1.55.344,1.026,1.026,0,0,0-.559.9.846.846,0,0,0,.52.789,7.54,7.54,0,0,0,1.879.508,11.608,11.608,0,0,1,2.2.578,3.167,3.167,0,0,1,1.251.809,1.7,1.7,0,0,1,.407,1.152,2.056,2.056,0,0,1-1.138,1.816,5.676,5.676,0,0,1-2.953.684,6.539,6.539,0,0,1-2.256-.359,3.612,3.612,0,0,1-1.535-1,2.1,2.1,0,0,1-.554-1.395h1.815a1.425,1.425,0,0,0,.731,1.152,3.363,3.363,0,0,0,1.8.426,3.521,3.521,0,0,0,1.653-.332A1,1,0,0,0,50.7,36.758Zm13.411,1.219a3.059,3.059,0,0,0,1.7-.469,1.594,1.594,0,0,0,.8-1.172h1.717a2.313,2.313,0,0,1-.628,1.383,4.03,4.03,0,0,1-1.545,1.047,5.406,5.406,0,0,1-2.045.391A4.962,4.962,0,0,1,60.664,38a4.027,4.027,0,0,1-1.28-3.152v-.242a4.226,4.226,0,0,1,.569-2.2,3.837,3.837,0,0,1,1.633-1.492,5.574,5.574,0,0,1,2.516-.531,4.948,4.948,0,0,1,2.968.852,2.826,2.826,0,0,1,1.261,2.211H66.614a1.852,1.852,0,0,0-.78-1.348,2.8,2.8,0,0,0-1.732-.527,2.83,2.83,0,0,0-2.144.793,3.186,3.186,0,0,0-.76,2.293v.273a3.125,3.125,0,0,0,.755,2.25A2.848,2.848,0,0,0,64.112,37.977ZM72.343,39H70.528V27h1.815Zm4.876,0H75.4V30.547h1.815ZM75.257,28.3a.767.767,0,0,1,.27-.594,1.162,1.162,0,0,1,.8-.242,1.182,1.182,0,0,1,.8.242.762.762,0,0,1,.275.594.739.739,0,0,1-.275.586,1.209,1.209,0,0,1-.8.234,1.189,1.189,0,0,1-.8-.234A.744.744,0,0,1,75.257,28.3Zm9.271,10.852a5.3,5.3,0,0,1-3.512-1.129,3.731,3.731,0,0,1-1.354-3.02v-.266a4.224,4.224,0,0,1,.6-2.246,4.163,4.163,0,0,1,1.687-1.547,5.054,5.054,0,0,1,2.35-.559,4.5,4.5,0,0,1,3.218,1.086,4.076,4.076,0,0,1,1.148,3.109v.6H81.476a2.675,2.675,0,0,0,.917,2.02,3.262,3.262,0,0,0,2.232.77,3.822,3.822,0,0,0,1.629-.312,3.94,3.94,0,0,0,1.167-.828l1.109.688A4.866,4.866,0,0,1,84.527,39.156ZM84.3,31.578a2.741,2.741,0,0,0-1.844.637A2.813,2.813,0,0,0,81.535,34h5.317v-.109a2.436,2.436,0,0,0-.746-1.707A2.584,2.584,0,0,0,84.3,31.578Zm8.182-1.031.059,1.063a4.294,4.294,0,0,1,3.179-1.219q3.365,0,3.394,3.023V39H97.3V33.406a1.7,1.7,0,0,0-.525-1.352,2.444,2.444,0,0,0-1.6-.437,3.11,3.11,0,0,0-1.55.375,2.8,2.8,0,0,0-1.04.984V39H90.767V30.547ZM104.315,28.5v2.047H106.3v1.117h-1.982v5.242a1.008,1.008,0,0,0,.265.762,1.287,1.287,0,0,0,.9.254,5.461,5.461,0,0,0,.863-.094V39a6.527,6.527,0,0,1-1.393.156,2.574,2.574,0,0,1-1.835-.586,2.183,2.183,0,0,1-.618-1.664V31.664h-1.933V30.547H102.5V28.5Zm8.506,10.656a5.3,5.3,0,0,1-3.512-1.129,3.731,3.731,0,0,1-1.354-3.02v-.266a4.224,4.224,0,0,1,.6-2.246,4.163,4.163,0,0,1,1.687-1.547,5.054,5.054,0,0,1,2.35-.559,4.5,4.5,0,0,1,3.218,1.086,4.076,4.076,0,0,1,1.148,3.109v.6h-7.191a2.675,2.675,0,0,0,.917,2.02,3.263,3.263,0,0,0,2.232.77,3.822,3.822,0,0,0,1.629-.312,3.94,3.94,0,0,0,1.167-.828l1.109.688A4.866,4.866,0,0,1,112.82,39.156Zm-.226-7.578a2.741,2.741,0,0,0-1.844.637A2.813,2.813,0,0,0,109.828,34h5.317v-.109a2.436,2.436,0,0,0-.746-1.707A2.584,2.584,0,0,0,112.595,31.578Zm12.646,5.18a1.007,1.007,0,0,0-.554-.91,6.231,6.231,0,0,0-1.933-.559,10.854,10.854,0,0,1-2.188-.562,3.059,3.059,0,0,1-1.2-.781,1.6,1.6,0,0,1-.388-1.078,2.078,2.078,0,0,1,1.1-1.758,5.077,5.077,0,0,1,2.82-.719,5.225,5.225,0,0,1,2.928.742,2.209,2.209,0,0,1,1.123,1.9h-1.825a1.231,1.231,0,0,0-.633-1.023,2.776,2.776,0,0,0-1.594-.43,2.957,2.957,0,0,0-1.55.344,1.026,1.026,0,0,0-.559.9.846.846,0,0,0,.52.789,7.54,7.54,0,0,0,1.879.508,11.608,11.608,0,0,1,2.2.578,3.167,3.167,0,0,1,1.251.809,1.7,1.7,0,0,1,.407,1.152,2.056,2.056,0,0,1-1.138,1.816,5.676,5.676,0,0,1-2.953.684,6.539,6.539,0,0,1-2.256-.359,3.612,3.612,0,0,1-1.535-1,2.1,2.1,0,0,1-.554-1.395h1.815a1.425,1.425,0,0,0,.731,1.152,3.363,3.363,0,0,0,1.8.426,3.521,3.521,0,0,0,1.653-.332A1,1,0,0,0,125.24,36.758Zm8.712-2.055a4.283,4.283,0,0,1,1.158-3.129,4.051,4.051,0,0,1,3.031-1.184,4.157,4.157,0,0,1,2.953,1.016V27h1.815V39h-1.668l-.088-.906a4.157,4.157,0,0,1-3.031,1.063,4,4,0,0,1-3.007-1.2,4.33,4.33,0,0,1-1.163-3.141Zm1.815.164a3.2,3.2,0,0,0,.746,2.25,2.657,2.657,0,0,0,2.06.813,2.779,2.779,0,0,0,2.521-1.234V32.813a2.818,2.818,0,0,0-2.5-1.2,2.668,2.668,0,0,0-2.08.82A3.5,3.5,0,0,0,135.767,34.867Zm14.362,4.289a5.3,5.3,0,0,1-3.512-1.129,3.731,3.731,0,0,1-1.354-3.02v-.266a4.224,4.224,0,0,1,.6-2.246,4.163,4.163,0,0,1,1.687-1.547,5.054,5.054,0,0,1,2.35-.559,4.5,4.5,0,0,1,3.218,1.086,4.076,4.076,0,0,1,1.148,3.109v.6h-7.191a2.675,2.675,0,0,0,.917,2.02,3.262,3.262,0,0,0,2.232.77,3.822,3.822,0,0,0,1.629-.312,3.94,3.94,0,0,0,1.167-.828l1.109.688A4.866,4.866,0,0,1,150.129,39.156Zm-.226-7.578a2.741,2.741,0,0,0-1.844.637A2.813,2.813,0,0,0,147.137,34h5.317v-.109a2.436,2.436,0,0,0-.746-1.707A2.584,2.584,0,0,0,149.9,31.578ZM163.8,28.5v2.047h1.982v1.117H163.8v5.242a1.008,1.008,0,0,0,.265.762,1.287,1.287,0,0,0,.9.254,5.461,5.461,0,0,0,.863-.094V39a6.527,6.527,0,0,1-1.393.156,2.574,2.574,0,0,1-1.835-.586,2.183,2.183,0,0,1-.618-1.664V31.664h-1.933V30.547h1.933V28.5ZM174.459,39a2.539,2.539,0,0,1-.255-.891,4.589,4.589,0,0,1-3.022,1.047,4.376,4.376,0,0,1-2.575-.707,2.119,2.119,0,0,1-1.006-1.793,2.266,2.266,0,0,1,1.261-2.051,7.127,7.127,0,0,1,3.546-.73h1.766v-.664A1.458,1.458,0,0,0,173.605,32a2.667,2.667,0,0,0-1.678-.449,3.14,3.14,0,0,0-1.629.391,1.116,1.116,0,0,0-.657.945h-1.825a1.768,1.768,0,0,1,.564-1.223,3.869,3.869,0,0,1,1.53-.934,6.3,6.3,0,0,1,2.124-.344,4.934,4.934,0,0,1,2.874.73,2.424,2.424,0,0,1,1.079,2.012v3.891a3.9,3.9,0,0,0,.373,1.852V39Zm-3.012-1.1a3.832,3.832,0,0,0,1.619-.352,2.438,2.438,0,0,0,1.109-.914V34.9h-1.422q-3.336,0-3.336,1.555a1.212,1.212,0,0,0,.569,1.063A2.568,2.568,0,0,0,171.447,37.9Zm9.359,1.1h-1.815V27h1.815Zm8.77,0V31.664H187.9V30.547h1.678V29.68a2.555,2.555,0,0,1,.912-2.1,3.989,3.989,0,0,1,2.58-.742,5.914,5.914,0,0,1,1.246.133l-.1,1.172a6.511,6.511,0,0,0-.981-.07,2.04,2.04,0,0,0-1.364.41,1.46,1.46,0,0,0-.481,1.176v.891h2.266v1.117h-2.266V39Zm5.6-4.3a4.164,4.164,0,0,1,.613-2.234A4.076,4.076,0,0,1,197.5,30.93a5.576,5.576,0,0,1,2.5-.539,5.069,5.069,0,0,1,3.507,1.2,4.053,4.053,0,0,1,1.339,3.18v.1a4.192,4.192,0,0,1-.594,2.215,4.01,4.01,0,0,1-1.7,1.527,5.64,5.64,0,0,1-2.536.547,5.055,5.055,0,0,1-3.5-1.2,4.035,4.035,0,0,1-1.339-3.164Zm1.825.172a3.12,3.12,0,0,0,.819,2.258,3.239,3.239,0,0,0,4.39-.012,3.386,3.386,0,0,0,.814-2.418,3.118,3.118,0,0,0-.829-2.254,2.912,2.912,0,0,0-2.2-.863,2.88,2.88,0,0,0-2.168.852A3.364,3.364,0,0,0,197,34.867Zm15.245-3.023a6.8,6.8,0,0,0-.893-.055A2.483,2.483,0,0,0,208.932,33v6h-1.815V30.547h1.766l.029.977a3.036,3.036,0,0,1,2.531-1.133,2.278,2.278,0,0,1,.8.109Zm3.375-1.3.049.938a4.421,4.421,0,0,1,3.149-1.094,3.224,3.224,0,0,1,3.031,1.359,3.857,3.857,0,0,1,1.378-.984,4.933,4.933,0,0,1,2.006-.375q3.492,0,3.551,2.945V39h-1.815V33.422a1.694,1.694,0,0,0-.52-1.355,2.674,2.674,0,0,0-1.746-.449,2.8,2.8,0,0,0-1.678.48,1.828,1.828,0,0,0-.775,1.293V39H220.43V33.461q0-1.844-2.266-1.844a2.527,2.527,0,0,0-2.443,1.211V39h-1.815V30.547ZM238.079,39a2.539,2.539,0,0,1-.255-.891,4.589,4.589,0,0,1-3.022,1.047,4.376,4.376,0,0,1-2.575-.707,2.119,2.119,0,0,1-1.006-1.793,2.266,2.266,0,0,1,1.261-2.051,7.127,7.127,0,0,1,3.546-.73h1.766v-.664A1.458,1.458,0,0,0,237.225,32a2.667,2.667,0,0,0-1.678-.449,3.14,3.14,0,0,0-1.629.391,1.116,1.116,0,0,0-.657.945h-1.825A1.768,1.768,0,0,1,232,31.668a3.869,3.869,0,0,1,1.53-.934,6.3,6.3,0,0,1,2.124-.344,4.934,4.934,0,0,1,2.874.73,2.424,2.424,0,0,1,1.079,2.012v3.891a3.9,3.9,0,0,0,.373,1.852V39Zm-3.012-1.1a3.832,3.832,0,0,0,1.619-.352,2.438,2.438,0,0,0,1.109-.914V34.9h-1.423q-3.335,0-3.336,1.555a1.212,1.212,0,0,0,.569,1.063A2.568,2.568,0,0,0,235.067,37.9ZM.8,58.7a4.286,4.286,0,0,1,1.148-3.152,4.138,4.138,0,0,1,3.08-1.16A4.206,4.206,0,0,1,8,55.4l.078-.852H9.743v11.7H7.928V62.219A4.351,4.351,0,0,1,5,63.156a4.05,4.05,0,0,1-3.066-1.191A4.374,4.374,0,0,1,.8,58.8Zm1.815.164a3.219,3.219,0,0,0,.77,2.281,2.7,2.7,0,0,0,2.075.828,2.9,2.9,0,0,0,2.472-1.141V56.7a2.918,2.918,0,0,0-2.453-1.117,2.718,2.718,0,0,0-2.09.832A3.484,3.484,0,0,0,2.611,58.867Zm16.6,3.3a4.392,4.392,0,0,1-3.11.992,3.787,3.787,0,0,1-2.585-.785,2.967,2.967,0,0,1-.9-2.324v-5.5h1.815v5.461a1.717,1.717,0,0,0,1.962,1.922A2.882,2.882,0,0,0,19.161,60.7V54.547h1.815V63H19.249Zm8.927.992a5.3,5.3,0,0,1-3.512-1.129,3.731,3.731,0,0,1-1.354-3.02v-.266a4.224,4.224,0,0,1,.6-2.246,4.163,4.163,0,0,1,1.687-1.547,5.054,5.054,0,0,1,2.35-.559,4.5,4.5,0,0,1,3.218,1.086,4.076,4.076,0,0,1,1.148,3.109v.6H25.087A2.675,2.675,0,0,0,26,61.207a3.262,3.262,0,0,0,2.232.77,3.822,3.822,0,0,0,1.629-.312,3.94,3.94,0,0,0,1.167-.828l1.109.688A4.866,4.866,0,0,1,28.138,63.156Zm-.226-7.578a2.741,2.741,0,0,0-1.844.637A2.813,2.813,0,0,0,25.145,58h5.317v-.109a2.436,2.436,0,0,0-.746-1.707A2.584,2.584,0,0,0,27.912,55.578Zm13.156-1.031.059,1.063a4.294,4.294,0,0,1,3.179-1.219q3.365,0,3.394,3.023V63H45.884V57.406a1.7,1.7,0,0,0-.525-1.352,2.444,2.444,0,0,0-1.6-.437,3.11,3.11,0,0,0-1.55.375,2.8,2.8,0,0,0-1.04.984V63H39.351V54.547ZM49.956,58.7a4.164,4.164,0,0,1,.613-2.234,4.076,4.076,0,0,1,1.707-1.531,5.576,5.576,0,0,1,2.5-.539,5.069,5.069,0,0,1,3.507,1.2,4.053,4.053,0,0,1,1.339,3.18v.1a4.192,4.192,0,0,1-.594,2.215,4.01,4.01,0,0,1-1.7,1.527,5.64,5.64,0,0,1-2.536.547,5.055,5.055,0,0,1-3.5-1.2A4.035,4.035,0,0,1,49.956,58.8Zm1.825.172a3.12,3.12,0,0,0,.819,2.258,3.239,3.239,0,0,0,4.39-.012A3.386,3.386,0,0,0,57.8,58.7a3.118,3.118,0,0,0-.829-2.254,2.912,2.912,0,0,0-2.2-.863,2.88,2.88,0,0,0-2.168.852A3.364,3.364,0,0,0,51.78,58.867Zm21.269,1.891a1.007,1.007,0,0,0-.554-.91,6.231,6.231,0,0,0-1.933-.559,10.854,10.854,0,0,1-2.188-.562,3.059,3.059,0,0,1-1.2-.781,1.6,1.6,0,0,1-.388-1.078,2.078,2.078,0,0,1,1.1-1.758,5.077,5.077,0,0,1,2.82-.719,5.225,5.225,0,0,1,2.928.742,2.209,2.209,0,0,1,1.123,1.9H72.941a1.231,1.231,0,0,0-.633-1.023,2.776,2.776,0,0,0-1.594-.43,2.957,2.957,0,0,0-1.55.344,1.026,1.026,0,0,0-.559.9.846.846,0,0,0,.52.789A7.54,7.54,0,0,0,71,58.117a11.608,11.608,0,0,1,2.2.578,3.167,3.167,0,0,1,1.251.809,1.7,1.7,0,0,1,.407,1.152,2.056,2.056,0,0,1-1.138,1.816,5.676,5.676,0,0,1-2.953.684,6.539,6.539,0,0,1-2.256-.359,3.612,3.612,0,0,1-1.535-1,2.1,2.1,0,0,1-.554-1.395h1.815a1.425,1.425,0,0,0,.731,1.152,3.363,3.363,0,0,0,1.8.426,3.521,3.521,0,0,0,1.653-.332A1,1,0,0,0,73.049,60.758Zm8.584,2.4a5.3,5.3,0,0,1-3.512-1.129,3.731,3.731,0,0,1-1.354-3.02v-.266a4.224,4.224,0,0,1,.6-2.246,4.163,4.163,0,0,1,1.687-1.547,5.054,5.054,0,0,1,2.35-.559,4.5,4.5,0,0,1,3.218,1.086,4.076,4.076,0,0,1,1.148,3.109v.6H78.582a2.675,2.675,0,0,0,.917,2.02,3.262,3.262,0,0,0,2.232.77,3.822,3.822,0,0,0,1.629-.312,3.94,3.94,0,0,0,1.167-.828l1.109.688A4.866,4.866,0,0,1,81.633,63.156Zm-.226-7.578a2.741,2.741,0,0,0-1.844.637A2.813,2.813,0,0,0,78.641,58h5.317v-.109a2.436,2.436,0,0,0-.746-1.707A2.584,2.584,0,0,0,81.408,55.578Zm20.406,3.289a4.356,4.356,0,0,1-1.109,3.109,3.922,3.922,0,0,1-3,1.18,4.441,4.441,0,0,1-3.041-.977v4.07H92.847v-11.7H94.5l.088.938a4.2,4.2,0,0,1,3.08-1.094,4.02,4.02,0,0,1,3.026,1.148,4.4,4.4,0,0,1,1.113,3.2ZM100,58.7a3.2,3.2,0,0,0-.765-2.258,2.717,2.717,0,0,0-2.1-.828,2.829,2.829,0,0,0-2.472,1.164V60.82a2.841,2.841,0,0,0,2.492,1.156,2.7,2.7,0,0,0,2.075-.824A3.469,3.469,0,0,0,100,58.7Zm9.251-2.859a6.8,6.8,0,0,0-.893-.055A2.482,2.482,0,0,0,105.934,57v6h-1.815V54.547h1.766l.029.977a3.036,3.036,0,0,1,2.531-1.133,2.278,2.278,0,0,1,.8.109Zm.991,2.852a4.164,4.164,0,0,1,.613-2.234,4.076,4.076,0,0,1,1.707-1.531,5.576,5.576,0,0,1,2.5-.539,5.069,5.069,0,0,1,3.507,1.2,4.053,4.053,0,0,1,1.339,3.18v.1a4.192,4.192,0,0,1-.594,2.215,4.01,4.01,0,0,1-1.7,1.527,5.64,5.64,0,0,1-2.536.547,5.055,5.055,0,0,1-3.5-1.2A4.035,4.035,0,0,1,110.24,58.8Zm1.825.172a3.12,3.12,0,0,0,.819,2.258,3.239,3.239,0,0,0,4.39-.012,3.386,3.386,0,0,0,.814-2.418,3.118,3.118,0,0,0-.829-2.254,2.912,2.912,0,0,0-2.2-.863,2.88,2.88,0,0,0-2.168.852A3.364,3.364,0,0,0,112.065,58.867Zm9.673-.164a4.283,4.283,0,0,1,1.158-3.129,4.051,4.051,0,0,1,3.031-1.184,4.157,4.157,0,0,1,2.953,1.016V51h1.815V63h-1.668l-.088-.906a4.157,4.157,0,0,1-3.031,1.063,4,4,0,0,1-3.007-1.2,4.33,4.33,0,0,1-1.163-3.141Zm1.815.164a3.2,3.2,0,0,0,.746,2.25,2.657,2.657,0,0,0,2.06.813A2.779,2.779,0,0,0,128.88,60.7V56.813a2.818,2.818,0,0,0-2.5-1.2,2.668,2.668,0,0,0-2.08.82A3.5,3.5,0,0,0,123.553,58.867Zm16.511,3.3a4.392,4.392,0,0,1-3.11.992,3.787,3.787,0,0,1-2.585-.785,2.967,2.967,0,0,1-.9-2.324v-5.5h1.815v5.461a1.717,1.717,0,0,0,1.962,1.922,2.882,2.882,0,0,0,2.767-1.234V54.547h1.815V63H140.1Zm6.23-.344h6.21V63h-8.427V61.938l5.857-6.2h-5.768v-1.2h8.044V55.57Zm12.351.156a3.059,3.059,0,0,0,1.7-.469,1.594,1.594,0,0,0,.8-1.172h1.717a2.313,2.313,0,0,1-.628,1.383,4.03,4.03,0,0,1-1.545,1.047,5.406,5.406,0,0,1-2.045.391A4.962,4.962,0,0,1,155.2,62a4.027,4.027,0,0,1-1.28-3.152v-.242a4.226,4.226,0,0,1,.569-2.2,3.837,3.837,0,0,1,1.633-1.492,5.574,5.574,0,0,1,2.516-.531,4.948,4.948,0,0,1,2.968.852,2.826,2.826,0,0,1,1.261,2.211h-1.717a1.853,1.853,0,0,0-.78-1.348,2.8,2.8,0,0,0-1.732-.527,2.83,2.83,0,0,0-2.144.793,3.186,3.186,0,0,0-.76,2.293v.273a3.125,3.125,0,0,0,.755,2.25A2.848,2.848,0,0,0,158.645,61.977ZM171.457,63a2.538,2.538,0,0,1-.255-.891,4.589,4.589,0,0,1-3.022,1.047,4.376,4.376,0,0,1-2.575-.707,2.119,2.119,0,0,1-1.006-1.793,2.266,2.266,0,0,1,1.261-2.051,7.127,7.127,0,0,1,3.546-.73h1.766v-.664A1.458,1.458,0,0,0,170.6,56a2.667,2.667,0,0,0-1.678-.449,3.14,3.14,0,0,0-1.629.391,1.116,1.116,0,0,0-.657.945h-1.825a1.768,1.768,0,0,1,.564-1.223,3.869,3.869,0,0,1,1.53-.934,6.3,6.3,0,0,1,2.124-.344,4.934,4.934,0,0,1,2.874.73,2.424,2.424,0,0,1,1.079,2.012v3.891a3.9,3.9,0,0,0,.373,1.852V63Zm-3.012-1.1a3.832,3.832,0,0,0,1.619-.352,2.438,2.438,0,0,0,1.109-.914V58.9H169.75q-3.336,0-3.336,1.555a1.212,1.212,0,0,0,.569,1.063A2.568,2.568,0,0,0,168.445,61.9Zm9.1-7.352.059,1.063a4.294,4.294,0,0,1,3.179-1.219q3.365,0,3.394,3.023V63h-1.815V57.406a1.7,1.7,0,0,0-.525-1.352,2.444,2.444,0,0,0-1.6-.437,3.11,3.11,0,0,0-1.55.375,2.8,2.8,0,0,0-1.04.984V63h-1.815V54.547ZM10.2,82.867A4.356,4.356,0,0,1,9.1,85.977a3.922,3.922,0,0,1-3,1.18,4.441,4.441,0,0,1-3.041-.977v4.07H1.238v-11.7H2.9l.088.938a4.2,4.2,0,0,1,3.08-1.094,4.02,4.02,0,0,1,3.026,1.148,4.4,4.4,0,0,1,1.113,3.2ZM8.389,82.7a3.2,3.2,0,0,0-.765-2.258,2.717,2.717,0,0,0-2.1-.828,2.829,2.829,0,0,0-2.472,1.164V84.82a2.841,2.841,0,0,0,2.492,1.156,2.7,2.7,0,0,0,2.075-.824A3.469,3.469,0,0,0,8.389,82.7Zm8.525,4.453A5.3,5.3,0,0,1,13.4,86.027a3.731,3.731,0,0,1-1.354-3.02v-.266a4.224,4.224,0,0,1,.6-2.246,4.163,4.163,0,0,1,1.687-1.547,5.054,5.054,0,0,1,2.35-.559,4.5,4.5,0,0,1,3.218,1.086,4.076,4.076,0,0,1,1.148,3.109v.6H13.864a2.675,2.675,0,0,0,.917,2.02,3.262,3.262,0,0,0,2.232.77,3.822,3.822,0,0,0,1.629-.312,3.94,3.94,0,0,0,1.167-.828l1.109.688A4.866,4.866,0,0,1,16.915,87.156Zm-.226-7.578a2.741,2.741,0,0,0-1.844.637A2.813,2.813,0,0,0,13.922,82H19.24v-.109a2.436,2.436,0,0,0-.746-1.707A2.584,2.584,0,0,0,16.689,79.578ZM17.572,75h2.2L17.14,77.3H15.678Zm10.713,4.844a6.8,6.8,0,0,0-.893-.055A2.483,2.483,0,0,0,24.969,81v6H23.154V78.547H24.92l.029.977a3.036,3.036,0,0,1,2.531-1.133,2.278,2.278,0,0,1,.8.109Zm1.04,2.859a4.283,4.283,0,0,1,1.158-3.129,4.051,4.051,0,0,1,3.031-1.184,4.157,4.157,0,0,1,2.953,1.016V75h1.815V87H36.614l-.088-.906a4.157,4.157,0,0,1-3.031,1.063,4,4,0,0,1-3.007-1.2,4.33,4.33,0,0,1-1.163-3.141Zm1.815.164a3.2,3.2,0,0,0,.746,2.25,2.657,2.657,0,0,0,2.06.813A2.779,2.779,0,0,0,36.467,84.7V80.813a2.818,2.818,0,0,0-2.5-1.2,2.668,2.668,0,0,0-2.08.82A3.5,3.5,0,0,0,31.14,82.867ZM43.069,87H41.254V78.547h1.815ZM41.107,76.3a.767.767,0,0,1,.27-.594,1.162,1.162,0,0,1,.8-.242,1.182,1.182,0,0,1,.8.242.762.762,0,0,1,.275.594.739.739,0,0,1-.275.586,1.209,1.209,0,0,1-.8.234,1.189,1.189,0,0,1-.8-.234A.744.744,0,0,1,41.107,76.3Zm4.424,6.4a4.283,4.283,0,0,1,1.158-3.129,4.051,4.051,0,0,1,3.031-1.184,4.157,4.157,0,0,1,2.953,1.016V75h1.815V87H52.82l-.088-.906A4.157,4.157,0,0,1,49.7,87.156a4,4,0,0,1-3.007-1.2,4.33,4.33,0,0,1-1.163-3.141Zm1.815.164a3.2,3.2,0,0,0,.746,2.25,2.657,2.657,0,0,0,2.06.813A2.779,2.779,0,0,0,52.673,84.7V80.813a2.818,2.818,0,0,0-2.5-1.2,2.668,2.668,0,0,0-2.08.82A3.5,3.5,0,0,0,47.346,82.867ZM63.857,87a2.538,2.538,0,0,1-.255-.891,4.589,4.589,0,0,1-3.022,1.047,4.376,4.376,0,0,1-2.575-.707A2.119,2.119,0,0,1,57,84.656a2.266,2.266,0,0,1,1.261-2.051,7.127,7.127,0,0,1,3.546-.73h1.766v-.664A1.458,1.458,0,0,0,63,80a2.667,2.667,0,0,0-1.678-.449,3.14,3.14,0,0,0-1.629.391,1.116,1.116,0,0,0-.657.945H57.215a1.768,1.768,0,0,1,.564-1.223,3.869,3.869,0,0,1,1.53-.934,6.3,6.3,0,0,1,2.124-.344,4.934,4.934,0,0,1,2.874.73,2.424,2.424,0,0,1,1.079,2.012v3.891a3.9,3.9,0,0,0,.373,1.852V87Zm-3.012-1.1a3.832,3.832,0,0,0,1.619-.352,2.438,2.438,0,0,0,1.109-.914V82.9H62.15q-3.336,0-3.336,1.555a1.212,1.212,0,0,0,.569,1.063A2.568,2.568,0,0,0,60.845,85.9Zm13.568-1.141a1.007,1.007,0,0,0-.554-.91,6.231,6.231,0,0,0-1.933-.559,10.854,10.854,0,0,1-2.188-.562,3.059,3.059,0,0,1-1.2-.781,1.6,1.6,0,0,1-.388-1.078,2.078,2.078,0,0,1,1.1-1.758,5.077,5.077,0,0,1,2.82-.719,5.225,5.225,0,0,1,2.928.742,2.209,2.209,0,0,1,1.123,1.9H74.305a1.231,1.231,0,0,0-.633-1.023,2.776,2.776,0,0,0-1.594-.43,2.957,2.957,0,0,0-1.55.344,1.026,1.026,0,0,0-.559.9.846.846,0,0,0,.52.789,7.54,7.54,0,0,0,1.879.508,11.608,11.608,0,0,1,2.2.578,3.167,3.167,0,0,1,1.251.809,1.7,1.7,0,0,1,.407,1.152,2.056,2.056,0,0,1-1.138,1.816,5.676,5.676,0,0,1-2.953.684,6.539,6.539,0,0,1-2.256-.359,3.612,3.612,0,0,1-1.535-1,2.1,2.1,0,0,1-.554-1.395h1.815a1.425,1.425,0,0,0,.731,1.152,3.363,3.363,0,0,0,1.8.426,3.521,3.521,0,0,0,1.653-.332A1,1,0,0,0,74.413,84.758Zm10.87-6.211.059,1.063a4.294,4.294,0,0,1,3.179-1.219q3.365,0,3.394,3.023V87H90.1V81.406a1.7,1.7,0,0,0-.525-1.352,2.444,2.444,0,0,0-1.6-.437,3.11,3.11,0,0,0-1.55.375,2.8,2.8,0,0,0-1.04.984V87H83.566V78.547ZM96.624,87H94.809V78.547h1.815ZM94.662,76.3a.767.767,0,0,1,.27-.594,1.162,1.162,0,0,1,.8-.242,1.182,1.182,0,0,1,.8.242.762.762,0,0,1,.275.594.739.739,0,0,1-.275.586,1.209,1.209,0,0,1-.8.234,1.189,1.189,0,0,1-.8-.234A.744.744,0,0,1,94.662,76.3Zm14.245,10.852a5.3,5.3,0,0,1-3.512-1.129,3.731,3.731,0,0,1-1.354-3.02v-.266a4.224,4.224,0,0,1,.6-2.246,4.163,4.163,0,0,1,1.687-1.547,5.054,5.054,0,0,1,2.35-.559,4.5,4.5,0,0,1,3.218,1.086,4.076,4.076,0,0,1,1.148,3.109v.6h-7.191a2.675,2.675,0,0,0,.917,2.02,3.262,3.262,0,0,0,2.232.77,3.822,3.822,0,0,0,1.629-.312,3.94,3.94,0,0,0,1.167-.828l1.109.688A4.866,4.866,0,0,1,108.906,87.156Zm-.226-7.578a2.741,2.741,0,0,0-1.844.637A2.813,2.813,0,0,0,105.914,82h5.317v-.109a2.436,2.436,0,0,0-.746-1.707A2.584,2.584,0,0,0,108.68,79.578Zm8.182-1.031.059,1.063a4.294,4.294,0,0,1,3.179-1.219q3.365,0,3.394,3.023V87h-1.815V81.406a1.7,1.7,0,0,0-.525-1.352,2.444,2.444,0,0,0-1.6-.437,3.11,3.11,0,0,0-1.55.375,2.8,2.8,0,0,0-1.04.984V87h-1.815V78.547Zm13.627,7.43a3.059,3.059,0,0,0,1.7-.469,1.594,1.594,0,0,0,.8-1.172h1.717a2.313,2.313,0,0,1-.628,1.383,4.03,4.03,0,0,1-1.545,1.047,5.406,5.406,0,0,1-2.045.391A4.962,4.962,0,0,1,127.041,86a4.027,4.027,0,0,1-1.28-3.152v-.242a4.226,4.226,0,0,1,.569-2.2,3.837,3.837,0,0,1,1.633-1.492,5.574,5.574,0,0,1,2.516-.531,4.948,4.948,0,0,1,2.968.852,2.826,2.826,0,0,1,1.261,2.211h-1.717a1.852,1.852,0,0,0-.78-1.348,2.8,2.8,0,0,0-1.732-.527,2.83,2.83,0,0,0-2.144.793,3.186,3.186,0,0,0-.76,2.293v.273a3.125,3.125,0,0,0,.755,2.25A2.848,2.848,0,0,0,130.489,85.977Zm5.778-3.281a4.164,4.164,0,0,1,.613-2.234,4.076,4.076,0,0,1,1.707-1.531,5.576,5.576,0,0,1,2.5-.539,5.069,5.069,0,0,1,3.507,1.2,4.053,4.053,0,0,1,1.339,3.18v.1a4.192,4.192,0,0,1-.594,2.215,4.01,4.01,0,0,1-1.7,1.527,5.64,5.64,0,0,1-2.536.547,5.055,5.055,0,0,1-3.5-1.2,4.035,4.035,0,0,1-1.339-3.164Zm1.825.172a3.12,3.12,0,0,0,.819,2.258,3.239,3.239,0,0,0,4.39-.012,3.386,3.386,0,0,0,.814-2.418,3.118,3.118,0,0,0-.829-2.254,2.912,2.912,0,0,0-2.2-.863,2.88,2.88,0,0,0-2.168.852A3.364,3.364,0,0,0,138.092,82.867Zm11.831-4.32.059,1.063a4.294,4.294,0,0,1,3.179-1.219q3.365,0,3.394,3.023V87H154.74V81.406a1.7,1.7,0,0,0-.525-1.352,2.444,2.444,0,0,0-1.6-.437,3.11,3.11,0,0,0-1.55.375,2.8,2.8,0,0,0-1.04.984V87h-1.815V78.547ZM161.754,76.5v2.047h1.982v1.117h-1.982v5.242a1.009,1.009,0,0,0,.265.762,1.287,1.287,0,0,0,.9.254,5.461,5.461,0,0,0,.863-.094V87a6.527,6.527,0,0,1-1.393.156,2.574,2.574,0,0,1-1.835-.586,2.183,2.183,0,0,1-.618-1.664V79.664h-1.933V78.547h1.933V76.5Zm9.232,3.344a6.8,6.8,0,0,0-.893-.055A2.483,2.483,0,0,0,167.67,81v6h-1.815V78.547h1.766l.029.977a3.036,3.036,0,0,1,2.531-1.133,2.278,2.278,0,0,1,.8.109Zm5.886,7.313a5.3,5.3,0,0,1-3.512-1.129,3.731,3.731,0,0,1-1.354-3.02v-.266a4.224,4.224,0,0,1,.6-2.246,4.163,4.163,0,0,1,1.687-1.547,5.054,5.054,0,0,1,2.35-.559,4.5,4.5,0,0,1,3.218,1.086,4.076,4.076,0,0,1,1.148,3.109v.6h-7.191a2.675,2.675,0,0,0,.917,2.02,3.262,3.262,0,0,0,2.232.77,3.822,3.822,0,0,0,1.629-.312,3.94,3.94,0,0,0,1.167-.828l1.109.688A4.866,4.866,0,0,1,176.872,87.156Zm-.226-7.578a2.741,2.741,0,0,0-1.844.637A2.813,2.813,0,0,0,173.88,82H179.2v-.109a2.436,2.436,0,0,0-.746-1.707A2.584,2.584,0,0,0,176.647,79.578Zm8.172-1.031.049.938a4.421,4.421,0,0,1,3.149-1.094,3.224,3.224,0,0,1,3.031,1.359,3.857,3.857,0,0,1,1.378-.984,4.933,4.933,0,0,1,2.006-.375q3.493,0,3.551,2.945V87h-1.815V81.422a1.694,1.694,0,0,0-.52-1.355,2.674,2.674,0,0,0-1.746-.449,2.8,2.8,0,0,0-1.678.48,1.828,1.828,0,0,0-.775,1.293V87h-1.825V81.461q0-1.844-2.266-1.844a2.527,2.527,0,0,0-2.443,1.211V87H183.1V78.547ZM200.24,82.7a4.164,4.164,0,0,1,.613-2.234,4.076,4.076,0,0,1,1.707-1.531,5.576,5.576,0,0,1,2.5-.539,5.069,5.069,0,0,1,3.507,1.2,4.053,4.053,0,0,1,1.339,3.18v.1a4.192,4.192,0,0,1-.594,2.215,4.01,4.01,0,0,1-1.7,1.527,5.639,5.639,0,0,1-2.536.547,5.055,5.055,0,0,1-3.5-1.2A4.035,4.035,0,0,1,200.24,82.8Zm1.825.172a3.12,3.12,0,0,0,.819,2.258,3.239,3.239,0,0,0,4.39-.012,3.386,3.386,0,0,0,.814-2.418,3.118,3.118,0,0,0-.829-2.254,2.912,2.912,0,0,0-2.2-.863,2.88,2.88,0,0,0-2.168.852A3.364,3.364,0,0,0,202.065,82.867Zm16.295,1.891a1.007,1.007,0,0,0-.554-.91,6.231,6.231,0,0,0-1.933-.559,10.854,10.854,0,0,1-2.188-.562,3.059,3.059,0,0,1-1.2-.781,1.6,1.6,0,0,1-.388-1.078,2.078,2.078,0,0,1,1.1-1.758,5.077,5.077,0,0,1,2.82-.719,5.225,5.225,0,0,1,2.928.742,2.209,2.209,0,0,1,1.123,1.9h-1.825a1.231,1.231,0,0,0-.633-1.023,2.776,2.776,0,0,0-1.594-.43,2.958,2.958,0,0,0-1.55.344,1.026,1.026,0,0,0-.559.9.846.846,0,0,0,.52.789,7.54,7.54,0,0,0,1.879.508,11.608,11.608,0,0,1,2.2.578,3.167,3.167,0,0,1,1.251.809,1.7,1.7,0,0,1,.407,1.152,2.056,2.056,0,0,1-1.138,1.816,5.676,5.676,0,0,1-2.953.684,6.539,6.539,0,0,1-2.256-.359,3.612,3.612,0,0,1-1.535-1,2.1,2.1,0,0,1-.554-1.395h1.815a1.425,1.425,0,0,0,.731,1.152,3.363,3.363,0,0,0,1.8.426,3.521,3.521,0,0,0,1.653-.332A1,1,0,0,0,218.36,84.758ZM7.791,111a2.538,2.538,0,0,1-.255-.891,4.589,4.589,0,0,1-3.022,1.047,4.376,4.376,0,0,1-2.575-.707,2.119,2.119,0,0,1-1.006-1.793,2.266,2.266,0,0,1,1.261-2.051,7.127,7.127,0,0,1,3.546-.73H7.506v-.664A1.458,1.458,0,0,0,6.937,104a2.667,2.667,0,0,0-1.678-.449,3.14,3.14,0,0,0-1.629.391,1.116,1.116,0,0,0-.657.945H1.149a1.768,1.768,0,0,1,.564-1.223,3.869,3.869,0,0,1,1.53-.934,6.3,6.3,0,0,1,2.124-.344,4.934,4.934,0,0,1,2.874.73,2.424,2.424,0,0,1,1.079,2.012v3.891a3.9,3.9,0,0,0,.373,1.852V111Zm-3.012-1.1a3.832,3.832,0,0,0,1.619-.352,2.438,2.438,0,0,0,1.109-.914V106.9H6.084q-3.336,0-3.336,1.555a1.212,1.212,0,0,0,.569,1.063A2.568,2.568,0,0,0,4.779,109.9Zm9.1-7.352.059,1.063a4.294,4.294,0,0,1,3.179-1.219q3.365,0,3.394,3.023V111H18.7v-5.594a1.7,1.7,0,0,0-.525-1.352,2.444,2.444,0,0,0-1.6-.437,3.11,3.11,0,0,0-1.55.375,2.8,2.8,0,0,0-1.04.984V111H12.166v-8.453Zm8.888,4.148a4.164,4.164,0,0,1,.613-2.234,4.076,4.076,0,0,1,1.707-1.531,5.576,5.576,0,0,1,2.5-.539,5.069,5.069,0,0,1,3.507,1.2,4.053,4.053,0,0,1,1.339,3.18v.1a4.192,4.192,0,0,1-.594,2.215,4.01,4.01,0,0,1-1.7,1.527,5.64,5.64,0,0,1-2.536.547,5.055,5.055,0,0,1-3.5-1.2,4.035,4.035,0,0,1-1.339-3.164Zm1.825.172a3.12,3.12,0,0,0,.819,2.258,3.239,3.239,0,0,0,4.39-.012,3.386,3.386,0,0,0,.814-2.418,3.118,3.118,0,0,0-.829-2.254,2.912,2.912,0,0,0-2.2-.863,2.88,2.88,0,0,0-2.168.852A3.364,3.364,0,0,0,24.6,106.867Zm11.821-4.32.049.938a4.421,4.421,0,0,1,3.149-1.094,3.224,3.224,0,0,1,3.031,1.359,3.857,3.857,0,0,1,1.378-.984,4.933,4.933,0,0,1,2.006-.375q3.492,0,3.551,2.945V111H47.768v-5.578a1.694,1.694,0,0,0-.52-1.355,2.674,2.674,0,0,0-1.746-.449,2.8,2.8,0,0,0-1.678.48,1.828,1.828,0,0,0-.775,1.293V111H41.225v-5.539q0-1.844-2.266-1.844a2.527,2.527,0,0,0-2.443,1.211V111H34.7v-8.453ZM58.873,111a2.538,2.538,0,0,1-.255-.891,4.589,4.589,0,0,1-3.022,1.047,4.376,4.376,0,0,1-2.575-.707,2.119,2.119,0,0,1-1.006-1.793,2.266,2.266,0,0,1,1.261-2.051,7.127,7.127,0,0,1,3.546-.73h1.766v-.664A1.458,1.458,0,0,0,58.02,104a2.667,2.667,0,0,0-1.678-.449,3.14,3.14,0,0,0-1.629.391,1.116,1.116,0,0,0-.657.945H52.232a1.768,1.768,0,0,1,.564-1.223,3.869,3.869,0,0,1,1.53-.934,6.3,6.3,0,0,1,2.124-.344,4.934,4.934,0,0,1,2.874.73,2.424,2.424,0,0,1,1.079,2.012v3.891a3.9,3.9,0,0,0,.373,1.852V111Zm-3.012-1.1a3.832,3.832,0,0,0,1.619-.352,2.438,2.438,0,0,0,1.109-.914V106.9H57.166q-3.336,0-3.336,1.555a1.212,1.212,0,0,0,.569,1.063A2.568,2.568,0,0,0,55.862,109.9Zm9.359,1.1H63.406V99h1.815Zm4.876,0H68.272v-8.453H70.1Zm.02-11.992h2.2l-2.629,2.3H68.223ZM79.642,111a2.538,2.538,0,0,1-.255-.891,4.589,4.589,0,0,1-3.022,1.047,4.376,4.376,0,0,1-2.575-.707,2.119,2.119,0,0,1-1.006-1.793,2.266,2.266,0,0,1,1.261-2.051,7.127,7.127,0,0,1,3.546-.73h1.766v-.664A1.458,1.458,0,0,0,78.788,104a2.667,2.667,0,0,0-1.678-.449,3.14,3.14,0,0,0-1.629.391,1.116,1.116,0,0,0-.657.945H73a1.768,1.768,0,0,1,.564-1.223,3.869,3.869,0,0,1,1.53-.934,6.3,6.3,0,0,1,2.124-.344,4.934,4.934,0,0,1,2.874.73,2.424,2.424,0,0,1,1.079,2.012v3.891a3.9,3.9,0,0,0,.373,1.852V111Zm-3.012-1.1a3.832,3.832,0,0,0,1.619-.352,2.438,2.438,0,0,0,1.109-.914V106.9H77.935q-3.336,0-3.336,1.555a1.212,1.212,0,0,0,.569,1.063A2.568,2.568,0,0,0,76.63,109.9ZM90.2,108.758a1.007,1.007,0,0,0-.554-.91,6.231,6.231,0,0,0-1.933-.559,10.854,10.854,0,0,1-2.188-.562,3.059,3.059,0,0,1-1.2-.781,1.6,1.6,0,0,1-.388-1.078,2.078,2.078,0,0,1,1.1-1.758,5.077,5.077,0,0,1,2.82-.719,5.225,5.225,0,0,1,2.928.742,2.209,2.209,0,0,1,1.123,1.9H90.09a1.231,1.231,0,0,0-.633-1.023,2.776,2.776,0,0,0-1.594-.43,2.957,2.957,0,0,0-1.55.344,1.026,1.026,0,0,0-.559.9.846.846,0,0,0,.52.789,7.54,7.54,0,0,0,1.879.508,11.608,11.608,0,0,1,2.2.578,3.167,3.167,0,0,1,1.251.809,1.7,1.7,0,0,1,.407,1.152,2.056,2.056,0,0,1-1.138,1.816,5.676,5.676,0,0,1-2.953.684,6.539,6.539,0,0,1-2.256-.359,3.612,3.612,0,0,1-1.535-1,2.1,2.1,0,0,1-.554-1.395h1.815a1.425,1.425,0,0,0,.731,1.152,3.363,3.363,0,0,0,1.8.426,3.521,3.521,0,0,0,1.653-.332A1,1,0,0,0,90.2,108.758Zm6.308-.961a2.975,2.975,0,0,1,1.266-2.664l1.285-1.055a2.144,2.144,0,0,0,.824-1.594,1.606,1.606,0,0,0-.54-1.285,2.341,2.341,0,0,0-1.57-.465,2.771,2.771,0,0,0-1.609.422,1.313,1.313,0,0,0-.608,1.133H93.739a2.435,2.435,0,0,1,1.133-2.043,4.96,4.96,0,0,1,2.9-.777,4.655,4.655,0,0,1,2.889.793,2.591,2.591,0,0,1,1.035,2.176,3.65,3.65,0,0,1-1.589,2.7l-1.069.844a2.3,2.3,0,0,0-.716,1.82Zm-.078,2.477a.756.756,0,0,1,.27-.59,1.175,1.175,0,0,1,.8-.238,1.2,1.2,0,0,1,.8.238.75.75,0,0,1,.275.59.728.728,0,0,1-.275.582,1.223,1.223,0,0,1-.8.23,1.2,1.2,0,0,1-.8-.23A.733.733,0,0,1,96.427,110.273Z" transform="translate(1189.309 561.001)" fill="#12263f"/>
    <path id="Trazado_131112" data-name="Trazado 131112" d="M14.341-8.335h2.168v3.809H14.341V0H9.4V-4.526H1.157L.864-7.544,9.4-21.284v-.044h4.937Zm-8.774,0H9.4V-14.9l-.308.5Z" transform="translate(1270.005 513)" fill="#fff"/>
  </g>
</svg>
