<svg xmlns="http://www.w3.org/2000/svg" width="46.621" height="42.261" viewBox="0 0 46.621 42.261">
  <g id="advertencia" transform="translate(0 -23.946)">
    <path id="Trazado_131118" data-name="Trazado 131118" d="M205.913,27.47l16.275,28.19a7.034,7.034,0,0,1-6.1,10.547H199.817l-5.628-21.13,5.628-21.13A7.031,7.031,0,0,1,205.913,27.47Z" transform="translate(-176.507)" fill="#3b4145"/>
    <path id="Trazado_131119" data-name="Trazado 131119" d="M17.215,27.47.94,55.659a7.034,7.034,0,0,0,6.1,10.547H23.311V23.946A7.031,7.031,0,0,0,17.215,27.47Z" fill="#525a61"/>
    <path id="Trazado_131120" data-name="Trazado 131120" d="M277.142,85.182l-16.275-28.19a4.236,4.236,0,0,0-3.537-2.114l13.92,36.63h2.234a4.22,4.22,0,0,0,3.658-6.326Z" transform="translate(-233.897 -28.115)" fill="#ffb751"/>
    <path id="Trazado_131121" data-name="Trazado 131121" d="M68.6,85.154a4.739,4.739,0,0,1,.486,2.1,3.968,3.968,0,0,1-3.642,4.221H35.127a4.221,4.221,0,0,1-3.658-6.326l16.275-28.19A4.239,4.239,0,0,1,51.4,54.847l.121,0a3.619,3.619,0,0,1,3.035,2.114Z" transform="translate(-28.092 -28.087)" fill="#ffd764"/>
    <path id="Trazado_131122" data-name="Trazado 131122" d="M256,354.131v4.69a2.345,2.345,0,1,0,0-4.69Z" transform="translate(-232.689 -300.119)" fill="#3b4145"/>
    <path id="Trazado_131123" data-name="Trazado 131123" d="M232.59,354.131c.259,0,.469,1.05.469,2.345s-.21,2.345-.469,2.345a2.345,2.345,0,0,1,0-4.69Z" transform="translate(-209.279 -300.119)" fill="#525a61"/>
    <path id="Trazado_131124" data-name="Trazado 131124" d="M256,132.646V150a2.345,2.345,0,0,0,2.345-2.345V134.991A2.345,2.345,0,0,0,256,132.646Z" transform="translate(-232.689 -98.802)" fill="#3b4145"/>
    <path id="Trazado_131125" data-name="Trazado 131125" d="M232.59,132.646c.259,0,.469,1.05.469,2.345v12.664c0,1.294-.21,2.345-.469,2.345a2.345,2.345,0,0,1-2.345-2.345V134.991A2.345,2.345,0,0,1,232.59,132.646Z" transform="translate(-209.279 -98.802)" fill="#525a61"/>
  </g>
</svg>
