<svg xmlns="http://www.w3.org/2000/svg" width="274" height="315" viewBox="0 0 274 315">
  <g id="Grupo_78316" data-name="Grupo 78316" transform="translate(-350 -1561)">
    <rect id="Rectángulo_8137" data-name="Rectángulo 8137" width="217" height="70" rx="10" transform="translate(379 1806)" fill="#fff"/>
    <text id="Presentación_" data-name="Presentación
" transform="translate(420 1829)" fill="#636363" font-size="18" font-family="Roboto-Black, Roboto" font-weight="800"><tspan x="13.601" y="19">Presentación</tspan></text>
    <g id="Grupo_78310" data-name="Grupo 78310">
      <rect id="Rectángulo_8131" data-name="Rectángulo 8131" width="274" height="115" rx="10" transform="translate(350 1561)" fill="#529ad9"/>
      <text id="MERCHANDISING_VISUAL" data-name="MERCHANDISING 
VISUAL" transform="translate(487 1606)" fill="#fff" font-size="18" font-family="Roboto-Black, Roboto" font-weight="800"><tspan x="-75.133" y="0">MERCHANDISING </tspan><tspan x="-31.188" y="25">VISUAL</tspan></text>
      <g id="Rectángulo_8134" data-name="Rectángulo 8134" transform="translate(379 1658)" fill="#aed5f7" stroke="#fff" stroke-width="3">
        <rect width="217" height="115" rx="10" stroke="none"/>
        <rect x="1.5" y="1.5" width="214" height="112" rx="8.5" fill="none"/>
      </g>
      <text id="Interior_Marca_Productor" data-name="Interior 
Marca 
Productor" transform="translate(447 1677)" font-size="18" font-family="Roboto-Regular, Roboto"><tspan x="12.471" y="19">Interior </tspan><tspan x="15.679" y="44">Marca </tspan><tspan x="1.454" y="69">Productor</tspan></text>
      <path id="flecha-correcta" d="M28.761,30.956a5.252,5.252,0,0,0-7.428,7.428l7.305,7.308H5.009a5.009,5.009,0,0,0,0,10.018h23.63l-7.305,7.305a5.252,5.252,0,0,0,7.428,7.428L47.8,51.408a1,1,0,0,0,0-1.417Z" transform="translate(537.699 1767) rotate(90)" fill="#529ad9"/>
    </g>
  </g>
</svg>
