<svg xmlns="http://www.w3.org/2000/svg" width="906" height="131" viewBox="0 0 906 131">
  <g id="Grupo_78319" data-name="Grupo 78319" transform="translate(-350 -1971)">
    <g id="Grupo_78313" data-name="Grupo 78313">
      <rect id="Rectángulo_8140" data-name="Rectángulo 8140" width="274" height="115" rx="10" transform="translate(350 1971)" fill="#529ad9"/>
      <text id="MERCHANDISING_VISUAL" data-name="MERCHANDISING 
VISUAL" transform="translate(487 2024)" fill="#fff" font-size="18" font-family="Roboto-Black, Roboto" font-weight="800"><tspan x="-75.133" y="0">MERCHANDISING </tspan><tspan x="-31.188" y="25">VISUAL</tspan></text>
      <g id="Grupo_73895" data-name="Grupo 73895" transform="translate(3.227 76.227)">
        <g id="Elipse_5352" data-name="Elipse 5352" transform="translate(467.773 1994.773)" fill="#e5dec1" stroke="#fff" stroke-width="2">
          <circle cx="15.5" cy="15.5" r="15.5" stroke="none"/>
          <circle cx="15.5" cy="15.5" r="14.5" fill="none"/>
        </g>
        <circle id="Elipse_5353" data-name="Elipse 5353" cx="7.5" cy="7.5" r="7.5" transform="translate(475.773 2002.773)" fill="#a0a603"/>
      </g>
    </g>
    <g id="Grupo_78314" data-name="Grupo 78314">
      <rect id="Rectángulo_8148" data-name="Rectángulo 8148" width="274" height="115" rx="10" transform="translate(663 1971)" fill="#aed5f7"/>
      <text id="MERCHANDISING_DE_GESTIÓN_" data-name="MERCHANDISING 
DE GESTIÓN " transform="translate(800 2024)" fill="#12263f" font-size="18" font-family="Roboto-Black, Roboto" font-weight="800"><tspan x="-75.133" y="0">MERCHANDISING </tspan><tspan x="-53.064" y="25">DE GESTIÓN </tspan></text>
      <g id="Grupo_73898" data-name="Grupo 73898" transform="translate(317.227 76.227)">
        <g id="Elipse_5352-2" data-name="Elipse 5352" transform="translate(467.773 1994.773)" fill="#e5dec1" stroke="#fff" stroke-width="2">
          <circle cx="15.5" cy="15.5" r="15.5" stroke="none"/>
          <circle cx="15.5" cy="15.5" r="14.5" fill="none"/>
        </g>
        <circle id="Elipse_5353-2" data-name="Elipse 5353" cx="7.5" cy="7.5" r="7.5" transform="translate(475.773 2002.773)" fill="#a0a603"/>
      </g>
    </g>
    <g id="Grupo_78315" data-name="Grupo 78315">
      <rect id="Rectángulo_8149" data-name="Rectángulo 8149" width="274" height="115" rx="10" transform="translate(982 1971)" fill="#aed5f7"/>
      <text id="MERCHANDISING_DE_SEDUCCIÓN" data-name="MERCHANDISING 
DE SEDUCCIÓN" transform="translate(1119 2024)" fill="#12263f" font-size="18" font-family="Roboto-Black, Roboto" font-weight="800"><tspan x="-75.133" y="0">MERCHANDISING </tspan><tspan x="-62.626" y="25">DE SEDUCCIÓN</tspan></text>
      <g id="Grupo_73899" data-name="Grupo 73899" transform="translate(636.227 76.227)">
        <g id="Elipse_5352-3" data-name="Elipse 5352" transform="translate(467.773 1994.773)" fill="#e5dec1" stroke="#fff" stroke-width="2">
          <circle cx="15.5" cy="15.5" r="15.5" stroke="none"/>
          <circle cx="15.5" cy="15.5" r="14.5" fill="none"/>
        </g>
        <circle id="Elipse_5353-3" data-name="Elipse 5353" cx="7.5" cy="7.5" r="7.5" transform="translate(475.773 2002.773)" fill="#a0a603"/>
      </g>
    </g>
  </g>
</svg>
