<svg xmlns="http://www.w3.org/2000/svg" width="268.906" height="297.341" viewBox="0 0 268.906 297.341">
  <g id="Grupo_78299" data-name="Grupo 78299" transform="translate(-420.494 -252.813)">
    <g id="Grupo_78296" data-name="Grupo 78296" transform="translate(519.159 252.813)">
      <rect id="Rect치ngulo_9045" data-name="Rect치ngulo 9045" width="170.241" height="186.298" fill="#e5e6ed"/>
      <rect id="Rect치ngulo_9046" data-name="Rect치ngulo 9046" width="147.349" height="159.931" transform="translate(11.446 13.184)" fill="#529ad9"/>
      <path id="Trazado_144540" data-name="Trazado 144540" d="M549.561,326.119a7.371,7.371,0,0,0-9.261-1.89s10.973-24.215,4.029-36.21a10.844,10.844,0,0,0-2.486-2.92c1.742-7.989-5.913-11.347-11.986-14.454a50.562,50.562,0,0,0-12.266-4.412c-7.932-1.652-16.859-1.3-24.068,2.685-8.056,4.451-16.154,13.532-24.532,11.467-1.733,4.069-1.483,7.411-.313,12.26a31.279,31.279,0,0,0,6.434,12.2,95.05,95.05,0,0,0,6.269,19.384,7.367,7.367,0,0,0-9.258,1.89c-4.207,4.84,6.944,17.043,9.469,18.516a52.956,52.956,0,0,0,9.306,18.031,40.892,40.892,0,0,0,9.539,8.381h-.811s-2.351,22.208-6.654,29.725h34.209c-3.975-6.941-6.281-26.361-6.609-29.309a40.979,40.979,0,0,0,10.214-8.8,53.025,53.025,0,0,0,9.307-18.031C542.618,343.162,553.768,330.959,549.561,326.119Z" transform="translate(-424.003 -227.657)" fill="#fff"/>
      <g id="Grupo_78295" data-name="Grupo 78295" transform="translate(73.354 69.967)">
        <path id="Trazado_144541" data-name="Trazado 144541" d="M484.407,312.694v-7.863a31.218,31.218,0,0,0,8.448-7.92,13.471,13.471,0,0,0,2.827-7.866,10.1,10.1,0,0,0-.069-1.148,2.566,2.566,0,0,0-1.04-2.1,4.383,4.383,0,0,0-2.185-.485,2.682,2.682,0,0,0-1.859.705,2.32,2.32,0,0,0-.787,1.853,7.741,7.741,0,0,0,.069,1.148,4.686,4.686,0,0,0,.145.693c.048.148.148.4.3.765s.28.663.374.9l-11.775,2.3c-.072-.253-.2-.651-.377-1.19s-.292-.9-.337-1.088-.127-.476-.235-.871a5.86,5.86,0,0,1-.2-.958c-.024-.244-.054-.548-.09-.91s-.051-.744-.051-1.136v-.235a12.713,12.713,0,0,1,.642-4.15,9.918,9.918,0,0,1,6.82-6.184,23.472,23.472,0,0,1,7-.916q8.051,0,12.329,3.24a10.751,10.751,0,0,1,4.276,9.1,19.093,19.093,0,0,1-3.6,10.629,21.493,21.493,0,0,1-8.644,7.775v5.919Zm-.323,13.016V315.578h12.706v10.132Z" transform="translate(-477.572 -276.029)" fill="#b2b555"/>
      </g>
    </g>
    <g id="Grupo_78298" data-name="Grupo 78298" transform="translate(420.494 375.743)">
      <path id="Trazado_144542" data-name="Trazado 144542" d="M425.689,284.494s3.966,7.064,2.031,9.192c0,0,5.322,4.84,9.484,2.806s1.748-3.858,1.748-3.858-2.908-1.272-4.361-7.369S425.689,284.494,425.689,284.494Z" transform="translate(-410.032 -250.283)" fill="#f88667"/>
      <path id="Trazado_144543" data-name="Trazado 144543" d="M429.89,295.275a8.727,8.727,0,0,1,7.163-4.37,14.8,14.8,0,0,1-2.462-5.639c-1.453-6.1-8.9-.775-8.9-.775s3.966,7.067,2.031,9.2A16.789,16.789,0,0,0,429.89,295.275Z" transform="translate(-410.032 -250.283)" fill="#e45940"/>
      <path id="Trazado_144544" data-name="Trazado 144544" d="M424.577,284.561s2.33-6.293,6.19-6.4,6.386.289,7.034,1.724,1.887,5.443,3.008,6.862,3.427,3.2,3.445,3.894-2.158,1.127-2.254,1.416-.826,5.373-1.579,5.967-8.4-1.612-9.743-3.7S424.6,288.485,424.577,284.561Z" transform="translate(-412.271 -258.737)" fill="#f88667"/>
      <path id="Trazado_144545" data-name="Trazado 144545" d="M435.633,287.468c1.031.7,3.574,1.392,7.468-.844s1.272-11.368-7.185-9.894-7.791,4.472-9.291,5.3a5.967,5.967,0,0,0-3.18,3.635c-.928,3.1-.678,6.66,3.656,9.816,4.382,3.192,7.01,2.33,7.01,2.33.06-1.079-.2-2.86-1.187-3.306a6.011,6.011,0,0,1-1.483-.6,1.662,1.662,0,0,1,1.32-2.929c.961.045,1.579,1.664,2.2,2.212.657.585,1.022.407,1.329.25.6-.3.85-2.248-.7-4.1C434.587,288.14,434.6,286.772,435.633,287.468Z" transform="translate(-415.434 -261.903)" fill="#110239"/>
      <path id="Trazado_144546" data-name="Trazado 144546" d="M423.315,324.613s-3.484,6.838-2.709,8.258,15.388,7.483,17.13,6.612,1.836-3.384-.964-5.4c-3-2.161-4.976-1.856-6.748-3.5s0-4.741,0-4.741Z" transform="translate(-420.494 -165.157)" fill="#110239"/>
      <path id="Trazado_144547" data-name="Trazado 144547" d="M434.547,326.372s.464,8.068,1.73,9.074,17.085.922,18.354-.555.47-3.535-2.752-4.18c-2.893-.579-5.03.03-7.272-.874-1.968-.793-3.035-5.147-3.035-5.147Z" transform="translate(-392.194 -165.001)" fill="#110239"/>
      <path id="Trazado_144548" data-name="Trazado 144548" d="M447.242,297.958l-20.617,1.269s15.512,37,17.639,41.448,5.455,41.138,5.455,41.138l9.508-1.534s-2.007-37.533-2.5-40.622A378.868,378.868,0,0,0,447.242,297.958Z" transform="translate(-408.147 -218.833)" fill="#b2b555"/>
      <path id="Trazado_144549" data-name="Trazado 144549" d="M440.253,313.027c.672-3.448,1.145-7.926,1.9-11.362.3-1.362,2.2-1.432,2.345-2.788a3.987,3.987,0,0,1-.823-.847l-17.046,1.049s15.512,37,17.639,41.448c.211.44.509,1.16.871,2.086-.009-.747-.036-1.495-.093-2.236C444.6,334.374,439.491,316.948,440.253,313.027Z" transform="translate(-408.147 -218.686)" fill="#6f7302"/>
      <path id="Trazado_144550" data-name="Trazado 144550" d="M452.655,298.536H435.04a26.733,26.733,0,0,0-2.031,13.935c1.064,7.549-1.226,22.178-1.353,24.113s-9.249,33.675-10.6,40.9l8.116,2.9S442.5,341.515,443.02,340.74,452.655,298.536,452.655,298.536Z" transform="translate(-419.367 -217.669)" fill="#b2b555"/>
      <g id="Grupo_78297" data-name="Grupo 78297" transform="translate(34.3 45.477)">
        <path id="Trazado_144551" data-name="Trazado 144551" d="M437.842,313.245s3.484,5.033,5.9,4.644,19.324-11.479,19.324-11.479l-3.55-2.36s-13.45,9.195-14.806,8.809c-.714-.2-4.295-9.421-7.2-16.325-3.583-8.508-5.636-9.74-5.636-9.74Z" transform="translate(-431.875 -286.793)" fill="#f88667"/>
        <path id="Trazado_144552" data-name="Trazado 144552" d="M437.842,313.245s3.484,5.033,5.9,4.644,19.324-11.479,19.324-11.479l-3.55-2.36s-13.45,9.195-14.806,8.809c-.657-.19-4.581-10.569-7.444-16.889-3.888-8.592-5.395-9.177-5.395-9.177Z" transform="translate(-431.875 -286.793)" fill="#e45940"/>
        <path id="Trazado_144553" data-name="Trazado 144553" d="M439.265,299.345c.027-.039-1.447-3.231-1.935-4.186-3.948-7.742-5.455-8.366-5.455-8.366l3.417,15.156C436.667,301.2,438.544,300.376,439.265,299.345Z" transform="translate(-431.875 -286.793)" fill="#fd425f"/>
        <path id="Trazado_144554" data-name="Trazado 144554" d="M439.265,299.345c.027-.039-1.447-3.231-1.935-4.186-3.948-7.742-5.455-8.366-5.455-8.366l3.417,15.156C436.667,301.2,438.544,300.376,439.265,299.345Z" transform="translate(-431.875 -286.793)" fill="#a0a603"/>
      </g>
      <path id="Trazado_144555" data-name="Trazado 144555" d="M428.322,330.619s15.81,3.966,29.357-.937c0,0-2.887-13.1-2.887-20.153,0-5.991-1.877-18.8-5.021-21.06a18.527,18.527,0,0,0-5.06-2.749,5.71,5.71,0,0,1-3.484,3.192c-2.42.582-7.094-2.5-7.094-2.5s-9.539,3.731-10.819,5.826c-2.616,4.289,4.337,16.4,5.886,22.693S428.322,330.619,428.322,330.619Z" transform="translate(-415.989 -243.477)" fill="#6f7302"/>
      <path id="Trazado_144556" data-name="Trazado 144556" d="M441.375,326.151a76.229,76.229,0,0,1-1.073-8.936,22.232,22.232,0,0,1,.13-7.462c-.187-.651-.38-1.311-.542-1.881-.823-2.878-.741-9.3-4.147-12.552-1.965-1.878-4.37-4.786-7.287-5.292-3.526-.612-1.808-.63-4.967-1.359.145,1.16-1.413,3.369-.919,4.949,2.037,5.045,6.142,11.28,7.152,15.373,1.549,6.29-.877,15.69-.877,15.69A64.194,64.194,0,0,0,441.375,326.151Z" transform="translate(-416.51 -237.538)" fill="#6f7302"/>
      <path id="Trazado_144557" data-name="Trazado 144557" d="M536.489,346.362a39.2,39.2,0,1,0-54.157-23.89L425.56,349.888a5.473,5.473,0,0,0-2.61,7.284l.048.1a5.468,5.468,0,0,0,7.284,2.61l56.77-27.413A39.18,39.18,0,0,0,536.489,346.362Zm-44.055-22.549a30.2,30.2,0,1,1,40.212,14.412A30.206,30.206,0,0,1,492.434,323.813Z" transform="translate(-416.605 -271.703)" fill="#414141"/>
      <path id="Trazado_144558" data-name="Trazado 144558" d="M430.491,292.51s5.033,10.355,6.1,10.452,19.4-1.353,20.734-2.128a15.388,15.388,0,0,0,2.049-1.706,10.646,10.646,0,0,1,.949-.744,10.64,10.64,0,0,0,1.184-.669c.283-.238,1.284-1.724,1.848-1.585.449.112.413.452.332.814-.1.464-.739.9-1.046,1.236-.178.19-.705.723-.612,1.028.127.41,1.034-.31,1.239-.44a3.562,3.562,0,0,0,.847-.729,12.037,12.037,0,0,0,.774-1.028c.148-.214.286-.443.431-.657.241-.359.455-.684.666-1.064.157-.283.41-.609.769-.416.4.217.009.889-.151,1.178a10.154,10.154,0,0,0-.449.928c-.087.214-.44.573-.316.826a5.012,5.012,0,0,0,1-1.148c.184-.247,1.124-1.79,1.555-1.489.681.476-.135,1.486-.452,1.911a4.343,4.343,0,0,1-.7.784c-.115.1-.618.639-.53.63.648-.063,1.115-1.043,1.516-1.5.247-.283,1.034-1.115,1.142-.286a1.271,1.271,0,0,1-.335.874,4.487,4.487,0,0,1-1.013,1.094,3.689,3.689,0,0,0-.657.744c.482-.012,1.434-1.242,1.871-.913.286.214-.027.8-.184.976a15.463,15.463,0,0,1-4.258,2.866,44.45,44.45,0,0,1-4.879,2.263c-2.378.94-22.549,7.26-24.966,6.968s-8.809-12.652-10.648-16.247S430.491,292.51,430.491,292.51Z" transform="translate(-413.384 -229.945)" fill="#f88667"/>
      <path id="Trazado_144559" data-name="Trazado 144559" d="M427.028,308.319s6.389-2.369,10.066-5.684c0,0-6.052-18.944-12.136-14.614C418.017,292.961,427.028,308.319,427.028,308.319Z" transform="translate(-416.793 -240.139)" fill="#a0a603"/>
      <path id="Trazado_144560" data-name="Trazado 144560" d="M441.129,294.936c.319-.208.753.018,1.3.494-.72-.9-1.579-1.826-.732-1.95.817-.121,1.383,1.145,1.974,1.54-.317-.443-2.188-1.745-1.459-2.721.434-.582,2.438,1.694,2.851,2.146-.389-.368-2.077-2.146-1.181-2.513.808-.331,1.965,1.19,2.541,1.676.422.356,1.016.648,1.112,1.233.193,1.133-1.462,1.9-2.318,2.146a4.445,4.445,0,0,1-3.375-.567C441.259,296.078,440.813,295.141,441.129,294.936Z" transform="translate(-379.151 -231.063)" fill="#f88667"/>
    </g>
  </g>
</svg>
