<svg xmlns="http://www.w3.org/2000/svg" width="840" height="564" viewBox="0 0 840 564">
  <g id="Grupo_73866" data-name="Grupo 73866" transform="translate(-380 -1484)">
    <path id="Trazado_131113" data-name="Trazado 131113" d="M0,0H840V506H0Z" transform="translate(380 1542)" fill="#f7f5ed"/>
    <g id="Grupo_73865" data-name="Grupo 73865" transform="translate(-11)">
      <path id="Trazado_131117" data-name="Trazado 131117" d="M-149.244-5.777a6.231,6.231,0,0,1-.961,3.146,5.8,5.8,0,0,1-2.467,2.115,8.4,8.4,0,0,1-3.627.75,6.7,6.7,0,0,1-5.3-2.191,9.048,9.048,0,0,1-1.934-6.187v-.844a10.328,10.328,0,0,1,.873-4.389,6.615,6.615,0,0,1,2.514-2.906,7.013,7.013,0,0,1,3.8-1.025,7.354,7.354,0,0,1,4.992,1.635,6.459,6.459,0,0,1,2.145,4.506h-4.1a3.056,3.056,0,0,0-.785-2.238,3.229,3.229,0,0,0-2.25-.68,2.457,2.457,0,0,0-2.25,1.148,7.381,7.381,0,0,0-.75,3.668v1.207a8.167,8.167,0,0,0,.686,3.9A2.509,2.509,0,0,0-156.3-2.988a3.159,3.159,0,0,0,2.168-.668,2.835,2.835,0,0,0,.8-2.121Zm11.637,2.59h-5.637L-144.229,0h-4.395l6.258-17.062h3.867L-132.193,0h-4.418Zm-4.652-3.176h3.668l-1.84-5.918Zm23.3-7.523h-5.121V0H-128.2V-13.887h-5.027v-3.176h14.262Zm12.316,6.656h-6.469v4.066h7.641V0h-11.754V-17.062h11.777v3.176h-7.664v3.6h6.469ZM-89.83-2.109a6.614,6.614,0,0,1-2.777,1.7,11.979,11.979,0,0,1-4.008.645,7.146,7.146,0,0,1-5.355-2.051,8.3,8.3,0,0,1-2.145-5.707L-104.127-9a10.182,10.182,0,0,1,.891-4.4,6.614,6.614,0,0,1,2.549-2.895,7.21,7.21,0,0,1,3.838-1.014A7.559,7.559,0,0,1-91.9-15.85,6.182,6.182,0,0,1-89.842-11.5H-93.8a3.235,3.235,0,0,0-.914-2.039,2.949,2.949,0,0,0-1.992-.609A2.684,2.684,0,0,0-99.1-12.832a7.008,7.008,0,0,0-.855,3.75v1.031a6.86,6.86,0,0,0,.873,3.838A3.088,3.088,0,0,0-96.334-2.93a3.456,3.456,0,0,0,2.391-.715V-6.293H-96.8V-9.117h6.973Zm16.84-6.07a10.062,10.062,0,0,1-.926,4.418A6.842,6.842,0,0,1-76.547-.8,7.326,7.326,0,0,1-80.432.234a7.429,7.429,0,0,1-3.867-1A6.831,6.831,0,0,1-86.93-3.633a9.772,9.772,0,0,1-.99-4.277v-.961A10.106,10.106,0,0,1-87-13.295a6.825,6.825,0,0,1,2.637-2.959A7.377,7.377,0,0,1-80.455-17.3a7.3,7.3,0,0,1,3.867,1.031,6.948,6.948,0,0,1,2.643,2.936,9.816,9.816,0,0,1,.955,4.365Zm-4.184-.715a7.175,7.175,0,0,0-.85-3.861,2.725,2.725,0,0,0-2.432-1.318q-3.094,0-3.27,4.641l-.012,1.254A7.379,7.379,0,0,0-82.9-4.324a2.721,2.721,0,0,0,2.473,1.348,2.688,2.688,0,0,0,2.4-1.324,7.178,7.178,0,0,0,.855-3.809Zm12.645,2.871h-2.227V0h-4.113V-17.062h6.715a7.489,7.489,0,0,1,4.746,1.348A4.568,4.568,0,0,1-57.7-11.906a5.55,5.55,0,0,1-.721,2.953,5.117,5.117,0,0,1-2.256,1.9l3.563,6.879V0h-4.406ZM-66.756-9.2h2.6a2.339,2.339,0,0,0,1.764-.615,2.375,2.375,0,0,0,.592-1.717,2.4,2.4,0,0,0-.6-1.729,2.317,2.317,0,0,0-1.758-.627h-2.6ZM-50.83,0h-4.1V-17.062h4.1Zm-1.559-21.633h4.172l-3.258,3.68H-54.7Zm14.32,18.445h-5.637L-44.689,0h-4.395l6.258-17.062h3.867L-32.654,0h-4.418Zm-4.652-3.176h3.668l-1.84-5.918Zm20.109,1.828a1.69,1.69,0,0,0-.639-1.406,7.938,7.938,0,0,0-2.244-1.043,21.53,21.53,0,0,1-2.625-1.043q-3.316-1.629-3.316-4.477a4.014,4.014,0,0,1,.826-2.5,5.344,5.344,0,0,1,2.338-1.687,9.1,9.1,0,0,1,3.4-.6,7.958,7.958,0,0,1,3.3.656,5.223,5.223,0,0,1,2.268,1.869A4.881,4.881,0,0,1-18.5-12h-4.1a2.063,2.063,0,0,0-.639-1.617,2.489,2.489,0,0,0-1.729-.574,2.807,2.807,0,0,0-1.74.486,1.492,1.492,0,0,0-.639,1.236,1.5,1.5,0,0,0,.7,1.189,8.867,8.867,0,0,0,2.473,1.1,15.147,15.147,0,0,1,2.906,1.225A4.884,4.884,0,0,1-18.5-4.559a4.166,4.166,0,0,1-1.687,3.516A7.506,7.506,0,0,1-24.814.234,9.184,9.184,0,0,1-28.57-.51,5.663,5.663,0,0,1-31.1-2.549a5.313,5.313,0,0,1-.85-2.982h4.125a2.617,2.617,0,0,0,.709,2.021,3.351,3.351,0,0,0,2.3.65A2.647,2.647,0,0,0-23.2-3.3,1.45,1.45,0,0,0-22.611-4.535ZM-10.412,0V-17.062h5.5A8.085,8.085,0,0,1-.85-16.037a7.208,7.208,0,0,1,2.818,2.895A8.739,8.739,0,0,1,2.994-8.953v.785A8.79,8.79,0,0,1,2-3.967,7.239,7.239,0,0,1-.785-1.061,7.907,7.907,0,0,1-4.8,0ZM-6.3-13.887V-3.164h1.43A3.2,3.2,0,0,0-2.15-4.424,6.173,6.173,0,0,0-1.2-8.168v-.738a6.123,6.123,0,0,0-.949-3.727,3.256,3.256,0,0,0-2.766-1.254ZM15.686-7.23H9.217v4.066h7.641V0H5.1V-17.062H16.881v3.176H9.217v3.6h6.469ZM28.623-5.789V0H24.51V-17.062h6.809a7.93,7.93,0,0,1,3.463.721,5.431,5.431,0,0,1,2.332,2.051,5.6,5.6,0,0,1,.826,3.018,4.937,4.937,0,0,1-1.787,3.99,7.415,7.415,0,0,1-4.9,1.494Zm0-3.176h2.7a2.542,2.542,0,0,0,1.822-.6,2.221,2.221,0,0,0,.627-1.687,2.745,2.745,0,0,0-.645-1.91,2.282,2.282,0,0,0-1.758-.727H28.623ZM46.471-6.023H44.244V0H40.131V-17.062h6.715a7.489,7.489,0,0,1,4.746,1.348A4.568,4.568,0,0,1,53.3-11.906a5.55,5.55,0,0,1-.721,2.953,5.117,5.117,0,0,1-2.256,1.9L53.889-.176V0H49.482ZM44.244-9.2h2.6a2.339,2.339,0,0,0,1.764-.615,2.375,2.375,0,0,0,.592-1.717,2.4,2.4,0,0,0-.6-1.729,2.317,2.317,0,0,0-1.758-.627h-2.6ZM70.236-8.18a10.062,10.062,0,0,1-.926,4.418A6.842,6.842,0,0,1,66.68-.8,7.326,7.326,0,0,1,62.795.234a7.429,7.429,0,0,1-3.867-1A6.831,6.831,0,0,1,56.3-3.633a9.772,9.772,0,0,1-.99-4.277v-.961a10.106,10.106,0,0,1,.92-4.424,6.825,6.825,0,0,1,2.637-2.959A7.377,7.377,0,0,1,62.771-17.3a7.3,7.3,0,0,1,3.867,1.031,6.948,6.948,0,0,1,2.643,2.936,9.816,9.816,0,0,1,.955,4.365Zm-4.184-.715a7.175,7.175,0,0,0-.85-3.861,2.725,2.725,0,0,0-2.432-1.318q-3.094,0-3.27,4.641L59.49-8.18a7.379,7.379,0,0,0,.832,3.855,2.721,2.721,0,0,0,2.473,1.348A2.688,2.688,0,0,0,65.2-4.3a7.178,7.178,0,0,0,.855-3.809ZM72.357,0V-17.062h5.5a8.085,8.085,0,0,1,4.066,1.025,7.208,7.208,0,0,1,2.818,2.895,8.739,8.739,0,0,1,1.025,4.189v.785a8.79,8.79,0,0,1-.99,4.2,7.239,7.239,0,0,1-2.789,2.906A7.907,7.907,0,0,1,77.971,0Zm4.113-13.887V-3.164H77.9a3.2,3.2,0,0,0,2.719-1.26,6.173,6.173,0,0,0,.949-3.744v-.738a6.123,6.123,0,0,0-.949-3.727,3.256,3.256,0,0,0-2.766-1.254Zm24.785-3.176V-5.895a6.419,6.419,0,0,1-.809,3.287,5.238,5.238,0,0,1-2.32,2.115,8.174,8.174,0,0,1-3.574.727,7.062,7.062,0,0,1-4.91-1.617,5.768,5.768,0,0,1-1.828-4.43v-11.25h4.137V-5.73q.07,2.8,2.6,2.8a2.518,2.518,0,0,0,1.934-.7,3.286,3.286,0,0,0,.656-2.285V-17.062ZM117.627-5.777a6.231,6.231,0,0,1-.961,3.146A5.8,5.8,0,0,1,114.2-.516a8.4,8.4,0,0,1-3.627.75,6.7,6.7,0,0,1-5.3-2.191,9.048,9.048,0,0,1-1.934-6.187v-.844a10.328,10.328,0,0,1,.873-4.389,6.615,6.615,0,0,1,2.514-2.906,7.013,7.013,0,0,1,3.8-1.025,7.354,7.354,0,0,1,4.992,1.635,6.459,6.459,0,0,1,2.145,4.506h-4.1a3.056,3.056,0,0,0-.785-2.238,3.229,3.229,0,0,0-2.25-.68,2.457,2.457,0,0,0-2.25,1.148,7.381,7.381,0,0,0-.75,3.668v1.207a8.167,8.167,0,0,0,.686,3.9,2.509,2.509,0,0,0,2.361,1.172,3.159,3.159,0,0,0,2.168-.668,2.835,2.835,0,0,0,.8-2.121Zm15-8.109h-5.121V0h-4.113V-13.887h-5.027v-3.176h14.262ZM148.482-8.18a10.062,10.062,0,0,1-.926,4.418A6.842,6.842,0,0,1,144.926-.8,7.326,7.326,0,0,1,141.041.234a7.429,7.429,0,0,1-3.867-1,6.831,6.831,0,0,1-2.631-2.865,9.772,9.772,0,0,1-.99-4.277v-.961a10.106,10.106,0,0,1,.92-4.424,6.825,6.825,0,0,1,2.637-2.959,7.377,7.377,0,0,1,3.908-1.043,7.3,7.3,0,0,1,3.867,1.031,6.948,6.948,0,0,1,2.643,2.936,9.816,9.816,0,0,1,.955,4.365ZM144.3-8.895a7.175,7.175,0,0,0-.85-3.861,2.725,2.725,0,0,0-2.432-1.318q-3.094,0-3.27,4.641l-.012,1.254a7.379,7.379,0,0,0,.832,3.855,2.721,2.721,0,0,0,2.473,1.348,2.688,2.688,0,0,0,2.4-1.324,7.178,7.178,0,0,0,.855-3.809ZM159.4-4.535a1.69,1.69,0,0,0-.639-1.406,7.938,7.938,0,0,0-2.244-1.043A21.53,21.53,0,0,1,153.9-8.027Q150.58-9.656,150.58-12.5a4.014,4.014,0,0,1,.826-2.5,5.344,5.344,0,0,1,2.338-1.687,9.1,9.1,0,0,1,3.4-.6,7.958,7.958,0,0,1,3.3.656,5.223,5.223,0,0,1,2.268,1.869A4.881,4.881,0,0,1,163.518-12h-4.1a2.063,2.063,0,0,0-.639-1.617,2.489,2.489,0,0,0-1.729-.574,2.807,2.807,0,0,0-1.74.486,1.492,1.492,0,0,0-.639,1.236,1.5,1.5,0,0,0,.7,1.189,8.867,8.867,0,0,0,2.473,1.1,15.147,15.147,0,0,1,2.906,1.225,4.884,4.884,0,0,1,2.766,4.395,4.166,4.166,0,0,1-1.687,3.516A7.506,7.506,0,0,1,157.2.234a9.184,9.184,0,0,1-3.756-.744,5.663,5.663,0,0,1-2.531-2.039,5.313,5.313,0,0,1-.85-2.982h4.125A2.617,2.617,0,0,0,154.9-3.51a3.351,3.351,0,0,0,2.3.65,2.647,2.647,0,0,0,1.611-.439A1.45,1.45,0,0,0,159.4-4.535Z" transform="translate(817 2009)" fill="#12263f"/>
      <path id="Polígono_1" data-name="Polígono 1" d="M269,0,538,466H0Z" transform="translate(542 1484)" fill="#529ad9"/>
      <path id="Trazado_131116" data-name="Trazado 131116" d="M11.871-7.23H5.4v4.066h7.641V0H1.289V-17.062H13.066v3.176H5.4v3.6h6.469Zm11.648,2.7a1.69,1.69,0,0,0-.639-1.406,7.938,7.938,0,0,0-2.244-1.043,21.53,21.53,0,0,1-2.625-1.043Q14.7-9.656,14.7-12.5a4.014,4.014,0,0,1,.826-2.5,5.344,5.344,0,0,1,2.338-1.687,9.1,9.1,0,0,1,3.4-.6,7.958,7.958,0,0,1,3.3.656,5.223,5.223,0,0,1,2.268,1.869A4.881,4.881,0,0,1,27.633-12h-4.1a2.063,2.063,0,0,0-.639-1.617,2.489,2.489,0,0,0-1.729-.574,2.807,2.807,0,0,0-1.74.486,1.492,1.492,0,0,0-.639,1.236,1.5,1.5,0,0,0,.7,1.189,8.867,8.867,0,0,0,2.473,1.1,15.147,15.147,0,0,1,2.906,1.225,4.884,4.884,0,0,1,2.766,4.395,4.166,4.166,0,0,1-1.687,3.516A7.506,7.506,0,0,1,21.316.234,9.184,9.184,0,0,1,17.561-.51a5.663,5.663,0,0,1-2.531-2.039,5.313,5.313,0,0,1-.85-2.982H18.3a2.617,2.617,0,0,0,.709,2.021,3.351,3.351,0,0,0,2.3.65A2.647,2.647,0,0,0,22.928-3.3,1.45,1.45,0,0,0,23.52-4.535Zm19.617-9.352H38.016V0H33.9V-13.887H28.875v-3.176H43.137Zm8.074,7.863H48.984V0H44.871V-17.062h6.715a7.489,7.489,0,0,1,4.746,1.348,4.568,4.568,0,0,1,1.711,3.809,5.55,5.55,0,0,1-.721,2.953,5.117,5.117,0,0,1-2.256,1.9L58.629-.176V0H54.223ZM48.984-9.2h2.6a2.339,2.339,0,0,0,1.764-.615,2.375,2.375,0,0,0,.592-1.717,2.4,2.4,0,0,0-.6-1.729,2.317,2.317,0,0,0-1.758-.627h-2.6ZM73.91-17.062V-5.895A6.419,6.419,0,0,1,73.1-2.607a5.238,5.238,0,0,1-2.32,2.115,8.174,8.174,0,0,1-3.574.727A7.062,7.062,0,0,1,62.3-1.383a5.768,5.768,0,0,1-1.828-4.43v-11.25h4.137V-5.73q.07,2.8,2.6,2.8a2.518,2.518,0,0,0,1.934-.7A3.286,3.286,0,0,0,69.8-5.918V-17.062ZM90.281-5.777a6.231,6.231,0,0,1-.961,3.146A5.8,5.8,0,0,1,86.854-.516a8.4,8.4,0,0,1-3.627.75,6.7,6.7,0,0,1-5.3-2.191A9.048,9.048,0,0,1,76-8.145v-.844a10.328,10.328,0,0,1,.873-4.389,6.615,6.615,0,0,1,2.514-2.906,7.013,7.013,0,0,1,3.8-1.025,7.354,7.354,0,0,1,4.992,1.635,6.459,6.459,0,0,1,2.145,4.506h-4.1a3.056,3.056,0,0,0-.785-2.238,3.229,3.229,0,0,0-2.25-.68,2.457,2.457,0,0,0-2.25,1.148,7.381,7.381,0,0,0-.75,3.668v1.207a8.167,8.167,0,0,0,.686,3.9,2.509,2.509,0,0,0,2.361,1.172,3.159,3.159,0,0,0,2.168-.668,2.835,2.835,0,0,0,.8-2.121Zm15-8.109H100.16V0H96.047V-13.887H91.02v-3.176h14.262ZM120.4-17.062V-5.895a6.419,6.419,0,0,1-.809,3.287,5.238,5.238,0,0,1-2.32,2.115A8.174,8.174,0,0,1,113.7.234a7.062,7.062,0,0,1-4.91-1.617,5.768,5.768,0,0,1-1.828-4.43v-11.25h4.137V-5.73q.07,2.8,2.6,2.8a2.518,2.518,0,0,0,1.934-.7,3.286,3.286,0,0,0,.656-2.285V-17.062ZM129.3-6.023h-2.227V0h-4.113V-17.062h6.715a7.489,7.489,0,0,1,4.746,1.348,4.568,4.568,0,0,1,1.711,3.809,5.55,5.55,0,0,1-.721,2.953,5.117,5.117,0,0,1-2.256,1.9l3.563,6.879V0h-4.406ZM127.078-9.2h2.6a2.339,2.339,0,0,0,1.764-.615,2.375,2.375,0,0,0,.592-1.717,2.4,2.4,0,0,0-.6-1.729,2.317,2.317,0,0,0-1.758-.627h-2.6Zm21.234,6.012h-5.637L141.691,0H137.3l6.258-17.062h3.867L153.727,0h-4.418ZM143.66-6.363h3.668l-1.84-5.918Z" transform="translate(617.428 1765.368) rotate(-60)" fill="#12263f"/>
      <path id="Trazado_131115" data-name="Trazado 131115" d="M1.289,0V-17.062h5.5a8.085,8.085,0,0,1,4.066,1.025,7.208,7.208,0,0,1,2.818,2.895A8.739,8.739,0,0,1,14.7-8.953v.785a8.79,8.79,0,0,1-.99,4.2,7.239,7.239,0,0,1-2.789,2.906A7.907,7.907,0,0,1,6.9,0ZM5.4-13.887V-3.164h1.43a3.2,3.2,0,0,0,2.719-1.26A6.173,6.173,0,0,0,10.5-8.168v-.738a6.123,6.123,0,0,0-.949-3.727,3.256,3.256,0,0,0-2.766-1.254ZM21.188,0h-4.1V-17.062h4.1Zm8.262-17.062L33.258-5.191l3.8-11.871h5.414V0H38.344V-3.984l.4-8.156L34.617,0H31.9L27.762-12.152l.4,8.168V0H24.047V-17.062ZM55.664-7.23H49.2v4.066h7.641V0H45.082V-17.062H56.859v3.176H49.2v3.6h6.469ZM72.762,0h-4.09L62.625-10.617V0H58.512V-17.062h4.113L68.66-6.445V-17.062h4.1Zm11.4-4.535a1.69,1.69,0,0,0-.639-1.406,7.938,7.938,0,0,0-2.244-1.043,21.53,21.53,0,0,1-2.625-1.043Q75.34-9.656,75.34-12.5a4.014,4.014,0,0,1,.826-2.5A5.344,5.344,0,0,1,78.5-16.693a9.1,9.1,0,0,1,3.4-.6,7.958,7.958,0,0,1,3.3.656,5.223,5.223,0,0,1,2.268,1.869A4.881,4.881,0,0,1,88.277-12h-4.1a2.063,2.063,0,0,0-.639-1.617,2.489,2.489,0,0,0-1.729-.574,2.807,2.807,0,0,0-1.74.486,1.492,1.492,0,0,0-.639,1.236,1.5,1.5,0,0,0,.7,1.189,8.867,8.867,0,0,0,2.473,1.1,15.147,15.147,0,0,1,2.906,1.225,4.884,4.884,0,0,1,2.766,4.395A4.166,4.166,0,0,1,86.59-1.043,7.506,7.506,0,0,1,81.961.234,9.184,9.184,0,0,1,78.205-.51a5.663,5.663,0,0,1-2.531-2.039,5.313,5.313,0,0,1-.85-2.982h4.125a2.617,2.617,0,0,0,.709,2.021,3.351,3.351,0,0,0,2.3.65A2.647,2.647,0,0,0,83.572-3.3,1.45,1.45,0,0,0,84.164-4.535ZM94.77,0h-4.1V-17.062h4.1Zm17.309-8.18a10.062,10.062,0,0,1-.926,4.418A6.842,6.842,0,0,1,108.521-.8,7.326,7.326,0,0,1,104.637.234a7.429,7.429,0,0,1-3.867-1,6.831,6.831,0,0,1-2.631-2.865,9.772,9.772,0,0,1-.99-4.277v-.961a10.106,10.106,0,0,1,.92-4.424,6.825,6.825,0,0,1,2.637-2.959,7.377,7.377,0,0,1,3.908-1.043,7.3,7.3,0,0,1,3.867,1.031,6.948,6.948,0,0,1,2.643,2.936,9.816,9.816,0,0,1,.955,4.365Zm-4.184-.715a7.175,7.175,0,0,0-.85-3.861,2.725,2.725,0,0,0-2.432-1.318q-3.094,0-3.27,4.641l-.012,1.254a7.379,7.379,0,0,0,.832,3.855,2.721,2.721,0,0,0,2.473,1.348,2.688,2.688,0,0,0,2.4-1.324,7.178,7.178,0,0,0,.855-3.809ZM128.449,0h-4.09l-6.047-10.617V0H114.2V-17.062h4.113l6.035,10.617V-17.062h4.1Zm13.184-7.23h-6.469v4.066H142.8V0H131.051V-17.062h11.777v3.176h-7.664v3.6h6.469Zm11.648,2.7a1.69,1.69,0,0,0-.639-1.406A7.938,7.938,0,0,0,150.4-6.984a21.53,21.53,0,0,1-2.625-1.043q-3.316-1.629-3.316-4.477a4.014,4.014,0,0,1,.826-2.5,5.344,5.344,0,0,1,2.338-1.687,9.1,9.1,0,0,1,3.4-.6,7.958,7.958,0,0,1,3.3.656,5.223,5.223,0,0,1,2.268,1.869A4.881,4.881,0,0,1,157.395-12h-4.1a2.063,2.063,0,0,0-.639-1.617,2.489,2.489,0,0,0-1.729-.574,2.807,2.807,0,0,0-1.74.486,1.492,1.492,0,0,0-.639,1.236,1.5,1.5,0,0,0,.7,1.189,8.867,8.867,0,0,0,2.473,1.1,15.147,15.147,0,0,1,2.906,1.225,4.884,4.884,0,0,1,2.766,4.395,4.166,4.166,0,0,1-1.687,3.516A7.506,7.506,0,0,1,151.078.234a9.184,9.184,0,0,1-3.756-.744,5.663,5.663,0,0,1-2.531-2.039,5.313,5.313,0,0,1-.85-2.982h4.125a2.617,2.617,0,0,0,.709,2.021,3.351,3.351,0,0,0,2.3.65,2.647,2.647,0,0,0,1.611-.439A1.45,1.45,0,0,0,153.281-4.535Z" transform="translate(930.848 1631.328) rotate(62)" fill="#12263f"/>
      <path id="Trazado_131114" data-name="Trazado 131114" d="M-125.092-7.383a7.952,7.952,0,0,1-.357,2.7,4.035,4.035,0,0,1-1.2,1.658l-.773.715a3.056,3.056,0,0,0-1.09,2.18,1.628,1.628,0,0,0,.393,1.213,1.4,1.4,0,0,0,1.014.381,1.548,1.548,0,0,0,1.225-.5,2.153,2.153,0,0,0,.463-1.412h3.973a4.8,4.8,0,0,1-1.494,3.656,5.881,5.881,0,0,1-4.072,1.3A6.047,6.047,0,0,1-131.051,3.3a4.257,4.257,0,0,1-1.424-3.428,3.937,3.937,0,0,1,.445-1.834,7.273,7.273,0,0,1,1.523-1.869l1-.914A2.692,2.692,0,0,0-128.5-6.539l.059-.844Zm-1.57-1.582a2.27,2.27,0,0,1-1.564-.557,1.819,1.819,0,0,1-.627-1.424,1.819,1.819,0,0,1,.627-1.424,2.27,2.27,0,0,1,1.564-.557,2.231,2.231,0,0,1,1.576.568,1.844,1.844,0,0,1,.615,1.412,1.844,1.844,0,0,1-.615,1.412A2.231,2.231,0,0,1-126.662-8.965Zm27.293.785a10.083,10.083,0,0,1-.785,4.131,7.18,7.18,0,0,1-2.168,2.83l2.754,2.18-2.543,2.156L-105.779.164a7.624,7.624,0,0,1-1.031.07,7.4,7.4,0,0,1-3.867-1.008,6.854,6.854,0,0,1-2.631-2.883,9.791,9.791,0,0,1-.979-4.312v-.9a10.1,10.1,0,0,1,.92-4.43,6.856,6.856,0,0,1,2.625-2.953,7.338,7.338,0,0,1,3.908-1.043,7.3,7.3,0,0,1,3.867,1.031,6.948,6.948,0,0,1,2.643,2.936,9.816,9.816,0,0,1,.955,4.365Zm-4.184-.715a7.175,7.175,0,0,0-.85-3.861,2.725,2.725,0,0,0-2.432-1.318,2.707,2.707,0,0,0-2.449,1.3,7.268,7.268,0,0,0-.832,3.809v.785a7.374,7.374,0,0,0,.832,3.861,2.724,2.724,0,0,0,2.473,1.342A2.685,2.685,0,0,0-104.4-4.3a7.219,7.219,0,0,0,.85-3.809ZM-89.9-1.371A4.072,4.072,0,0,1-93.287.234,3.993,3.993,0,0,1-96.445-.979a5.1,5.1,0,0,1-1.072-3.486V-12.68h3.949v8.238a1.419,1.419,0,0,0,1.582,1.629,2.064,2.064,0,0,0,1.934-.973V-12.68h3.973V0h-3.7ZM-77.783.234a6.518,6.518,0,0,1-4.723-1.74,6.009,6.009,0,0,1-1.8-4.529v-.328A7.787,7.787,0,0,1-83.59-9.8a5.274,5.274,0,0,1,2.1-2.3,6.35,6.35,0,0,1,3.281-.814,5.489,5.489,0,0,1,4.219,1.658,6.516,6.516,0,0,1,1.547,4.623V-5.1h-7.852a2.846,2.846,0,0,0,.926,1.676,2.755,2.755,0,0,0,1.852.609,3.549,3.549,0,0,0,2.93-1.312l1.8,2.133A5.045,5.045,0,0,1-74.871-.369,7.069,7.069,0,0,1-77.783.234Zm-.445-10.1q-1.734,0-2.062,2.3h3.984v-.3a1.956,1.956,0,0,0-.48-1.471A1.912,1.912,0,0,0-78.229-9.867Zm-.047-8.145H-74.1l-3.258,3.68h-3.223ZM-53.1-6.246a7.646,7.646,0,0,1-1.33,4.717A4.264,4.264,0,0,1-58.025.234,3.655,3.655,0,0,1-60.9-1.043V4.875h-3.949V-12.68h3.691l.117,1.172a3.656,3.656,0,0,1,2.988-1.406A4.3,4.3,0,0,1-54.4-11.186a7.741,7.741,0,0,1,1.3,4.752Zm-3.949-.246q0-3.375-1.969-3.375A1.859,1.859,0,0,0-60.9-8.859v4.992A1.919,1.919,0,0,0-59-2.812q1.887,0,1.945-3.258Zm13.359-2.613-1.3-.094a2.336,2.336,0,0,0-2.391,1.172V0h-3.949V-12.68h3.7l.129,1.629a3.058,3.058,0,0,1,2.777-1.863,3.851,3.851,0,0,1,1.1.141Zm.5,2.648a7.484,7.484,0,0,1,.738-3.381,5.28,5.28,0,0,1,2.121-2.279,6.388,6.388,0,0,1,3.246-.8A5.83,5.83,0,0,1-32.6-11.15a6.768,6.768,0,0,1,1.641,4.8v.141A6.566,6.566,0,0,1-32.6-1.506,5.846,5.846,0,0,1-37.061.234a5.912,5.912,0,0,1-4.348-1.623,6.348,6.348,0,0,1-1.77-4.4Zm3.949.246a4.718,4.718,0,0,0,.551,2.578,1.835,1.835,0,0,0,1.629.82q2.109,0,2.156-3.246v-.4q0-3.41-2.18-3.41-1.98,0-2.145,2.941Zm9.527-.223a7.746,7.746,0,0,1,1.3-4.746,4.282,4.282,0,0,1,3.633-1.734,3.641,3.641,0,0,1,2.859,1.336V-18h3.961V0H-21.51l-.2-1.359A3.739,3.739,0,0,1-24.8.234,4.274,4.274,0,0,1-28.389-1.5,7.991,7.991,0,0,1-29.713-6.434Zm3.949.246q0,3.375,1.969,3.375a1.944,1.944,0,0,0,1.875-1.1V-8.742a1.892,1.892,0,0,0-1.852-1.125q-1.828,0-1.98,2.953Zm17.6,4.816A4.072,4.072,0,0,1-11.549.234,3.993,3.993,0,0,1-14.707-.979a5.1,5.1,0,0,1-1.072-3.486V-12.68h3.949v8.238a1.419,1.419,0,0,0,1.582,1.629,2.064,2.064,0,0,0,1.934-.973V-12.68h3.973V0h-3.7ZM3.182-2.812a1.756,1.756,0,0,0,1.289-.451,1.654,1.654,0,0,0,.445-1.26h3.7A4.384,4.384,0,0,1,7.125-1.1,5.558,5.558,0,0,1,3.275.234,5.627,5.627,0,0,1-1.084-1.5,6.834,6.834,0,0,1-2.678-6.3v-.164a7.723,7.723,0,0,1,.709-3.393A5.162,5.162,0,0,1,.076-12.123a6.1,6.1,0,0,1,3.164-.791,5.488,5.488,0,0,1,3.926,1.371A4.863,4.863,0,0,1,8.619-7.828h-3.7a2.168,2.168,0,0,0-.48-1.512,1.658,1.658,0,0,0-1.289-.527q-1.535,0-1.793,1.957A13.809,13.809,0,0,0,1.271-6.2a5.424,5.424,0,0,0,.457,2.648A1.582,1.582,0,0,0,3.182-2.812Zm11.707-13.02v3.152h2.086v2.742H14.889v5.8a1.481,1.481,0,0,0,.258,1,1.383,1.383,0,0,0,1.02.281,5.793,5.793,0,0,0,.984-.07V-.105a7.288,7.288,0,0,1-2.227.34,4.137,4.137,0,0,1-3.012-.961,3.939,3.939,0,0,1-.973-2.918V-9.937H9.322V-12.68h1.617v-3.152Zm2.789,9.375a7.484,7.484,0,0,1,.738-3.381,5.28,5.28,0,0,1,2.121-2.279,6.388,6.388,0,0,1,3.246-.8,5.83,5.83,0,0,1,4.488,1.764,6.768,6.768,0,0,1,1.641,4.8v.141a6.566,6.566,0,0,1-1.646,4.705A5.846,5.846,0,0,1,23.807.234a5.912,5.912,0,0,1-4.348-1.623,6.348,6.348,0,0,1-1.77-4.4Zm3.949.246a4.718,4.718,0,0,0,.551,2.578,1.835,1.835,0,0,0,1.629.82q2.109,0,2.156-3.246v-.4q0-3.41-2.18-3.41-1.98,0-2.145,2.941ZM38.291-3.562a.912.912,0,0,0-.527-.809,8.021,8.021,0,0,0-2-.633,9.138,9.138,0,0,1-2.437-.861A4.083,4.083,0,0,1,31.857-7.16a3.092,3.092,0,0,1-.5-1.746,3.5,3.5,0,0,1,1.441-2.877,5.938,5.938,0,0,1,3.773-1.131A6.579,6.579,0,0,1,40.6-11.777a3.555,3.555,0,0,1,1.523,2.988H38.162q0-1.523-1.605-1.523a1.591,1.591,0,0,0-1.043.346,1.07,1.07,0,0,0-.422.861.982.982,0,0,0,.516.855,4.872,4.872,0,0,0,1.646.539,14.228,14.228,0,0,1,1.986.5Q42.1-6.223,42.1-3.68A3.321,3.321,0,0,1,40.559-.855a6.758,6.758,0,0,1-3.99,1.09,6.9,6.9,0,0,1-2.906-.586A4.86,4.86,0,0,1,31.67-1.945a3.609,3.609,0,0,1-.715-2.121h3.691a1.526,1.526,0,0,0,.586,1.283,2.41,2.41,0,0,0,1.441.4,1.9,1.9,0,0,0,1.213-.328A1.05,1.05,0,0,0,38.291-3.562ZM57.064,0a4.459,4.459,0,0,1-.375-1.137A3.672,3.672,0,0,1,53.643.234,4.5,4.5,0,0,1,50.6-.85a3.45,3.45,0,0,1-1.254-2.725,3.546,3.546,0,0,1,1.523-3.117,7.761,7.761,0,0,1,4.43-1.055h1.219v-.668q0-1.746-1.512-1.746A1.233,1.233,0,0,0,53.6-8.777H49.646a3.546,3.546,0,0,1,1.564-2.988,6.569,6.569,0,0,1,3.99-1.148,5.764,5.764,0,0,1,3.832,1.184,4.115,4.115,0,0,1,1.441,3.246v5.613A5.748,5.748,0,0,0,61.014-.2V0ZM54.592-2.578a2.2,2.2,0,0,0,1.225-.316,1.983,1.983,0,0,0,.7-.715V-5.637H55.365q-2.062,0-2.062,1.852a1.131,1.131,0,0,0,.363.873A1.315,1.315,0,0,0,54.592-2.578ZM62.2-6.434a8.561,8.561,0,0,1,.633-3.4,5.094,5.094,0,0,1,1.816-2.279,4.788,4.788,0,0,1,2.754-.8,3.807,3.807,0,0,1,3.094,1.336l.141-1.1h3.586V-.48a5.346,5.346,0,0,1-.779,2.912,5,5,0,0,1-2.256,1.9,8.292,8.292,0,0,1-3.422.662,7.153,7.153,0,0,1-2.7-.527,4.876,4.876,0,0,1-2-1.371L64.717.773a3.621,3.621,0,0,0,2.906,1.3q2.625,0,2.625-2.7v-.4A3.708,3.708,0,0,1,67.377.234a4.583,4.583,0,0,1-3.75-1.775A7.356,7.356,0,0,1,62.2-6.293Zm3.961.246a4.511,4.511,0,0,0,.586,2.467,1.849,1.849,0,0,0,1.641.908,2.1,2.1,0,0,0,1.863-.855V-9a2.045,2.045,0,0,0-1.84-.867,1.861,1.861,0,0,0-1.652.943A5.144,5.144,0,0,0,66.158-6.187ZM84.135-9.105l-1.3-.094a2.336,2.336,0,0,0-2.391,1.172V0H76.494V-12.68h3.7l.129,1.629A3.058,3.058,0,0,1,83.1-12.914a3.851,3.851,0,0,1,1.1.141Zm8.977,7.734A4.072,4.072,0,0,1,89.725.234,3.993,3.993,0,0,1,86.566-.979a5.1,5.1,0,0,1-1.072-3.486V-12.68h3.949v8.238a1.419,1.419,0,0,0,1.582,1.629,2.064,2.064,0,0,0,1.934-.973V-12.68h3.973V0h-3.7Zm17.754-4.875a7.646,7.646,0,0,1-1.33,4.717A4.264,4.264,0,0,1,105.943.234a3.655,3.655,0,0,1-2.871-1.277V4.875H99.123V-12.68h3.691l.117,1.172a3.656,3.656,0,0,1,2.988-1.406,4.3,4.3,0,0,1,3.645,1.729,7.741,7.741,0,0,1,1.3,4.752Zm-3.949-.246q0-3.375-1.969-3.375a1.859,1.859,0,0,0-1.875,1.008v4.992a1.919,1.919,0,0,0,1.9,1.055q1.887,0,1.945-3.258ZM119.748,0a4.459,4.459,0,0,1-.375-1.137A3.672,3.672,0,0,1,116.326.234,4.5,4.5,0,0,1,113.279-.85a3.45,3.45,0,0,1-1.254-2.725,3.546,3.546,0,0,1,1.523-3.117,7.761,7.761,0,0,1,4.43-1.055H119.2v-.668q0-1.746-1.512-1.746a1.233,1.233,0,0,0-1.406,1.383H112.33a3.546,3.546,0,0,1,1.564-2.988,6.569,6.569,0,0,1,3.99-1.148,5.764,5.764,0,0,1,3.832,1.184,4.115,4.115,0,0,1,1.441,3.246v5.613A5.748,5.748,0,0,0,123.7-.2V0Zm-2.473-2.578a2.2,2.2,0,0,0,1.225-.316,1.983,1.983,0,0,0,.7-.715V-5.637h-1.148q-2.062,0-2.062,1.852a1.131,1.131,0,0,0,.363.873A1.315,1.315,0,0,0,117.275-2.578Zm15.738-6.527-1.3-.094a2.336,2.336,0,0,0-2.391,1.172V0h-3.949V-12.68h3.7l.129,1.629a3.058,3.058,0,0,1,2.777-1.863,3.851,3.851,0,0,1,1.1.141ZM-92.7,22.77h-6.469v4.066h7.641V30h-11.754V12.938H-91.5v3.176h-7.664v3.6H-92.7Zm9.3,3.668a.912.912,0,0,0-.527-.809,8.021,8.021,0,0,0-2-.633,9.138,9.138,0,0,1-2.437-.861,4.083,4.083,0,0,1-1.465-1.295,3.092,3.092,0,0,1-.5-1.746,3.5,3.5,0,0,1,1.441-2.877,5.938,5.938,0,0,1,3.773-1.131,6.579,6.579,0,0,1,4.031,1.137,3.555,3.555,0,0,1,1.523,2.988H-83.52q0-1.523-1.605-1.523a1.591,1.591,0,0,0-1.043.346,1.07,1.07,0,0,0-.422.861.982.982,0,0,0,.516.855,4.872,4.872,0,0,0,1.646.539,14.228,14.228,0,0,1,1.986.5q2.859.984,2.859,3.527a3.321,3.321,0,0,1-1.541,2.824,6.758,6.758,0,0,1-3.99,1.09,6.9,6.9,0,0,1-2.906-.586,4.86,4.86,0,0,1-1.992-1.594,3.609,3.609,0,0,1-.715-2.121h3.691a1.526,1.526,0,0,0,.586,1.283,2.41,2.41,0,0,0,1.441.4,1.9,1.9,0,0,0,1.213-.328A1.05,1.05,0,0,0-83.391,26.438Zm10.254-12.27V17.32h2.086v2.742h-2.086v5.8a1.481,1.481,0,0,0,.258,1,1.383,1.383,0,0,0,1.02.281,5.793,5.793,0,0,0,.984-.07v2.824a7.288,7.288,0,0,1-2.227.34,4.137,4.137,0,0,1-3.012-.961,3.939,3.939,0,0,1-.973-2.918V20.063H-78.7V17.32h1.617V14.168Zm11.309,6.727-1.3-.094a2.336,2.336,0,0,0-2.391,1.172V30h-3.949V17.32h3.7l.129,1.629a3.058,3.058,0,0,1,2.777-1.863,3.851,3.851,0,0,1,1.1.141ZM-53.613,30a4.459,4.459,0,0,1-.375-1.137,3.672,3.672,0,0,1-3.047,1.371,4.5,4.5,0,0,1-3.047-1.084,3.45,3.45,0,0,1-1.254-2.725,3.546,3.546,0,0,1,1.523-3.117,7.761,7.761,0,0,1,4.43-1.055h1.219v-.668q0-1.746-1.512-1.746a1.233,1.233,0,0,0-1.406,1.383h-3.949a3.546,3.546,0,0,1,1.564-2.988,6.569,6.569,0,0,1,3.99-1.148,5.764,5.764,0,0,1,3.832,1.184A4.115,4.115,0,0,1-50.2,21.516v5.613a5.748,5.748,0,0,0,.539,2.672V30Zm-2.473-2.578a2.2,2.2,0,0,0,1.225-.316,1.983,1.983,0,0,0,.7-.715V24.363h-1.148q-2.062,0-2.062,1.852a1.131,1.131,0,0,0,.363.873A1.315,1.315,0,0,0-56.086,27.422Zm12.668-13.254V17.32h2.086v2.742h-2.086v5.8a1.481,1.481,0,0,0,.258,1,1.383,1.383,0,0,0,1.02.281,5.793,5.793,0,0,0,.984-.07v2.824a7.288,7.288,0,0,1-2.227.34,4.137,4.137,0,0,1-3.012-.961,3.939,3.939,0,0,1-.973-2.918V20.063h-1.617V17.32h1.617V14.168Zm9.773,16.066a6.518,6.518,0,0,1-4.723-1.74,6.009,6.009,0,0,1-1.8-4.529v-.328a7.787,7.787,0,0,1,.721-3.434,5.274,5.274,0,0,1,2.1-2.3,6.35,6.35,0,0,1,3.281-.814,5.489,5.489,0,0,1,4.219,1.658A6.516,6.516,0,0,1-28.3,23.367V24.9h-7.852a2.846,2.846,0,0,0,.926,1.676,2.755,2.755,0,0,0,1.852.609,3.549,3.549,0,0,0,2.93-1.312l1.8,2.133a5.045,5.045,0,0,1-2.092,1.623A7.069,7.069,0,0,1-33.645,30.234Zm-.445-10.1q-1.734,0-2.062,2.3h3.984v-.3a1.956,1.956,0,0,0-.48-1.471A1.912,1.912,0,0,0-34.09,20.133Zm-.047-8.145h4.172l-3.258,3.68h-3.223Zm6.961,11.578a8.561,8.561,0,0,1,.633-3.4,5.094,5.094,0,0,1,1.816-2.279,4.788,4.788,0,0,1,2.754-.8,3.807,3.807,0,0,1,3.094,1.336l.141-1.1h3.586v12.2a5.346,5.346,0,0,1-.779,2.912,5,5,0,0,1-2.256,1.9,8.292,8.292,0,0,1-3.422.662,7.153,7.153,0,0,1-2.7-.527,4.876,4.876,0,0,1-2-1.371l1.652-2.32a3.621,3.621,0,0,0,2.906,1.3q2.625,0,2.625-2.7v-.4A3.708,3.708,0,0,1-22,30.234a4.583,4.583,0,0,1-3.75-1.775,7.356,7.356,0,0,1-1.43-4.752Zm3.961.246a4.511,4.511,0,0,0,.586,2.467,1.849,1.849,0,0,0,1.641.908,2.1,2.1,0,0,0,1.863-.855V21a2.045,2.045,0,0,0-1.84-.867,1.861,1.861,0,0,0-1.652.943A5.144,5.144,0,0,0-23.215,23.813ZM-8.742,30H-12.7V17.32h3.961Zm-4.2-15.949a1.763,1.763,0,0,1,.609-1.383,2.3,2.3,0,0,1,1.582-.539,2.3,2.3,0,0,1,1.582.539,1.763,1.763,0,0,1,.609,1.383,1.763,1.763,0,0,1-.609,1.383,2.3,2.3,0,0,1-1.582.539,2.3,2.3,0,0,1-1.582-.539A1.763,1.763,0,0,1-12.937,14.051ZM-.949,27.188A1.756,1.756,0,0,0,.34,26.736a1.654,1.654,0,0,0,.445-1.26h3.7A4.384,4.384,0,0,1,2.994,28.9a5.558,5.558,0,0,1-3.85,1.336A5.627,5.627,0,0,1-5.215,28.5a6.834,6.834,0,0,1-1.594-4.8v-.164A7.723,7.723,0,0,1-6.1,20.139a5.162,5.162,0,0,1,2.045-2.262,6.1,6.1,0,0,1,3.164-.791,5.488,5.488,0,0,1,3.926,1.371,4.863,4.863,0,0,1,1.453,3.715H.785A2.168,2.168,0,0,0,.3,20.66a1.658,1.658,0,0,0-1.289-.527q-1.535,0-1.793,1.957A13.809,13.809,0,0,0-2.859,23.8,5.424,5.424,0,0,0-2.4,26.449,1.582,1.582,0,0,0-.949,27.188ZM13.3,30a4.459,4.459,0,0,1-.375-1.137,3.672,3.672,0,0,1-3.047,1.371A4.5,4.5,0,0,1,6.832,29.15a3.45,3.45,0,0,1-1.254-2.725A3.546,3.546,0,0,1,7.1,23.309a7.761,7.761,0,0,1,4.43-1.055H12.75v-.668q0-1.746-1.512-1.746a1.233,1.233,0,0,0-1.406,1.383H5.883a3.546,3.546,0,0,1,1.564-2.988,6.569,6.569,0,0,1,3.99-1.148A5.764,5.764,0,0,1,15.27,18.27a4.115,4.115,0,0,1,1.441,3.246v5.613A5.748,5.748,0,0,0,17.25,29.8V30Zm-2.473-2.578a2.2,2.2,0,0,0,1.225-.316,1.983,1.983,0,0,0,.7-.715V24.363H11.6q-2.062,0-2.062,1.852a1.131,1.131,0,0,0,.363.873A1.315,1.315,0,0,0,10.828,27.422Zm11.8-10.1.129,1.488a4.36,4.36,0,0,1,3.621-1.723A3.21,3.21,0,0,1,29.625,19a4.22,4.22,0,0,1,3.727-1.91q3.855,0,3.961,4.664V30H33.352V22a2.417,2.417,0,0,0-.328-1.418,1.4,1.4,0,0,0-1.2-.445,1.871,1.871,0,0,0-1.746,1.043l.012.164V30H26.133V22.02a2.541,2.541,0,0,0-.316-1.441,1.393,1.393,0,0,0-1.207-.445,1.894,1.894,0,0,0-1.734,1.043V30H18.926V17.32ZM45.7,30.234a6.518,6.518,0,0,1-4.723-1.74,6.009,6.009,0,0,1-1.8-4.529v-.328A7.787,7.787,0,0,1,39.9,20.2,5.274,5.274,0,0,1,42,17.9a6.35,6.35,0,0,1,3.281-.814A5.489,5.489,0,0,1,49.5,18.744a6.516,6.516,0,0,1,1.547,4.623V24.9H43.2a2.846,2.846,0,0,0,.926,1.676,2.755,2.755,0,0,0,1.852.609,3.549,3.549,0,0,0,2.93-1.312l1.8,2.133a5.045,5.045,0,0,1-2.092,1.623A7.069,7.069,0,0,1,45.7,30.234Zm-.445-10.1q-1.734,0-2.062,2.3H47.18v-.3a1.956,1.956,0,0,0-.48-1.471A1.912,1.912,0,0,0,45.258,20.133Zm11-2.812.129,1.488a4.3,4.3,0,0,1,3.621-1.723,3.618,3.618,0,0,1,2.959,1.184,5.635,5.635,0,0,1,1.014,3.563V30H60.023V22a2.14,2.14,0,0,0-.387-1.412,1.789,1.789,0,0,0-1.406-.451,1.883,1.883,0,0,0-1.723.914V30H52.559V17.32ZM70.77,14.168V17.32h2.086v2.742H70.77v5.8a1.481,1.481,0,0,0,.258,1,1.383,1.383,0,0,0,1.02.281,5.793,5.793,0,0,0,.984-.07v2.824a7.288,7.288,0,0,1-2.227.34,4.137,4.137,0,0,1-3.012-.961,3.939,3.939,0,0,1-.973-2.918V20.063H65.2V17.32H66.82V14.168Zm9.773,16.066a6.518,6.518,0,0,1-4.723-1.74,6.009,6.009,0,0,1-1.8-4.529v-.328a7.787,7.787,0,0,1,.721-3.434,5.274,5.274,0,0,1,2.1-2.3,6.35,6.35,0,0,1,3.281-.814,5.489,5.489,0,0,1,4.219,1.658,6.516,6.516,0,0,1,1.547,4.623V24.9H78.035a2.846,2.846,0,0,0,.926,1.676,2.755,2.755,0,0,0,1.852.609,3.549,3.549,0,0,0,2.93-1.312l1.8,2.133a5.045,5.045,0,0,1-2.092,1.623A7.069,7.069,0,0,1,80.543,30.234Zm-.445-10.1q-1.734,0-2.062,2.3H82.02v-.3a1.956,1.956,0,0,0-.48-1.471A1.912,1.912,0,0,0,80.1,20.133ZM96.375,24.6a7.627,7.627,0,0,1,.387-2.7,4.225,4.225,0,0,1,1.254-1.717,8.337,8.337,0,0,0,1.318-1.33,2.171,2.171,0,0,0,.451-1.33q0-1.77-1.523-1.77a1.413,1.413,0,0,0-1.137.516,2.193,2.193,0,0,0-.457,1.395H92.707a4.725,4.725,0,0,1,1.477-3.65A5.887,5.887,0,0,1,98.262,12.7a6.115,6.115,0,0,1,4.049,1.207,4.237,4.237,0,0,1,1.436,3.434,4,4,0,0,1-.387,1.77,5.98,5.98,0,0,1-1.242,1.629L100.77,22a3.17,3.17,0,0,0-.8,1.131,4.481,4.481,0,0,0-.246,1.471Zm-.48,3.563a1.819,1.819,0,0,1,.627-1.424,2.477,2.477,0,0,1,3.129,0,1.93,1.93,0,0,1,0,2.848,2.477,2.477,0,0,1-3.129,0A1.819,1.819,0,0,1,95.895,28.16Z" transform="translate(817 1836)" fill="#fff"/>
    </g>
  </g>
</svg>
