<svg xmlns="http://www.w3.org/2000/svg" width="274" height="315" viewBox="0 0 274 315">
  <g id="Grupo_78318" data-name="Grupo 78318" transform="translate(-981 -1561)">
    <rect id="Rectángulo_8139" data-name="Rectángulo 8139" width="217" height="70" rx="10" transform="translate(1010 1806)" fill="#fff"/>
    <text id="Fidelización" transform="translate(1051 1829)" fill="#636363" font-size="18" font-family="Roboto-Black, Roboto" font-weight="800"><tspan x="18.505" y="19">Fidelización</tspan></text>
    <g id="Grupo_78312" data-name="Grupo 78312">
      <rect id="Rectángulo_8133" data-name="Rectángulo 8133" width="274" height="115" rx="10" transform="translate(981 1561)" fill="#529ad9"/>
      <text id="MERCHANDISING_DE_SEDUCCIÓN_" data-name="MERCHANDISING 
DE SEDUCCIÓN " transform="translate(1118 1606)" fill="#fff" font-size="18" font-family="Roboto-Black, Roboto" font-weight="800"><tspan x="-75.133" y="0">MERCHANDISING </tspan><tspan x="-64.868" y="25">DE SEDUCCIÓN </tspan></text>
      <g id="Rectángulo_8136" data-name="Rectángulo 8136" transform="translate(1010 1658)" fill="#aed5f7" stroke="#fff" stroke-width="3">
        <rect width="217" height="115" rx="10" stroke="none"/>
        <rect x="1.5" y="1.5" width="214" height="112" rx="8.5" fill="none"/>
      </g>
      <text id="Virtual_Invasión_Integrado" data-name="Virtual
Invasión
Integrado" transform="translate(1051 1676)" font-size="18" font-family="Roboto-Regular, Roboto"><tspan x="41.344" y="19">Virtual</tspan><tspan x="33.974" y="44">Invasión</tspan><tspan x="29.355" y="69">Integrado</tspan></text>
      <path id="flecha-correcta" d="M28.761,30.956a5.252,5.252,0,0,0-7.428,7.428l7.305,7.308H5.009a5.009,5.009,0,0,0,0,10.018h23.63l-7.305,7.305a5.252,5.252,0,0,0,7.428,7.428L47.8,51.408a1,1,0,0,0,0-1.417Z" transform="translate(1169.199 1767) rotate(90)" fill="#529ad9"/>
    </g>
  </g>
</svg>
