<svg xmlns="http://www.w3.org/2000/svg" width="214" height="179" viewBox="0 0 214 179">
  <g id="Grupo_73848" data-name="Grupo 73848" transform="translate(-276.309 -1633)">
    <rect id="Rectángulo_8085" data-name="Rectángulo 8085" width="214" height="179" transform="translate(276.309 1633)" fill="#ecedd6"/>
    <g id="ventas" transform="translate(312.754 1654.848)">
      <path id="Trazado_131084" data-name="Trazado 131084" d="M48.554,328H34.089L8.054,353.5l14.465,15L48.554,343Z" transform="translate(-5.75 -235.749)" fill="#e5dec1"/>
      <path id="Trazado_131085" data-name="Trazado 131085" d="M312.054,53h16.072l28.928-28.334L340.982,8,312.054,36.334Z" transform="translate(-224.249 -5.75)" fill="#f3f095"/>
      <path id="Trazado_131086" data-name="Trazado 131086" d="M200.054,264l9.392,31.5h34.79l9.819-31.5Z" transform="translate(-143.75 -189.75)" fill="#529ad9"/>
      <g id="Grupo_73844" data-name="Grupo 73844" transform="translate(69.804 123.751)">
        <circle id="Elipse_5350" data-name="Elipse 5350" cx="4.5" cy="4.5" r="4.5" transform="translate(0.249 0.173)" fill="#dbe6fd"/>
        <circle id="Elipse_5351" data-name="Elipse 5351" cx="4.5" cy="4.5" r="4.5" transform="translate(25.249 0.173)" fill="#dbe6fd"/>
      </g>
      <path id="Trazado_131087" data-name="Trazado 131087" d="M71.054,71V48.5L31.387,8,8.054,30.5,47.722,71Z" transform="translate(-5.75 -5.75)" fill="#b2b555"/>
      <path id="Trazado_131088" data-name="Trazado 131088" d="M238.486,292H203.695a2.248,2.248,0,0,1-2.156-1.607l-9.391-31.5A2.249,2.249,0,0,1,194.3,256h54a2.25,2.25,0,0,1,2.149,2.919l-9.817,31.5A2.253,2.253,0,0,1,238.486,292Zm-33.115-4.5h31.46l8.413-27H197.323Z" transform="translate(-137.999 -184)"/>
      <path id="Trazado_131089" data-name="Trazado 131089" d="M248.054,296h27v4.5h-27Z" transform="translate(-178.25 -212.749)"/>
      <path id="Trazado_131090" data-name="Trazado 131090" d="M256.054,328h22.5v4.5h-22.5Z" transform="translate(-184 -235.749)"/>
      <path id="Trazado_131091" data-name="Trazado 131091" d="M279.054,248a2.25,2.25,0,0,0-2.112,1.472L261.735,290.75H216.054v4.5H227.3v4.915a6.75,6.75,0,1,0,4.5,0V295.25h20.25v4.915a6.75,6.75,0,1,0,4.5,0V295.25h6.75a2.25,2.25,0,0,0,2.112-1.472L280.623,252.5H290.3V248Zm-49.5,60.75a2.25,2.25,0,1,1,2.25-2.25A2.25,2.25,0,0,1,229.554,308.75Zm24.75,0a2.25,2.25,0,1,1,2.25-2.25A2.25,2.25,0,0,1,254.3,308.75Z" transform="translate(-155.25 -178.25)"/>
      <path id="Trazado_131092" data-name="Trazado 131092" d="M65.3,67.5H42.8a2.249,2.249,0,0,1-1.591-.659l-40.5-40.5a2.249,2.249,0,0,1,0-3.181h0l22.5-22.5a2.249,2.249,0,0,1,3.181,0h0l40.5,40.5a2.251,2.251,0,0,1,.659,1.591v22.5a2.25,2.25,0,0,1-2.249,2.25ZM43.736,63H63.054V43.682L24.8,5.432,5.486,24.75Z" transform="translate(0 0)"/>
      <path id="Trazado_131093" data-name="Trazado 131093" d="M358.252,81.991A6.2,6.2,0,0,1,353.866,71.4l3.182,3.182a1.7,1.7,0,0,0,2.41,2.409c.609-.608.71-.832-.4-2.951-1.009-1.92-2.7-5.135.4-8.232a6.2,6.2,0,0,1,8.779,8.769l-.005.005L365.05,71.4a1.7,1.7,0,0,0-2.41-2.409c-.611.611-.714.836.4,2.959,1.006,1.919,2.692,5.132-.4,8.224A6.2,6.2,0,0,1,358.252,81.991Z" transform="translate(-252.994 -45.994)"/>
      <path id="Trazado_131094" data-name="Trazado 131094" d="M65.591,379.749a5.541,5.541,0,0,1-3.92-9.462l3.182,3.182a1.045,1.045,0,0,0,1.475,1.482l0,0c.365-.365.431-.431-.4-2.019a5.622,5.622,0,0,1,.4-7.3,5.545,5.545,0,0,1,7.842,7.841l-3.182-3.182a1.045,1.045,0,1,0-1.475-1.482l0,0c-.369.368-.435.435.4,2.027a5.618,5.618,0,0,1-.4,7.293,5.529,5.529,0,0,1-3.922,1.62Z" transform="translate(-43.118 -261.626)"/>
      <path id="Trazado_131095" data-name="Trazado 131095" d="M322.054,49.5H306.3a2.25,2.25,0,0,1-2.25-2.249h0V31.5a2.251,2.251,0,0,1,.659-1.591L333.963.659a2.249,2.249,0,0,1,3.181,0h0l15.75,15.75a2.249,2.249,0,0,1,0,3.181h0l-29.25,29.25a2.246,2.246,0,0,1-1.591.659Zm-13.5-4.5h12.569l27-27L335.554,5.432l-27,27Z" transform="translate(-218.499 0)"/>
      <path id="Trazado_131096" data-name="Trazado 131096" d="M18.054,365a2.243,2.243,0,0,1-1.591-.659L.713,348.591a2.249,2.249,0,0,1,0-3.181h0l24.75-24.75A2.249,2.249,0,0,1,27.054,320H42.8a2.25,2.25,0,0,1,2.25,2.249h0V338a2.251,2.251,0,0,1-.659,1.591l-24.75,24.75a2.242,2.242,0,0,1-1.591.659ZM5.486,347l12.569,12.569,22.5-22.5V324.5H27.986Z" transform="translate(0 -229.999)"/>
      <path id="Trazado_131097" data-name="Trazado 131097" d="M179.429,182.75a3.375,3.375,0,1,1,3.375-3.375A3.375,3.375,0,0,1,179.429,182.75Z" transform="translate(-126.5 -126.5)"/>
      <path id="Trazado_131098" data-name="Trazado 131098" d="M98.924,95.689A7.505,7.505,0,0,0,97.6,86.912c-3.733-3.735-7.556-1.729-10.088-.4-2.733,1.434-3.562,1.659-4.823.4a3.022,3.022,0,0,1,4.274-4.275l3.182-3.182a7.506,7.506,0,0,0-8.777-1.321L77.58,74.344,74.4,77.526l3.792,3.792a7.506,7.506,0,0,0,1.321,8.777c3.738,3.741,7.565,1.731,10.1.4,2.725-1.435,3.553-1.66,4.814-.4a3.022,3.022,0,1,1-4.274,4.274l-3.182,3.182a7.421,7.421,0,0,0,8.776,1.321l3.405,3.405,3.182-3.182Z" transform="translate(-53.434 -53.434)"/>
      <path id="Trazado_131099" data-name="Trazado 131099" d="M296.054,192h4.5v4.5h-4.5Z" transform="translate(-212.749 -138)"/>
      <path id="Trazado_131100" data-name="Trazado 131100" d="M296.054,224h4.5v4.5h-4.5Z" transform="translate(-212.749 -161)"/>
      <path id="Trazado_131101" data-name="Trazado 131101" d="M160.054,256h4.5v4.5h-4.5Z" transform="translate(-115 -184)"/>
      <path id="Trazado_131102" data-name="Trazado 131102" d="M160.054,288h4.5v4.5h-4.5Z" transform="translate(-115 -207)"/>
    </g>
  </g>
</svg>
