<svg xmlns="http://www.w3.org/2000/svg" width="307.68" height="223.31" viewBox="0 0 307.68 223.31">
  <g id="Grupo_78325" data-name="Grupo 78325" transform="translate(-1162.881 -476.399)">
    <g id="Grupo_78324" data-name="Grupo 78324">
      <g id="Grupo_73839" data-name="Grupo 73839" transform="translate(1162.881 508.906)">
        <path id="Trazado_131082" data-name="Trazado 131082" d="M644.658,266.411H412.916c-20.935,0-37.971-14.236-37.971-31.729V107.336c0-17.495,17.036-31.728,37.971-31.728h50.315a1.723,1.723,0,1,1,0,3.391H412.916C394.216,79,379,91.712,379,107.336V234.683c0,15.625,15.212,28.334,33.913,28.334H644.658c18.7,0,33.906-12.71,33.906-28.334V187.349a2.063,2.063,0,0,1,4.062,0v47.334C682.625,252.175,665.589,266.411,644.658,266.411Z" transform="translate(-374.945 -75.608)" fill="#529ad9"/>
      </g>
      <g id="Grupo_73840" data-name="Grupo 73840" transform="translate(1240.355 476.399)">
        <circle id="Elipse_5349" data-name="Elipse 5349" cx="34.897" cy="34.897" r="34.897" transform="translate(1.698 1.695)" fill="#529ad9"/>
        <path id="Trazado_131083" data-name="Trazado 131083" d="M433.474,137.061a36.592,36.592,0,1,1,36.594-36.594A36.637,36.637,0,0,1,433.474,137.061Zm0-69.8a33.2,33.2,0,1,0,33.2,33.2A33.24,33.24,0,0,0,433.474,67.265Z" transform="translate(-396.877 -63.876)" fill="#529ad9"/>
      </g>
      <path id="Trazado_131111" data-name="Trazado 131111" d="M4.76,9.076a3.668,3.668,0,0,1-.175,1.2,2.615,2.615,0,0,1-.557.87q-.39.419-1.138,1.1a2.342,2.342,0,0,0-.838,1.388l-.016.263a1.478,1.478,0,0,0,.472,1.182,2.016,2.016,0,0,0,1.358.408,2.07,2.07,0,0,0,1.321-.4,1.271,1.271,0,0,0,.508-1.047H7.2a2.319,2.319,0,0,1-.931,1.867,3.759,3.759,0,0,1-2.4.724A3.789,3.789,0,0,1,1.4,15.922a2.424,2.424,0,0,1-.87-1.984,3.51,3.51,0,0,1,1.3-2.47l.886-.8a2.193,2.193,0,0,0,.537-1.59Zm.065-2.25a.728.728,0,0,1-.224.539.908.908,0,0,1-.663.22.923.923,0,0,1-.667-.22.721.721,0,0,1-.228-.539A.691.691,0,0,1,3.272,6.3a.942.942,0,0,1,.667-.213A.927.927,0,0,1,4.6,6.3.7.7,0,0,1,4.825,6.826Zm13.117,3.8a3.641,3.641,0,0,1-1.386,2.53,4.983,4.983,0,0,1-3.1.891,4.453,4.453,0,0,1-3.363-1.313A4.852,4.852,0,0,1,8.826,9.218V8.224a5.256,5.256,0,0,1,.59-2.534,4.058,4.058,0,0,1,1.671-1.679,5.179,5.179,0,0,1,2.5-.586,4.672,4.672,0,0,1,3.025.919A3.661,3.661,0,0,1,17.942,6.89H16.372A2.8,2.8,0,0,0,15.49,5.1a2.927,2.927,0,0,0-1.9-.554,2.963,2.963,0,0,0-2.346.965A4.026,4.026,0,0,0,10.4,8.26v1a4.127,4.127,0,0,0,.805,2.676,2.736,2.736,0,0,0,2.253.994,3.315,3.315,0,0,0,2-.515,2.719,2.719,0,0,0,.923-1.792Zm1.5-.632a4.061,4.061,0,0,1,.508-2.03A3.508,3.508,0,0,1,21.361,6.57a4.285,4.285,0,0,1,2.07-.49,3.979,3.979,0,0,1,2.907,1.086,3.858,3.858,0,0,1,1.11,2.889v.092a4.092,4.092,0,0,1-.492,2.012,3.453,3.453,0,0,1-1.407,1.388,4.334,4.334,0,0,1-2.1.5,3.969,3.969,0,0,1-2.9-1.086,3.84,3.84,0,0,1-1.11-2.875Zm1.513.156a3,3,0,0,0,.679,2.051,2.514,2.514,0,0,0,3.639-.011,3.264,3.264,0,0,0,.675-2.2,2.994,2.994,0,0,0-.687-2.048,2.307,2.307,0,0,0-1.826-.784,2.282,2.282,0,0,0-1.8.774A3.242,3.242,0,0,0,20.95,10.148ZM24.114,3h1.822L23.756,5.087H22.544Zm6.636,3.223.041.852a3.476,3.476,0,0,1,2.61-.994,2.593,2.593,0,0,1,2.513,1.235,3.223,3.223,0,0,1,1.143-.894,3.778,3.778,0,0,1,1.663-.341q2.895,0,2.944,2.676V13.9h-1.5V8.835A1.62,1.62,0,0,0,39.727,7.6a2.075,2.075,0,0,0-1.447-.408,2.175,2.175,0,0,0-1.391.437,1.694,1.694,0,0,0-.642,1.175v5.1H34.734V8.87q0-1.675-1.878-1.675a2.049,2.049,0,0,0-2.025,1.1V13.9h-1.5V6.223ZM43.533,9.992a4.061,4.061,0,0,1,.508-2.03A3.508,3.508,0,0,1,45.456,6.57a4.285,4.285,0,0,1,2.07-.49,3.979,3.979,0,0,1,2.907,1.086,3.858,3.858,0,0,1,1.11,2.889v.092a4.092,4.092,0,0,1-.492,2.012,3.453,3.453,0,0,1-1.407,1.388,4.334,4.334,0,0,1-2.1.5,3.969,3.969,0,0,1-2.9-1.086,3.84,3.84,0,0,1-1.11-2.875Zm1.513.156a3,3,0,0,0,.679,2.051,2.514,2.514,0,0,0,3.639-.011,3.264,3.264,0,0,0,.675-2.2,2.994,2.994,0,0,0-.687-2.048,2.307,2.307,0,0,0-1.826-.784,2.282,2.282,0,0,0-1.8.774A3.242,3.242,0,0,0,45.045,10.148Zm17.63,1.718a.93.93,0,0,0-.459-.827,4.835,4.835,0,0,0-1.6-.508A8.371,8.371,0,0,1,58.8,10.02a2.533,2.533,0,0,1-.992-.71,1.545,1.545,0,0,1-.321-.98,1.917,1.917,0,0,1,.915-1.6,3.928,3.928,0,0,1,2.338-.653,4.042,4.042,0,0,1,2.427.674A2.048,2.048,0,0,1,64.1,8.48H62.586a1.138,1.138,0,0,0-.525-.93,2.153,2.153,0,0,0-1.321-.39,2.278,2.278,0,0,0-1.285.312.947.947,0,0,0-.464.816.775.775,0,0,0,.431.717,5.832,5.832,0,0,0,1.557.461,8.958,8.958,0,0,1,1.826.525,2.619,2.619,0,0,1,1.037.735,1.642,1.642,0,0,1,.337,1.047,1.9,1.9,0,0,1-.943,1.65,4.376,4.376,0,0,1-2.448.621,4.991,4.991,0,0,1-1.87-.327,2.989,2.989,0,0,1-1.273-.912,2.012,2.012,0,0,1-.459-1.267h1.5a1.312,1.312,0,0,0,.606,1.047,2.6,2.6,0,0,0,1.492.387,2.7,2.7,0,0,0,1.37-.3A.907.907,0,0,0,62.675,11.866Zm7.115,2.179a4.147,4.147,0,0,1-2.911-1.026,3.536,3.536,0,0,1-1.122-2.743v-.241a4.122,4.122,0,0,1,.5-2.041,3.594,3.594,0,0,1,1.4-1.405A3.894,3.894,0,0,1,69.6,6.081a3.532,3.532,0,0,1,2.667.987,3.908,3.908,0,0,1,.951,2.825v.547H67.261a2.535,2.535,0,0,0,.76,1.835,2.562,2.562,0,0,0,1.85.7,2.929,2.929,0,0,0,1.35-.284,3.288,3.288,0,0,0,.968-.752l.919.625A3.873,3.873,0,0,1,69.791,14.045ZM69.6,7.16a2.152,2.152,0,0,0-1.529.578A2.642,2.642,0,0,0,67.31,9.36h4.407v-.1A2.314,2.314,0,0,0,71.1,7.71,2.028,2.028,0,0,0,69.6,7.16ZM80.72,13.9h-1.5V3h1.5Zm2.009-3.911a4.061,4.061,0,0,1,.508-2.03A3.508,3.508,0,0,1,84.652,6.57a4.285,4.285,0,0,1,2.07-.49,3.979,3.979,0,0,1,2.907,1.086,3.858,3.858,0,0,1,1.11,2.889v.092a4.092,4.092,0,0,1-.492,2.012,3.453,3.453,0,0,1-1.407,1.388,4.334,4.334,0,0,1-2.1.5,3.969,3.969,0,0,1-2.9-1.086,3.84,3.84,0,0,1-1.11-2.875Zm1.513.156A3,3,0,0,0,84.92,12.2a2.514,2.514,0,0,0,3.639-.011,3.264,3.264,0,0,0,.675-2.2,2.994,2.994,0,0,0-.687-2.048,2.307,2.307,0,0,0-1.826-.784,2.282,2.282,0,0,0-1.8.774A3.242,3.242,0,0,0,84.241,10.148ZM92.267,10a4.121,4.121,0,0,1,.951-2.857,3.6,3.6,0,0,1,5.034-.067l.073-.852H99.7v7.5a2.918,2.918,0,0,1-1.012,2.349,4.066,4.066,0,0,1-2.72.859,5.088,5.088,0,0,1-1.862-.355,3.162,3.162,0,0,1-1.391-.972l.781-.788a3.1,3.1,0,0,0,2.366,1.043,2.507,2.507,0,0,0,1.712-.539,1.915,1.915,0,0,0,.614-1.519v-.66a3.317,3.317,0,0,1-2.464.909,3.172,3.172,0,0,1-2.5-1.086A4.324,4.324,0,0,1,92.267,10Zm1.513.149a3.122,3.122,0,0,0,.61,2.041,2.088,2.088,0,0,0,1.708.742,2.253,2.253,0,0,0,2.09-1.129V8.3a2.287,2.287,0,0,0-2.074-1.1A2.107,2.107,0,0,0,94.4,7.94,3.39,3.39,0,0,0,93.78,10.148ZM106.221,7.4a5.151,5.151,0,0,0-.74-.05,2.015,2.015,0,0,0-2.009,1.1V13.9h-1.5V6.223h1.464l.024.887a2.431,2.431,0,0,1,2.1-1.029,1.736,1.736,0,0,1,.667.1Zm6.489,6.5a2.473,2.473,0,0,1-.211-.809,3.6,3.6,0,0,1-2.5.951,3.4,3.4,0,0,1-2.135-.642,1.974,1.974,0,0,1-.834-1.629,2.091,2.091,0,0,1,1.045-1.863,5.479,5.479,0,0,1,2.94-.664h1.464v-.6a1.377,1.377,0,0,0-.472-1.1,2.071,2.071,0,0,0-1.391-.408,2.423,2.423,0,0,0-1.35.355,1.02,1.02,0,0,0-.545.859h-1.513a1.678,1.678,0,0,1,.468-1.111,3.176,3.176,0,0,1,1.269-.848,4.807,4.807,0,0,1,1.761-.312,3.82,3.82,0,0,1,2.383.664,2.265,2.265,0,0,1,.895,1.828v3.535a3.832,3.832,0,0,0,.309,1.682V13.9Zm-2.5-1a2.944,2.944,0,0,0,1.342-.319,2.078,2.078,0,0,0,.919-.83V10.176H111.3q-2.765,0-2.765,1.413a1.132,1.132,0,0,0,.472.965A1.989,1.989,0,0,0,110.214,12.9ZM120.59,7.4a5.151,5.151,0,0,0-.74-.05,2.015,2.015,0,0,0-2.009,1.1V13.9h-1.5V6.223H117.8l.024.887a2.431,2.431,0,0,1,2.1-1.029,1.736,1.736,0,0,1,.667.1Zm6.489,6.5a2.472,2.472,0,0,1-.211-.809,3.6,3.6,0,0,1-2.5.951,3.4,3.4,0,0,1-2.135-.642,1.974,1.974,0,0,1-.834-1.629A2.091,2.091,0,0,1,122.44,9.91a5.479,5.479,0,0,1,2.94-.664h1.464v-.6a1.377,1.377,0,0,0-.472-1.1,2.071,2.071,0,0,0-1.391-.408,2.423,2.423,0,0,0-1.35.355,1.02,1.02,0,0,0-.545.859h-1.513a1.678,1.678,0,0,1,.468-1.111,3.176,3.176,0,0,1,1.269-.848,4.807,4.807,0,0,1,1.761-.312,3.82,3.82,0,0,1,2.383.664,2.265,2.265,0,0,1,.895,1.828v3.535a3.832,3.832,0,0,0,.309,1.682V13.9Zm-2.5-1a2.944,2.944,0,0,0,1.342-.319,2.078,2.078,0,0,0,.919-.83V10.176h-1.179q-2.765,0-2.765,1.413a1.132,1.132,0,0,0,.472.965A1.989,1.989,0,0,0,124.583,12.9ZM125.974,3H127.8l-2.179,2.087H124.4Zm12.507,11.045a4.147,4.147,0,0,1-2.911-1.026,3.536,3.536,0,0,1-1.122-2.743v-.241a4.122,4.122,0,0,1,.5-2.041,3.594,3.594,0,0,1,1.4-1.405,3.894,3.894,0,0,1,1.948-.508,3.532,3.532,0,0,1,2.667.987,3.908,3.908,0,0,1,.951,2.825v.547h-5.961a2.535,2.535,0,0,0,.76,1.835,2.562,2.562,0,0,0,1.85.7,2.929,2.929,0,0,0,1.35-.284,3.287,3.287,0,0,0,.968-.752l.919.625A3.873,3.873,0,0,1,138.481,14.045Zm-.187-6.885a2.152,2.152,0,0,0-1.529.578A2.642,2.642,0,0,0,136,9.36h4.407v-.1a2.314,2.314,0,0,0-.618-1.551A2.028,2.028,0,0,0,138.294,7.16Zm6.993,6.743h-1.5V3h1.5Zm8.571-9.54v1.86H155.5V7.238h-1.643V12a.97.97,0,0,0,.22.692,1,1,0,0,0,.748.231,4.145,4.145,0,0,0,.716-.085V13.9a4.957,4.957,0,0,1-1.155.142,2.016,2.016,0,0,1-1.521-.532A2.093,2.093,0,0,1,152.354,12V7.238h-1.6V6.223h1.6V4.363ZM161.51,7.4a5.151,5.151,0,0,0-.74-.05,2.015,2.015,0,0,0-2.009,1.1V13.9h-1.5V6.223h1.464l.024.887a2.431,2.431,0,0,1,2.1-1.029,1.736,1.736,0,0,1,.667.1ZM168,13.9a2.472,2.472,0,0,1-.211-.809,3.6,3.6,0,0,1-2.5.951,3.4,3.4,0,0,1-2.135-.642,1.974,1.974,0,0,1-.833-1.629A2.091,2.091,0,0,1,163.36,9.91a5.479,5.479,0,0,1,2.94-.664h1.464v-.6a1.377,1.377,0,0,0-.472-1.1,2.071,2.071,0,0,0-1.391-.408,2.423,2.423,0,0,0-1.35.355,1.02,1.02,0,0,0-.545.859h-1.513a1.678,1.678,0,0,1,.468-1.111,3.176,3.176,0,0,1,1.269-.848,4.807,4.807,0,0,1,1.761-.312,3.82,3.82,0,0,1,2.383.664,2.265,2.265,0,0,1,.895,1.828v3.535a3.832,3.832,0,0,0,.309,1.682V13.9Zm-2.5-1a2.944,2.944,0,0,0,1.342-.319,2.078,2.078,0,0,0,.919-.83V10.176h-1.179q-2.765,0-2.765,1.413a1.132,1.132,0,0,0,.472.965A1.989,1.989,0,0,0,165.5,12.9ZM166.893,3h1.822l-2.179,2.087h-1.212Zm6.156,3.223.049.965a3.4,3.4,0,0,1,2.635-1.107,2.471,2.471,0,0,1,2.814,2.747V13.9h-1.5V8.82a1.625,1.625,0,0,0-.435-1.228,1.9,1.9,0,0,0-1.33-.4,2.4,2.4,0,0,0-1.285.341,2.425,2.425,0,0,0-.862.894V13.9h-1.5V6.223Zm12.889,5.643a.93.93,0,0,0-.459-.827,4.835,4.835,0,0,0-1.6-.508,8.371,8.371,0,0,1-1.813-.511,2.533,2.533,0,0,1-.992-.71,1.545,1.545,0,0,1-.321-.98,1.917,1.917,0,0,1,.915-1.6A3.928,3.928,0,0,1,184,6.081a4.042,4.042,0,0,1,2.427.674,2.048,2.048,0,0,1,.931,1.725h-1.513a1.138,1.138,0,0,0-.525-.93A2.153,2.153,0,0,0,184,7.16a2.278,2.278,0,0,0-1.285.312.947.947,0,0,0-.464.816.775.775,0,0,0,.431.717,5.832,5.832,0,0,0,1.557.461,8.958,8.958,0,0,1,1.826.525,2.619,2.619,0,0,1,1.037.735,1.642,1.642,0,0,1,.337,1.047,1.9,1.9,0,0,1-.943,1.65,4.376,4.376,0,0,1-2.448.621,4.991,4.991,0,0,1-1.87-.327,2.989,2.989,0,0,1-1.273-.912,2.012,2.012,0,0,1-.459-1.267h1.5a1.312,1.312,0,0,0,.606,1.047,2.6,2.6,0,0,0,1.492.387,2.7,2.7,0,0,0,1.37-.3A.907.907,0,0,0,185.938,11.866Zm5.1,2.037h-1.5V6.223h1.5Zm-1.626-9.717a.728.728,0,0,1,.224-.539.908.908,0,0,1,.663-.22.923.923,0,0,1,.667.22.721.721,0,0,1,.228.539.7.7,0,0,1-.228.532.942.942,0,0,1-.667.213.927.927,0,0,1-.663-.213A.7.7,0,0,1,189.411,4.185Zm6.075.177v1.86h1.643V7.238h-1.643V12a.97.97,0,0,0,.22.692,1,1,0,0,0,.748.231,4.145,4.145,0,0,0,.716-.085V13.9a4.957,4.957,0,0,1-1.155.142,2.016,2.016,0,0,1-1.521-.532A2.093,2.093,0,0,1,193.981,12V7.238h-1.6V6.223h1.6V4.363Zm2.838,5.629a4.061,4.061,0,0,1,.508-2.03,3.508,3.508,0,0,1,1.415-1.391,4.285,4.285,0,0,1,2.07-.49,3.979,3.979,0,0,1,2.907,1.086,3.858,3.858,0,0,1,1.11,2.889v.092a4.092,4.092,0,0,1-.492,2.012,3.453,3.453,0,0,1-1.407,1.388,4.334,4.334,0,0,1-2.1.5,3.969,3.969,0,0,1-2.9-1.086,3.84,3.84,0,0,1-1.11-2.875Zm1.513.156a3,3,0,0,0,.679,2.051,2.514,2.514,0,0,0,3.639-.011,3.264,3.264,0,0,0,.675-2.2,2.994,2.994,0,0,0-.687-2.048,2.307,2.307,0,0,0-1.826-.784,2.282,2.282,0,0,0-1.8.774A3.242,3.242,0,0,0,199.836,10.148ZM.751,31.8a4.11,4.11,0,0,1,.96-2.843,3.207,3.207,0,0,1,2.513-1.075,3.267,3.267,0,0,1,2.448.923v-4h1.5v10.9H6.793l-.073-.823a3.272,3.272,0,0,1-2.513.965,3.169,3.169,0,0,1-2.492-1.093A4.156,4.156,0,0,1,.751,31.9Zm1.5.149A3.091,3.091,0,0,0,2.873,34a2.107,2.107,0,0,0,1.708.738,2.246,2.246,0,0,0,2.09-1.122V30.086A2.272,2.272,0,0,0,4.6,29a2.116,2.116,0,0,0-1.724.745A3.39,3.39,0,0,0,2.255,31.953Zm11.905,3.9a4.147,4.147,0,0,1-2.911-1.026,3.536,3.536,0,0,1-1.122-2.743V31.84a4.122,4.122,0,0,1,.5-2.041,3.594,3.594,0,0,1,1.4-1.405,3.894,3.894,0,0,1,1.948-.508,3.532,3.532,0,0,1,2.667.987,3.908,3.908,0,0,1,.951,2.825v.547H11.631a2.535,2.535,0,0,0,.76,1.835,2.562,2.562,0,0,0,1.85.7,2.929,2.929,0,0,0,1.35-.284,3.287,3.287,0,0,0,.968-.752l.919.625A3.873,3.873,0,0,1,14.16,35.85Zm-.187-6.885a2.152,2.152,0,0,0-1.529.578,2.642,2.642,0,0,0-.764,1.622h4.407v-.1a2.314,2.314,0,0,0-.618-1.551A2.028,2.028,0,0,0,13.973,28.965ZM25.09,35.708h-1.5v-10.9h1.5ZM27.1,31.8a4.061,4.061,0,0,1,.508-2.03,3.508,3.508,0,0,1,1.415-1.391,4.285,4.285,0,0,1,2.07-.49A3.979,3.979,0,0,1,34,28.972a3.858,3.858,0,0,1,1.11,2.889v.092a4.092,4.092,0,0,1-.492,2.012,3.453,3.453,0,0,1-1.407,1.388,4.334,4.334,0,0,1-2.1.5,3.969,3.969,0,0,1-2.9-1.086,3.84,3.84,0,0,1-1.11-2.875Zm1.513.156A3,3,0,0,0,29.29,34a2.514,2.514,0,0,0,3.639-.011,3.264,3.264,0,0,0,.675-2.2,2.994,2.994,0,0,0-.687-2.048,2.307,2.307,0,0,0-1.826-.784,2.282,2.282,0,0,0-1.8.774A3.242,3.242,0,0,0,28.611,31.953Zm13.507,1.718a.93.93,0,0,0-.459-.827,4.835,4.835,0,0,0-1.6-.508,8.371,8.371,0,0,1-1.813-.511,2.533,2.533,0,0,1-.992-.71,1.545,1.545,0,0,1-.321-.98,1.917,1.917,0,0,1,.915-1.6,3.928,3.928,0,0,1,2.338-.653,4.042,4.042,0,0,1,2.427.674,2.048,2.048,0,0,1,.931,1.725H42.028a1.138,1.138,0,0,0-.525-.93,2.153,2.153,0,0,0-1.321-.39,2.278,2.278,0,0,0-1.285.312.947.947,0,0,0-.464.816.775.775,0,0,0,.431.717,5.832,5.832,0,0,0,1.557.461,8.958,8.958,0,0,1,1.826.525,2.619,2.619,0,0,1,1.037.735,1.642,1.642,0,0,1,.337,1.047,1.9,1.9,0,0,1-.943,1.65,4.376,4.376,0,0,1-2.448.621,4.991,4.991,0,0,1-1.87-.327,2.989,2.989,0,0,1-1.273-.912,2.012,2.012,0,0,1-.459-1.267h1.5a1.312,1.312,0,0,0,.606,1.047,2.6,2.6,0,0,0,1.492.387,2.7,2.7,0,0,0,1.37-.3A.907.907,0,0,0,42.118,33.671Zm11.116,1.107a2.373,2.373,0,0,0,1.407-.426,1.458,1.458,0,0,0,.667-1.065h1.423a2.2,2.2,0,0,1-.52,1.256,3.347,3.347,0,0,1-1.281.951,4.139,4.139,0,0,1-1.7.355A3.892,3.892,0,0,1,50.376,34.8a3.841,3.841,0,0,1-1.061-2.864v-.22a4.13,4.13,0,0,1,.472-1.995,3.311,3.311,0,0,1,1.354-1.356,4.282,4.282,0,0,1,2.086-.483,3.847,3.847,0,0,1,2.46.774,2.63,2.63,0,0,1,1.045,2.009H55.308a1.723,1.723,0,0,0-.646-1.224,2.182,2.182,0,0,0-1.435-.479,2.235,2.235,0,0,0-1.777.72,3.072,3.072,0,0,0-.63,2.083v.248a3.013,3.013,0,0,0,.626,2.044A2.248,2.248,0,0,0,53.234,34.778Zm6.823.93h-1.5v-10.9h1.5Zm4.042,0h-1.5v-7.68h1.5Zm-1.626-9.717a.728.728,0,0,1,.224-.539.908.908,0,0,1,.663-.22.923.923,0,0,1,.667.22.721.721,0,0,1,.228.539.7.7,0,0,1-.228.532.942.942,0,0,1-.667.213.927.927,0,0,1-.663-.213A.7.7,0,0,1,62.472,25.991Zm7.685,9.859a4.147,4.147,0,0,1-2.911-1.026,3.536,3.536,0,0,1-1.122-2.743V31.84a4.122,4.122,0,0,1,.5-2.041,3.594,3.594,0,0,1,1.4-1.405,3.894,3.894,0,0,1,1.948-.508,3.532,3.532,0,0,1,2.667.987,3.908,3.908,0,0,1,.951,2.825v.547H67.627a2.535,2.535,0,0,0,.76,1.835,2.562,2.562,0,0,0,1.85.7,2.929,2.929,0,0,0,1.35-.284,3.288,3.288,0,0,0,.968-.752l.919.625A3.873,3.873,0,0,1,70.156,35.85Zm-.187-6.885a2.152,2.152,0,0,0-1.529.578,2.642,2.642,0,0,0-.764,1.622h4.407v-.1a2.314,2.314,0,0,0-.618-1.551A2.028,2.028,0,0,0,69.969,28.965Zm6.782-.937.049.965a3.4,3.4,0,0,1,2.635-1.107,2.471,2.471,0,0,1,2.814,2.747v5.075h-1.5V30.626a1.626,1.626,0,0,0-.435-1.228,1.9,1.9,0,0,0-1.33-.4,2.4,2.4,0,0,0-1.285.341,2.425,2.425,0,0,0-.862.894v5.473h-1.5v-7.68Zm9.807-1.86v1.86H88.2v1.015H86.558v4.763a.97.97,0,0,0,.22.692,1,1,0,0,0,.748.231,4.145,4.145,0,0,0,.716-.085v1.065a4.957,4.957,0,0,1-1.155.142,2.016,2.016,0,0,1-1.521-.532,2.093,2.093,0,0,1-.512-1.512V29.043h-1.6V28.028h1.6v-1.86Zm7.05,9.682A4.147,4.147,0,0,1,90.7,34.824a3.536,3.536,0,0,1-1.122-2.743V31.84a4.122,4.122,0,0,1,.5-2.041,3.594,3.594,0,0,1,1.4-1.405,3.894,3.894,0,0,1,1.948-.508,3.532,3.532,0,0,1,2.667.987A3.908,3.908,0,0,1,97.04,31.7v.547H91.08a2.535,2.535,0,0,0,.76,1.835,2.562,2.562,0,0,0,1.85.7,2.929,2.929,0,0,0,1.35-.284,3.287,3.287,0,0,0,.968-.752l.919.625A3.873,3.873,0,0,1,93.609,35.85Zm-.187-6.885a2.152,2.152,0,0,0-1.529.578,2.642,2.642,0,0,0-.764,1.622h4.407v-.1a2.314,2.314,0,0,0-.618-1.551A2.028,2.028,0,0,0,93.422,28.965ZM103.9,33.671a.93.93,0,0,0-.459-.827,4.835,4.835,0,0,0-1.6-.508,8.371,8.371,0,0,1-1.813-.511,2.532,2.532,0,0,1-.992-.71,1.545,1.545,0,0,1-.321-.98,1.917,1.917,0,0,1,.915-1.6,3.928,3.928,0,0,1,2.338-.653,4.042,4.042,0,0,1,2.427.674,2.048,2.048,0,0,1,.931,1.725h-1.513a1.138,1.138,0,0,0-.525-.93,2.153,2.153,0,0,0-1.321-.39,2.278,2.278,0,0,0-1.285.312.947.947,0,0,0-.464.816.775.775,0,0,0,.431.717,5.832,5.832,0,0,0,1.557.461,8.958,8.958,0,0,1,1.826.525,2.619,2.619,0,0,1,1.037.735,1.642,1.642,0,0,1,.337,1.047,1.9,1.9,0,0,1-.943,1.65,4.376,4.376,0,0,1-2.448.621,4.991,4.991,0,0,1-1.87-.327,2.989,2.989,0,0,1-1.273-.912,2.012,2.012,0,0,1-.459-1.267h1.5a1.312,1.312,0,0,0,.606,1.047,2.6,2.6,0,0,0,1.492.387,2.7,2.7,0,0,0,1.37-.3A.907.907,0,0,0,103.9,33.671Zm7.221-1.867a4.11,4.11,0,0,1,.96-2.843,3.208,3.208,0,0,1,2.513-1.075,3.267,3.267,0,0,1,2.448.923v-4h1.5v10.9h-1.382l-.073-.823a3.272,3.272,0,0,1-2.513.965,3.169,3.169,0,0,1-2.492-1.093,4.156,4.156,0,0,1-.964-2.853Zm1.5.149A3.091,3.091,0,0,0,113.247,34a2.107,2.107,0,0,0,1.708.738,2.246,2.246,0,0,0,2.09-1.122V30.086A2.272,2.272,0,0,0,114.971,29a2.116,2.116,0,0,0-1.724.745A3.39,3.39,0,0,0,112.629,31.953Zm11.905,3.9a4.147,4.147,0,0,1-2.911-1.026,3.536,3.536,0,0,1-1.122-2.743V31.84A4.122,4.122,0,0,1,121,29.8a3.594,3.594,0,0,1,1.4-1.405,3.894,3.894,0,0,1,1.948-.508,3.532,3.532,0,0,1,2.667.987,3.908,3.908,0,0,1,.951,2.825v.547h-5.961a2.535,2.535,0,0,0,.76,1.835,2.562,2.562,0,0,0,1.85.7,2.929,2.929,0,0,0,1.35-.284,3.288,3.288,0,0,0,.968-.752l.919.625A3.873,3.873,0,0,1,124.534,35.85Zm-.187-6.885a2.152,2.152,0,0,0-1.529.578,2.642,2.642,0,0,0-.764,1.622h4.407v-.1a2.314,2.314,0,0,0-.618-1.551A2.028,2.028,0,0,0,124.347,28.965Zm11.523-2.8v1.86h1.643v1.015H135.87v4.763a.97.97,0,0,0,.22.692,1,1,0,0,0,.748.231,4.145,4.145,0,0,0,.716-.085v1.065a4.957,4.957,0,0,1-1.155.142,2.016,2.016,0,0,1-1.521-.532,2.093,2.093,0,0,1-.512-1.512V29.043h-1.6V28.028h1.6v-1.86Zm8.831,9.54a2.472,2.472,0,0,1-.211-.809,3.6,3.6,0,0,1-2.5.951,3.4,3.4,0,0,1-2.135-.642,1.974,1.974,0,0,1-.834-1.629,2.091,2.091,0,0,1,1.045-1.863,5.479,5.479,0,0,1,2.94-.664h1.464v-.6a1.377,1.377,0,0,0-.472-1.1,2.071,2.071,0,0,0-1.391-.408,2.423,2.423,0,0,0-1.35.355,1.02,1.02,0,0,0-.545.859H139.2a1.678,1.678,0,0,1,.468-1.111,3.176,3.176,0,0,1,1.269-.848,4.807,4.807,0,0,1,1.761-.312,3.82,3.82,0,0,1,2.383.664,2.265,2.265,0,0,1,.895,1.828v3.535a3.832,3.832,0,0,0,.309,1.682v.114Zm-2.5-1a2.944,2.944,0,0,0,1.342-.319,2.078,2.078,0,0,0,.919-.83V31.982h-1.179q-2.765,0-2.765,1.413a1.132,1.132,0,0,0,.472.965A1.989,1.989,0,0,0,142.2,34.707Zm7.758,1h-1.5v-10.9h1.5Zm7.27,0V29.043h-1.391V28.028h1.391V27.24a2.425,2.425,0,0,1,.756-1.909,3.106,3.106,0,0,1,2.139-.674,4.49,4.49,0,0,1,1.033.121l-.081,1.065a4.932,4.932,0,0,0-.813-.064,1.593,1.593,0,0,0-1.13.373,1.391,1.391,0,0,0-.4,1.068v.809h1.878v1.015h-1.878v6.665Zm4.643-3.911a4.061,4.061,0,0,1,.508-2.03,3.508,3.508,0,0,1,1.415-1.391,4.285,4.285,0,0,1,2.07-.49,3.979,3.979,0,0,1,2.907,1.086,3.858,3.858,0,0,1,1.11,2.889v.092a4.092,4.092,0,0,1-.492,2.012,3.453,3.453,0,0,1-1.407,1.388,4.334,4.334,0,0,1-2.1.5,3.969,3.969,0,0,1-2.9-1.086,3.84,3.84,0,0,1-1.11-2.875Zm1.513.156A3,3,0,0,0,164.068,34a2.514,2.514,0,0,0,3.639-.011,3.264,3.264,0,0,0,.675-2.2,2.994,2.994,0,0,0-.687-2.048,2.307,2.307,0,0,0-1.826-.784,2.282,2.282,0,0,0-1.8.774A3.242,3.242,0,0,0,163.389,31.953Zm12.637-2.747a5.151,5.151,0,0,0-.74-.05,2.015,2.015,0,0,0-2.009,1.1v5.451h-1.5v-7.68h1.464l.024.887a2.431,2.431,0,0,1,2.1-1.029,1.736,1.736,0,0,1,.667.1Zm2.8-1.178.041.852a3.476,3.476,0,0,1,2.61-.994,2.593,2.593,0,0,1,2.513,1.235,3.223,3.223,0,0,1,1.143-.894,3.778,3.778,0,0,1,1.663-.341q2.895,0,2.944,2.676v5.146h-1.5V30.64a1.62,1.62,0,0,0-.431-1.232A2.075,2.075,0,0,0,186.353,29a2.175,2.175,0,0,0-1.391.437,1.694,1.694,0,0,0-.642,1.175v5.1h-1.513V30.676q0-1.675-1.878-1.675a2.049,2.049,0,0,0-2.025,1.1v5.608h-1.5v-7.68Zm18.614,7.68a2.473,2.473,0,0,1-.211-.809,3.6,3.6,0,0,1-2.5.951,3.4,3.4,0,0,1-2.135-.642,1.974,1.974,0,0,1-.834-1.629,2.091,2.091,0,0,1,1.045-1.863,5.479,5.479,0,0,1,2.94-.664H197.2v-.6a1.377,1.377,0,0,0-.472-1.1,2.071,2.071,0,0,0-1.391-.408,2.423,2.423,0,0,0-1.35.355,1.02,1.02,0,0,0-.545.859h-1.513a1.678,1.678,0,0,1,.468-1.111,3.176,3.176,0,0,1,1.269-.848,4.807,4.807,0,0,1,1.761-.312,3.82,3.82,0,0,1,2.383.664,2.265,2.265,0,0,1,.895,1.828v3.535a3.832,3.832,0,0,0,.309,1.682v.114Zm-2.5-1a2.944,2.944,0,0,0,1.342-.319,2.078,2.078,0,0,0,.919-.83V31.982h-1.179q-2.765,0-2.765,1.413a1.132,1.132,0,0,0,.472.965A1.989,1.989,0,0,0,194.94,34.707ZM.751,53.61A4.115,4.115,0,0,1,1.7,50.746a3.27,3.27,0,0,1,2.553-1.054,3.3,3.3,0,0,1,2.464.916l.065-.774H8.167V60.467h-1.5V56.8a3.4,3.4,0,0,1-2.423.852A3.207,3.207,0,0,1,1.7,56.573,4.2,4.2,0,0,1,.751,53.7Zm1.5.149a3.1,3.1,0,0,0,.638,2.073,2.139,2.139,0,0,0,1.72.752,2.328,2.328,0,0,0,2.049-1.036V51.785A2.34,2.34,0,0,0,4.63,50.77a2.156,2.156,0,0,0-1.732.756A3.368,3.368,0,0,0,2.255,53.759Zm13.759,3a3.44,3.44,0,0,1-2.578.9,2.958,2.958,0,0,1-2.143-.713,2.836,2.836,0,0,1-.744-2.112v-5h1.5V54.8q0,1.746,1.626,1.746a2.32,2.32,0,0,0,2.293-1.122V49.834h1.5v7.68H16.047Zm7.4.9A4.147,4.147,0,0,1,20.5,56.63a3.536,3.536,0,0,1-1.122-2.743v-.241a4.122,4.122,0,0,1,.5-2.041,3.594,3.594,0,0,1,1.4-1.405,3.894,3.894,0,0,1,1.948-.508,3.532,3.532,0,0,1,2.667.987,3.908,3.908,0,0,1,.951,2.825v.547H20.885a2.535,2.535,0,0,0,.76,1.835,2.562,2.562,0,0,0,1.85.7,2.929,2.929,0,0,0,1.35-.284,3.287,3.287,0,0,0,.968-.752l.919.625A3.873,3.873,0,0,1,23.414,57.656Zm-.187-6.885a2.152,2.152,0,0,0-1.529.578,2.642,2.642,0,0,0-.764,1.622h4.407v-.1a2.314,2.314,0,0,0-.618-1.551A2.028,2.028,0,0,0,23.227,50.77Zm10.9-.937.049.965a3.4,3.4,0,0,1,2.635-1.107,2.471,2.471,0,0,1,2.814,2.747v5.075h-1.5V52.431A1.626,1.626,0,0,0,37.69,51.2a1.9,1.9,0,0,0-1.33-.4,2.4,2.4,0,0,0-1.285.341,2.426,2.426,0,0,0-.862.894v5.473h-1.5v-7.68ZM41.5,53.6a4.061,4.061,0,0,1,.508-2.03,3.508,3.508,0,0,1,1.415-1.391,4.285,4.285,0,0,1,2.07-.49A3.979,3.979,0,0,1,48.4,50.778a3.858,3.858,0,0,1,1.11,2.889v.092a4.092,4.092,0,0,1-.492,2.012,3.453,3.453,0,0,1-1.407,1.388,4.334,4.334,0,0,1-2.1.5,3.969,3.969,0,0,1-2.9-1.086,3.84,3.84,0,0,1-1.11-2.875Zm1.513.156a3,3,0,0,0,.679,2.051A2.514,2.514,0,0,0,47.33,55.8a3.264,3.264,0,0,0,.675-2.2,2.994,2.994,0,0,0-.687-2.048,2.307,2.307,0,0,0-1.826-.784,2.282,2.282,0,0,0-1.8.774A3.242,3.242,0,0,0,43.012,53.759Zm17.63,1.718a.93.93,0,0,0-.459-.827,4.835,4.835,0,0,0-1.6-.508,8.371,8.371,0,0,1-1.813-.511,2.533,2.533,0,0,1-.992-.71,1.545,1.545,0,0,1-.321-.98,1.917,1.917,0,0,1,.915-1.6,3.928,3.928,0,0,1,2.338-.653,4.042,4.042,0,0,1,2.427.674,2.048,2.048,0,0,1,.931,1.725H60.553a1.138,1.138,0,0,0-.525-.93,2.153,2.153,0,0,0-1.321-.39,2.278,2.278,0,0,0-1.285.312.947.947,0,0,0-.464.816.775.775,0,0,0,.431.717,5.832,5.832,0,0,0,1.557.461,8.958,8.958,0,0,1,1.826.525,2.619,2.619,0,0,1,1.037.735,1.642,1.642,0,0,1,.337,1.047,1.9,1.9,0,0,1-.943,1.65,4.376,4.376,0,0,1-2.448.621,4.991,4.991,0,0,1-1.87-.327,2.989,2.989,0,0,1-1.273-.912,2.012,2.012,0,0,1-.459-1.267h1.5a1.312,1.312,0,0,0,.606,1.047,2.6,2.6,0,0,0,1.492.387,2.7,2.7,0,0,0,1.37-.3A.907.907,0,0,0,60.642,55.477Zm7.115,2.179a4.147,4.147,0,0,1-2.911-1.026,3.536,3.536,0,0,1-1.122-2.743v-.241a4.122,4.122,0,0,1,.5-2.041,3.594,3.594,0,0,1,1.4-1.405,3.894,3.894,0,0,1,1.948-.508,3.532,3.532,0,0,1,2.667.987,3.908,3.908,0,0,1,.951,2.825v.547H65.229a2.535,2.535,0,0,0,.76,1.835,2.562,2.562,0,0,0,1.85.7,2.929,2.929,0,0,0,1.35-.284,3.288,3.288,0,0,0,.968-.752l.919.625A3.873,3.873,0,0,1,67.758,57.656Zm-.187-6.885a2.152,2.152,0,0,0-1.529.578,2.642,2.642,0,0,0-.764,1.622h4.407v-.1a2.314,2.314,0,0,0-.618-1.551A2.028,2.028,0,0,0,67.571,50.77Zm16.914,2.988a4.19,4.19,0,0,1-.919,2.825,3.108,3.108,0,0,1-2.488,1.072,3.477,3.477,0,0,1-2.521-.887v3.7h-1.5V49.834h1.374l.073.852a3.305,3.305,0,0,1,2.553-.994,3.179,3.179,0,0,1,2.509,1.043,4.233,4.233,0,0,1,.923,2.9Zm-1.5-.149a3.083,3.083,0,0,0-.634-2.051,2.155,2.155,0,0,0-1.74-.752,2.277,2.277,0,0,0-2.049,1.058v3.67a2.285,2.285,0,0,0,2.065,1.051,2.144,2.144,0,0,0,1.72-.749A3.353,3.353,0,0,0,82.98,53.61Zm7.668-2.6a5.152,5.152,0,0,0-.74-.05,2.015,2.015,0,0,0-2.009,1.1v5.451H86.4v-7.68H87.86l.024.887a2.431,2.431,0,0,1,2.1-1.029,1.736,1.736,0,0,1,.667.1ZM91.47,53.6a4.061,4.061,0,0,1,.508-2.03,3.508,3.508,0,0,1,1.415-1.391,4.285,4.285,0,0,1,2.07-.49,3.979,3.979,0,0,1,2.907,1.086,3.858,3.858,0,0,1,1.11,2.889v.092a4.092,4.092,0,0,1-.492,2.012,3.453,3.453,0,0,1-1.407,1.388,4.334,4.334,0,0,1-2.1.5,3.969,3.969,0,0,1-2.9-1.086,3.84,3.84,0,0,1-1.11-2.875Zm1.513.156a3,3,0,0,0,.679,2.051A2.514,2.514,0,0,0,97.3,55.8a3.264,3.264,0,0,0,.675-2.2,2.994,2.994,0,0,0-.687-2.048,2.307,2.307,0,0,0-1.826-.784,2.282,2.282,0,0,0-1.8.774A3.242,3.242,0,0,0,92.983,53.759ZM101,53.61a4.11,4.11,0,0,1,.96-2.843,3.207,3.207,0,0,1,2.513-1.075,3.267,3.267,0,0,1,2.448.923v-4h1.5v10.9h-1.382l-.073-.823a3.272,3.272,0,0,1-2.513.965,3.169,3.169,0,0,1-2.492-1.093A4.156,4.156,0,0,1,101,53.709Zm1.5.149a3.091,3.091,0,0,0,.618,2.044,2.107,2.107,0,0,0,1.708.738,2.246,2.246,0,0,0,2.09-1.122V51.892a2.272,2.272,0,0,0-2.074-1.086,2.116,2.116,0,0,0-1.724.745A3.39,3.39,0,0,0,102.505,53.759Zm13.686,3a3.44,3.44,0,0,1-2.578.9,2.958,2.958,0,0,1-2.143-.713,2.836,2.836,0,0,1-.744-2.112v-5h1.5V54.8q0,1.746,1.626,1.746a2.32,2.32,0,0,0,2.293-1.122V49.834h1.5v7.68h-1.431Zm5.164-.312H126.5v1.072h-6.985v-.965l4.855-5.629H119.59V49.834h6.668v.93Zm10.238.142A2.373,2.373,0,0,0,133,56.158a1.458,1.458,0,0,0,.667-1.065h1.423a2.2,2.2,0,0,1-.52,1.256,3.347,3.347,0,0,1-1.281.951,4.139,4.139,0,0,1-1.7.355,3.892,3.892,0,0,1-2.858-1.047,3.841,3.841,0,0,1-1.061-2.864v-.22a4.13,4.13,0,0,1,.472-1.995,3.311,3.311,0,0,1,1.354-1.356,4.282,4.282,0,0,1,2.086-.483,3.847,3.847,0,0,1,2.46.774,2.63,2.63,0,0,1,1.045,2.009h-1.423a1.723,1.723,0,0,0-.646-1.224,2.182,2.182,0,0,0-1.435-.479,2.235,2.235,0,0,0-1.777.72,3.072,3.072,0,0,0-.63,2.083v.248a3.013,3.013,0,0,0,.626,2.044A2.248,2.248,0,0,0,131.593,56.584Zm10.62.93A2.472,2.472,0,0,1,142,56.7a3.6,3.6,0,0,1-2.5.951,3.4,3.4,0,0,1-2.135-.642,1.974,1.974,0,0,1-.834-1.629,2.091,2.091,0,0,1,1.045-1.863,5.479,5.479,0,0,1,2.94-.664h1.464v-.6a1.377,1.377,0,0,0-.472-1.1,2.071,2.071,0,0,0-1.391-.408,2.423,2.423,0,0,0-1.35.355,1.02,1.02,0,0,0-.545.859h-1.513a1.678,1.678,0,0,1,.468-1.111A3.176,3.176,0,0,1,138.444,50a4.807,4.807,0,0,1,1.761-.312,3.82,3.82,0,0,1,2.383.664,2.265,2.265,0,0,1,.895,1.828v3.535a3.832,3.832,0,0,0,.309,1.682v.114Zm-2.5-1a2.944,2.944,0,0,0,1.342-.319,2.078,2.078,0,0,0,.919-.83V53.787H140.8q-2.765,0-2.765,1.413a1.132,1.132,0,0,0,.472.965A1.989,1.989,0,0,0,139.717,56.513Zm7.546-6.679.049.965a3.4,3.4,0,0,1,2.635-1.107,2.471,2.471,0,0,1,2.814,2.747v5.075h-1.5V52.431a1.625,1.625,0,0,0-.435-1.228,1.9,1.9,0,0,0-1.33-.4,2.4,2.4,0,0,0-1.285.341,2.426,2.426,0,0,0-.862.894v5.473h-1.5v-7.68ZM8.549,75.564a4.19,4.19,0,0,1-.919,2.825,3.108,3.108,0,0,1-2.488,1.072,3.477,3.477,0,0,1-2.521-.887v3.7h-1.5V71.639H2.491l.073.852A3.305,3.305,0,0,1,5.118,71.5,3.179,3.179,0,0,1,7.626,72.54a4.233,4.233,0,0,1,.923,2.9Zm-1.5-.149a3.083,3.083,0,0,0-.634-2.051,2.155,2.155,0,0,0-1.74-.752,2.277,2.277,0,0,0-2.049,1.058v3.67a2.285,2.285,0,0,0,2.065,1.051,2.144,2.144,0,0,0,1.72-.749A3.353,3.353,0,0,0,7.045,75.415Zm7.067,4.046A4.147,4.147,0,0,1,11.2,78.435a3.536,3.536,0,0,1-1.122-2.743v-.241a4.122,4.122,0,0,1,.5-2.041A3.594,3.594,0,0,1,11.977,72a3.894,3.894,0,0,1,1.948-.508,3.532,3.532,0,0,1,2.667.987,3.908,3.908,0,0,1,.951,2.825v.547H11.582a2.535,2.535,0,0,0,.76,1.835,2.562,2.562,0,0,0,1.85.7,2.929,2.929,0,0,0,1.35-.284,3.288,3.288,0,0,0,.968-.752l.919.625A3.873,3.873,0,0,1,14.112,79.461Zm-.187-6.885a2.152,2.152,0,0,0-1.529.578,2.642,2.642,0,0,0-.764,1.622h4.407v-.1a2.314,2.314,0,0,0-.618-1.551A2.028,2.028,0,0,0,13.924,72.576Zm.732-4.16h1.822L14.3,70.5H13.087Zm8.88,4.4a5.151,5.151,0,0,0-.74-.05,2.015,2.015,0,0,0-2.009,1.1v5.451h-1.5v-7.68h1.464l.024.887a2.431,2.431,0,0,1,2.1-1.029,1.736,1.736,0,0,1,.667.1Zm.862,2.6a4.11,4.11,0,0,1,.96-2.843A3.207,3.207,0,0,1,27.871,71.5a3.267,3.267,0,0,1,2.448.923v-4h1.5v10.9H30.44l-.073-.823a3.272,3.272,0,0,1-2.513.965,3.169,3.169,0,0,1-2.492-1.093,4.156,4.156,0,0,1-.964-2.853Zm1.5.149a3.091,3.091,0,0,0,.618,2.044,2.107,2.107,0,0,0,1.708.738,2.246,2.246,0,0,0,2.09-1.122V73.7a2.272,2.272,0,0,0-2.074-1.086,2.116,2.116,0,0,0-1.724.745A3.39,3.39,0,0,0,25.9,75.564Zm9.888,3.755h-1.5v-7.68h1.5ZM34.165,69.6a.728.728,0,0,1,.224-.539.908.908,0,0,1,.663-.22.923.923,0,0,1,.667.22.721.721,0,0,1,.228.539.7.7,0,0,1-.228.532.942.942,0,0,1-.667.213.927.927,0,0,1-.663-.213A.7.7,0,0,1,34.165,69.6Zm3.667,5.813a4.11,4.11,0,0,1,.96-2.843A3.207,3.207,0,0,1,41.3,71.5a3.267,3.267,0,0,1,2.448.923v-4h1.5v10.9H43.874L43.8,78.5a3.272,3.272,0,0,1-2.513.965A3.169,3.169,0,0,1,38.8,78.368a4.156,4.156,0,0,1-.964-2.853Zm1.5.149a3.091,3.091,0,0,0,.618,2.044,2.107,2.107,0,0,0,1.708.738,2.246,2.246,0,0,0,2.09-1.122V73.7a2.272,2.272,0,0,0-2.074-1.086,2.116,2.116,0,0,0-1.724.745A3.39,3.39,0,0,0,39.337,75.564Zm13.686,3.755a2.472,2.472,0,0,1-.211-.809,3.6,3.6,0,0,1-2.5.951,3.4,3.4,0,0,1-2.135-.642,1.974,1.974,0,0,1-.834-1.629,2.091,2.091,0,0,1,1.045-1.863,5.479,5.479,0,0,1,2.94-.664h1.464v-.6a1.377,1.377,0,0,0-.472-1.1,2.071,2.071,0,0,0-1.391-.408,2.423,2.423,0,0,0-1.35.355,1.02,1.02,0,0,0-.545.859H47.517a1.678,1.678,0,0,1,.468-1.111,3.176,3.176,0,0,1,1.269-.848,4.807,4.807,0,0,1,1.761-.312,3.82,3.82,0,0,1,2.383.664,2.265,2.265,0,0,1,.895,1.828v3.535a3.832,3.832,0,0,0,.309,1.682v.114Zm-2.5-1A2.944,2.944,0,0,0,51.868,78a2.078,2.078,0,0,0,.919-.83V75.593H51.608q-2.765,0-2.765,1.413a1.132,1.132,0,0,0,.472.965A1.989,1.989,0,0,0,50.526,78.318Zm11.246-1.036a.93.93,0,0,0-.459-.827,4.835,4.835,0,0,0-1.6-.508,8.371,8.371,0,0,1-1.813-.511,2.533,2.533,0,0,1-.992-.71,1.545,1.545,0,0,1-.321-.98,1.917,1.917,0,0,1,.915-1.6,3.928,3.928,0,0,1,2.338-.653,4.042,4.042,0,0,1,2.427.674A2.048,2.048,0,0,1,63.2,73.9H61.683a1.138,1.138,0,0,0-.525-.93,2.153,2.153,0,0,0-1.321-.39,2.278,2.278,0,0,0-1.285.312.947.947,0,0,0-.464.816.775.775,0,0,0,.431.717,5.831,5.831,0,0,0,1.557.461,8.958,8.958,0,0,1,1.826.525,2.619,2.619,0,0,1,1.037.735,1.642,1.642,0,0,1,.337,1.047,1.9,1.9,0,0,1-.943,1.65,4.376,4.376,0,0,1-2.448.621,4.991,4.991,0,0,1-1.87-.327,2.989,2.989,0,0,1-1.273-.912,2.012,2.012,0,0,1-.459-1.267h1.5A1.312,1.312,0,0,0,58.394,78a2.6,2.6,0,0,0,1.492.387,2.7,2.7,0,0,0,1.37-.3A.907.907,0,0,0,61.772,77.282Zm9.01-5.643.049.965A3.4,3.4,0,0,1,73.466,71.5a2.471,2.471,0,0,1,2.814,2.747v5.075h-1.5V74.237a1.625,1.625,0,0,0-.435-1.228,1.9,1.9,0,0,0-1.33-.4,2.4,2.4,0,0,0-1.285.341,2.426,2.426,0,0,0-.862.894v5.473h-1.5v-7.68Zm9.4,7.68h-1.5v-7.68h1.5ZM78.557,69.6a.728.728,0,0,1,.224-.539.908.908,0,0,1,.663-.22.923.923,0,0,1,.667.22.721.721,0,0,1,.228.539.7.7,0,0,1-.228.532.942.942,0,0,1-.667.213.927.927,0,0,1-.663-.213A.7.7,0,0,1,78.557,69.6Zm11.807,9.859a4.147,4.147,0,0,1-2.911-1.026,3.536,3.536,0,0,1-1.122-2.743v-.241a4.122,4.122,0,0,1,.5-2.041A3.594,3.594,0,0,1,88.23,72a3.894,3.894,0,0,1,1.948-.508,3.532,3.532,0,0,1,2.667.987,3.908,3.908,0,0,1,.951,2.825v.547H87.835a2.535,2.535,0,0,0,.76,1.835,2.562,2.562,0,0,0,1.85.7,2.929,2.929,0,0,0,1.35-.284,3.288,3.288,0,0,0,.968-.752l.919.625A3.873,3.873,0,0,1,90.364,79.461Zm-.187-6.885a2.152,2.152,0,0,0-1.529.578,2.642,2.642,0,0,0-.764,1.622h4.407v-.1a2.314,2.314,0,0,0-.618-1.551A2.028,2.028,0,0,0,90.177,72.576Zm6.782-.937.049.965A3.4,3.4,0,0,1,99.643,71.5a2.471,2.471,0,0,1,2.814,2.747v5.075h-1.5V74.237a1.625,1.625,0,0,0-.435-1.228,1.9,1.9,0,0,0-1.33-.4,2.4,2.4,0,0,0-1.285.341,2.426,2.426,0,0,0-.862.894v5.473h-1.5v-7.68Zm11.3,6.75a2.373,2.373,0,0,0,1.407-.426,1.458,1.458,0,0,0,.667-1.065h1.423a2.2,2.2,0,0,1-.52,1.256,3.347,3.347,0,0,1-1.281.951,4.139,4.139,0,0,1-1.7.355,3.892,3.892,0,0,1-2.858-1.047,3.841,3.841,0,0,1-1.061-2.864v-.22a4.13,4.13,0,0,1,.472-1.995,3.311,3.311,0,0,1,1.354-1.356,4.282,4.282,0,0,1,2.086-.483,3.847,3.847,0,0,1,2.46.774,2.63,2.63,0,0,1,1.045,2.009h-1.423a1.723,1.723,0,0,0-.646-1.224,2.182,2.182,0,0,0-1.435-.479,2.235,2.235,0,0,0-1.777.72,3.072,3.072,0,0,0-.63,2.083v.248a3.013,3.013,0,0,0,.626,2.044A2.248,2.248,0,0,0,108.254,78.389Zm4.79-2.981a4.061,4.061,0,0,1,.508-2.03,3.508,3.508,0,0,1,1.415-1.391,4.285,4.285,0,0,1,2.07-.49,3.979,3.979,0,0,1,2.907,1.086,3.858,3.858,0,0,1,1.11,2.889v.092a4.092,4.092,0,0,1-.492,2.012,3.453,3.453,0,0,1-1.407,1.388,4.334,4.334,0,0,1-2.1.5,3.969,3.969,0,0,1-2.9-1.086,3.84,3.84,0,0,1-1.11-2.875Zm1.513.156a3,3,0,0,0,.679,2.051,2.514,2.514,0,0,0,3.639-.011,3.264,3.264,0,0,0,.675-2.2,2.994,2.994,0,0,0-.687-2.048,2.307,2.307,0,0,0-1.826-.784,2.282,2.282,0,0,0-1.8.774A3.242,3.242,0,0,0,114.557,75.564Zm9.807-3.925.049.965a3.4,3.4,0,0,1,2.635-1.107,2.471,2.471,0,0,1,2.814,2.747v5.075h-1.5V74.237a1.626,1.626,0,0,0-.435-1.228,1.9,1.9,0,0,0-1.33-.4,2.4,2.4,0,0,0-1.285.341,2.426,2.426,0,0,0-.862.894v5.473h-1.5v-7.68Zm9.807-1.86v1.86h1.643v1.015h-1.643v4.763a.97.97,0,0,0,.22.692,1,1,0,0,0,.748.231,4.145,4.145,0,0,0,.716-.085v1.065a4.957,4.957,0,0,1-1.155.142,2.016,2.016,0,0,1-1.521-.532,2.093,2.093,0,0,1-.512-1.512V72.654h-1.6V71.639h1.6v-1.86Zm7.652,3.038a5.151,5.151,0,0,0-.74-.05,2.015,2.015,0,0,0-2.009,1.1v5.451h-1.5v-7.68h1.464l.024.887a2.431,2.431,0,0,1,2.1-1.029,1.736,1.736,0,0,1,.667.1Zm4.879,6.644a4.147,4.147,0,0,1-2.911-1.026,3.536,3.536,0,0,1-1.122-2.743v-.241a4.122,4.122,0,0,1,.5-2.041,3.594,3.594,0,0,1,1.4-1.405,3.894,3.894,0,0,1,1.948-.508,3.532,3.532,0,0,1,2.667.987,3.908,3.908,0,0,1,.951,2.825v.547h-5.961a2.535,2.535,0,0,0,.76,1.835,2.562,2.562,0,0,0,1.85.7,2.929,2.929,0,0,0,1.35-.284,3.288,3.288,0,0,0,.968-.752l.919.625A3.873,3.873,0,0,1,146.7,79.461Zm-.187-6.885a2.152,2.152,0,0,0-1.529.578,2.642,2.642,0,0,0-.764,1.622h4.408v-.1a2.314,2.314,0,0,0-.618-1.551A2.028,2.028,0,0,0,146.515,72.576Zm6.774-.937.041.852a3.476,3.476,0,0,1,2.61-.994,2.593,2.593,0,0,1,2.513,1.235,3.223,3.223,0,0,1,1.143-.894,3.778,3.778,0,0,1,1.663-.341q2.895,0,2.944,2.676v5.146h-1.5V74.251a1.62,1.62,0,0,0-.431-1.232,2.075,2.075,0,0,0-1.447-.408,2.175,2.175,0,0,0-1.391.437,1.694,1.694,0,0,0-.642,1.175v5.1h-1.513V74.287q0-1.675-1.878-1.675a2.049,2.049,0,0,0-2.025,1.1v5.608h-1.5v-7.68Zm12.783,3.769a4.061,4.061,0,0,1,.508-2.03A3.508,3.508,0,0,1,168,71.987a4.285,4.285,0,0,1,2.07-.49,3.979,3.979,0,0,1,2.907,1.086,3.858,3.858,0,0,1,1.11,2.889v.092a4.092,4.092,0,0,1-.492,2.012,3.453,3.453,0,0,1-1.407,1.388,4.334,4.334,0,0,1-2.1.5,3.968,3.968,0,0,1-2.9-1.086,3.84,3.84,0,0,1-1.11-2.875Zm1.513.156a3,3,0,0,0,.679,2.051A2.514,2.514,0,0,0,171.9,77.6a3.264,3.264,0,0,0,.675-2.2,2.994,2.994,0,0,0-.687-2.048,2.307,2.307,0,0,0-1.826-.784,2.282,2.282,0,0,0-1.8.774A3.242,3.242,0,0,0,167.585,75.564Zm13.507,1.718a.93.93,0,0,0-.459-.827,4.835,4.835,0,0,0-1.6-.508,8.371,8.371,0,0,1-1.813-.511,2.533,2.533,0,0,1-.992-.71,1.545,1.545,0,0,1-.321-.98,1.917,1.917,0,0,1,.915-1.6,3.928,3.928,0,0,1,2.338-.653,4.042,4.042,0,0,1,2.427.674,2.048,2.048,0,0,1,.931,1.725H181a1.138,1.138,0,0,0-.525-.93,2.153,2.153,0,0,0-1.321-.39,2.279,2.279,0,0,0-1.285.312.947.947,0,0,0-.464.816.775.775,0,0,0,.431.717,5.831,5.831,0,0,0,1.557.461,8.959,8.959,0,0,1,1.826.525,2.619,2.619,0,0,1,1.037.735,1.642,1.642,0,0,1,.337,1.047,1.9,1.9,0,0,1-.943,1.65,4.376,4.376,0,0,1-2.448.621,4.991,4.991,0,0,1-1.87-.327,2.989,2.989,0,0,1-1.273-.912,2.012,2.012,0,0,1-.459-1.267h1.5A1.312,1.312,0,0,0,177.713,78a2.6,2.6,0,0,0,1.492.387,2.7,2.7,0,0,0,1.37-.3A.907.907,0,0,0,181.092,77.282ZM6.549,101.125a2.473,2.473,0,0,1-.211-.809,3.6,3.6,0,0,1-2.5.951,3.4,3.4,0,0,1-2.135-.642A1.974,1.974,0,0,1,.865,99,2.091,2.091,0,0,1,1.91,97.132a5.479,5.479,0,0,1,2.94-.664H6.313v-.6a1.377,1.377,0,0,0-.472-1.1,2.071,2.071,0,0,0-1.391-.408,2.423,2.423,0,0,0-1.35.355,1.02,1.02,0,0,0-.545.859H1.044a1.678,1.678,0,0,1,.468-1.111,3.176,3.176,0,0,1,1.269-.848A4.807,4.807,0,0,1,4.54,93.3a3.82,3.82,0,0,1,2.383.664,2.265,2.265,0,0,1,.895,1.828v3.535a3.832,3.832,0,0,0,.309,1.682v.114Zm-2.5-1A2.944,2.944,0,0,0,5.394,99.8a2.078,2.078,0,0,0,.919-.83V97.4H5.134q-2.765,0-2.765,1.413a1.132,1.132,0,0,0,.472.965A1.989,1.989,0,0,0,4.052,100.124ZM11.6,93.444l.049.965A3.4,3.4,0,0,1,14.282,93.3,2.471,2.471,0,0,1,17.1,96.049v5.075h-1.5V96.042a1.626,1.626,0,0,0-.435-1.228,1.9,1.9,0,0,0-1.33-.4,2.4,2.4,0,0,0-1.285.341,2.426,2.426,0,0,0-.862.894v5.473h-1.5v-7.68Zm7.367,3.769a4.061,4.061,0,0,1,.508-2.03,3.508,3.508,0,0,1,1.415-1.391,4.285,4.285,0,0,1,2.07-.49,3.979,3.979,0,0,1,2.907,1.086,3.858,3.858,0,0,1,1.11,2.889v.092a4.092,4.092,0,0,1-.492,2.012,3.453,3.453,0,0,1-1.407,1.388,4.334,4.334,0,0,1-2.1.5,3.969,3.969,0,0,1-2.9-1.086,3.84,3.84,0,0,1-1.11-2.875Zm1.513.156a3,3,0,0,0,.679,2.051A2.514,2.514,0,0,0,24.8,99.41a3.264,3.264,0,0,0,.675-2.2,2.994,2.994,0,0,0-.687-2.048,2.307,2.307,0,0,0-1.826-.784,2.282,2.282,0,0,0-1.8.774A3.242,3.242,0,0,0,20.479,97.37Zm9.8-3.925.041.852a3.476,3.476,0,0,1,2.61-.994,2.593,2.593,0,0,1,2.513,1.235,3.223,3.223,0,0,1,1.143-.894,3.778,3.778,0,0,1,1.663-.341q2.895,0,2.944,2.676v5.146h-1.5V96.057a1.62,1.62,0,0,0-.431-1.232,2.075,2.075,0,0,0-1.447-.408,2.175,2.175,0,0,0-1.391.437,1.694,1.694,0,0,0-.642,1.175v5.1H34.262V96.092q0-1.675-1.878-1.675a2.049,2.049,0,0,0-2.025,1.1v5.608h-1.5v-7.68Zm18.614,7.68a2.473,2.473,0,0,1-.211-.809,3.6,3.6,0,0,1-2.5.951,3.4,3.4,0,0,1-2.135-.642A1.974,1.974,0,0,1,43.207,99a2.091,2.091,0,0,1,1.045-1.863,5.479,5.479,0,0,1,2.94-.664h1.464v-.6a1.377,1.377,0,0,0-.472-1.1,2.071,2.071,0,0,0-1.391-.408,2.423,2.423,0,0,0-1.35.355,1.02,1.02,0,0,0-.545.859H43.386a1.678,1.678,0,0,1,.468-1.111,3.176,3.176,0,0,1,1.269-.848,4.807,4.807,0,0,1,1.761-.312,3.82,3.82,0,0,1,2.383.664,2.265,2.265,0,0,1,.895,1.828v3.535a3.832,3.832,0,0,0,.309,1.682v.114Zm-2.5-1a2.944,2.944,0,0,0,1.342-.319,2.078,2.078,0,0,0,.919-.83V97.4H47.477q-2.765,0-2.765,1.413a1.132,1.132,0,0,0,.472.965A1.989,1.989,0,0,0,46.4,100.124Zm7.758,1h-1.5v-10.9h1.5Zm4.042,0H56.682v-7.68h1.513Zm.016-10.9h1.822l-2.179,2.087H56.641Zm7.9,10.9a2.473,2.473,0,0,1-.211-.809,3.6,3.6,0,0,1-2.5.951,3.4,3.4,0,0,1-2.135-.642A1.974,1.974,0,0,1,60.423,99a2.091,2.091,0,0,1,1.045-1.863,5.479,5.479,0,0,1,2.94-.664h1.464v-.6a1.377,1.377,0,0,0-.472-1.1,2.071,2.071,0,0,0-1.391-.408,2.423,2.423,0,0,0-1.35.355,1.02,1.02,0,0,0-.545.859H60.6a1.678,1.678,0,0,1,.468-1.111,3.176,3.176,0,0,1,1.269-.848A4.807,4.807,0,0,1,64.1,93.3a3.82,3.82,0,0,1,2.383.664,2.265,2.265,0,0,1,.895,1.828v3.535a3.832,3.832,0,0,0,.309,1.682v.114Zm-2.5-1a2.944,2.944,0,0,0,1.342-.319,2.078,2.078,0,0,0,.919-.83V97.4H64.692q-2.765,0-2.765,1.413a1.132,1.132,0,0,0,.472.965A1.989,1.989,0,0,0,63.61,100.124Zm11.246-1.036a.93.93,0,0,0-.459-.827,4.835,4.835,0,0,0-1.6-.508,8.371,8.371,0,0,1-1.813-.511,2.532,2.532,0,0,1-.992-.71,1.545,1.545,0,0,1-.321-.98,1.917,1.917,0,0,1,.915-1.6,3.928,3.928,0,0,1,2.338-.653,4.042,4.042,0,0,1,2.427.674A2.048,2.048,0,0,1,76.28,95.7H74.767a1.138,1.138,0,0,0-.524-.93,2.153,2.153,0,0,0-1.321-.39,2.278,2.278,0,0,0-1.285.312.947.947,0,0,0-.464.816.775.775,0,0,0,.431.717,5.832,5.832,0,0,0,1.557.461,8.959,8.959,0,0,1,1.826.525,2.619,2.619,0,0,1,1.037.735A1.642,1.642,0,0,1,76.361,99a1.9,1.9,0,0,1-.943,1.65,4.376,4.376,0,0,1-2.448.621,4.991,4.991,0,0,1-1.87-.327,2.989,2.989,0,0,1-1.273-.912,2.012,2.012,0,0,1-.459-1.267h1.5a1.312,1.312,0,0,0,.606,1.047,2.6,2.6,0,0,0,1.492.387,2.7,2.7,0,0,0,1.37-.3A.907.907,0,0,0,74.857,99.087Zm5.229-.873a3.755,3.755,0,0,1,.22-1.334,3.422,3.422,0,0,1,.829-1.086l1.065-.958a2.017,2.017,0,0,0,.683-1.448,1.529,1.529,0,0,0-.447-1.168,1.826,1.826,0,0,0-1.3-.422,2.147,2.147,0,0,0-1.334.383,1.227,1.227,0,0,0-.5,1.029h-1.5a2.27,2.27,0,0,1,.939-1.856,3.846,3.846,0,0,1,2.4-.706,3.616,3.616,0,0,1,2.395.72,2.444,2.444,0,0,1,.858,1.977,3.4,3.4,0,0,1-1.317,2.449l-.886.767a2.2,2.2,0,0,0-.594,1.654Zm-.065,2.25a.716.716,0,0,1,.224-.536.917.917,0,0,1,.663-.216.932.932,0,0,1,.667.216.71.71,0,0,1,.228.536.688.688,0,0,1-.228.529.953.953,0,0,1-.667.209.937.937,0,0,1-.663-.209A.694.694,0,0,1,80.02,100.465Z" transform="translate(1201.667 564.4)" fill="#12263f"/>
      <path id="Trazado_131112" data-name="Trazado 131112" d="M14.341-8.335h2.168v3.809H14.341V0H9.4V-4.526H1.157L.864-7.544,9.4-21.284v-.044h4.937Zm-8.774,0H9.4V-14.9l-.308.5Z" transform="translate(1270.005 521.399)" fill="#fff"/>
    </g>
  </g>
</svg>
