<svg xmlns="http://www.w3.org/2000/svg" width="172" height="154" viewBox="0 0 172 154">
  <g id="Grupo_78308" data-name="Grupo 78308" transform="translate(-259 -547)">
    <g id="Grupo_78307" data-name="Grupo 78307">
      <g id="Grupo_55930" data-name="Grupo 55930" transform="translate(0 89)">
        <g id="Right" transform="translate(259.273 457.992)">
          <g id="Grupo_78306" data-name="Grupo 78306">
            <rect id="BG" width="172" height="154" transform="translate(-0.273 0.008)" fill="#fff" opacity="0.949"/>
          </g>
        </g>
      </g>
    </g>
    <g id="merchandise" transform="translate(289 551.953)">
      <path id="Trazado_131142" data-name="Trazado 131142" d="M116.731,53.5a.6.6,0,0,0,0-.852L98.6,34.525a23.824,23.824,0,0,0-16.846-6.978H42.65A23.825,23.825,0,0,0,25.8,34.525L7.677,52.652a.6.6,0,0,0,0,.852L22.708,68.535a.6.6,0,0,0,.852,0l8.192-8.192a.6.6,0,0,1,1.029.426V87.848H45.4a14.646,14.646,0,0,1,14.646,14.646v10.377l6.229,5.5a3.907,3.907,0,0,1,1.305,2.4h9.63l2.809-32.11a.888.888,0,0,1,.884-.81H91.626V60.769a.6.6,0,0,1,1.029-.426l8.192,8.192a.6.6,0,0,0,.852,0Z" transform="translate(-5.849 -5.849)" fill="#daf1f4"/>
      <g id="Grupo_73893" data-name="Grupo 73893" transform="translate(58.083 22.472)">
        <path id="Trazado_131143" data-name="Trazado 131143" d="M354.706,171.7a2.958,2.958,0,0,0-5.05,2.092V199.59h8.805V175.459Z" transform="translate(-330.767 -140.063)" fill="#b9e4ef"/>
        <path id="Trazado_131144" data-name="Trazado 131144" d="M401.134,55.392,383.007,37.266a23.824,23.824,0,0,0-10.824-6.2,23.845,23.845,0,0,1,2.019,1.8l9.68,9.68a12.548,12.548,0,0,1,0,17.746L379.073,65.1l6.178,6.178a.6.6,0,0,0,.852,0l15.031-15.031A.6.6,0,0,0,401.134,55.392Z" transform="translate(-348.335 -31.061)" fill="#b9e4ef"/>
        <path id="Trazado_131145" data-name="Trazado 131145" d="M263.85,403.939l2.345,2.071a3.907,3.907,0,0,1,1.305,2.4h9.63l1.052-12.029A20.486,20.486,0,0,1,263.85,403.939Z" transform="translate(-263.85 -315.958)" fill="#b9e4ef"/>
      </g>
      <path id="Trazado_131146" data-name="Trazado 131146" d="M86.879,326.5l-4.653.726a115.75,115.75,0,0,1-35.667,0L41.9,326.5V316.119a14.646,14.646,0,0,1,14.646-14.646H72.233a14.646,14.646,0,0,1,14.646,14.646Z" transform="translate(-32.68 -219.474)" fill="#7ad0df"/>
      <path id="Trazado_131147" data-name="Trazado 131147" d="M74,301.951a14.6,14.6,0,0,1,4.076,10.138v5.668a5.5,5.5,0,0,1-4.653,5.435,115.757,115.757,0,0,1-31.515.571v3.107l4.653.726a115.752,115.752,0,0,0,35.667,0l4.653-.726V316.492A14.649,14.649,0,0,0,74,301.951Z" transform="translate(-32.68 -219.847)" fill="#70c6da"/>
      <path id="Trazado_131148" data-name="Trazado 131148" d="M131.9,281.956h-9.559v-2.613a2.9,2.9,0,0,1,2.9-2.9h3.766a2.9,2.9,0,0,1,2.9,2.9v2.613Z" transform="translate(-95.411 -199.957)" fill="#dd5790"/>
      <path id="Trazado_131149" data-name="Trazado 131149" d="M66.276,420.646l-6.229-5.5-4.653.726a115.748,115.748,0,0,1-35.667,0l-4.653-.726-6.229,5.5A3.969,3.969,0,0,0,10.62,427.5a125.566,125.566,0,0,0,53.88,0A3.969,3.969,0,0,0,66.276,420.646Z" transform="translate(-5.848 -308.123)" fill="#ecedd6"/>
      <path id="Trazado_131150" data-name="Trazado 131150" d="M66.444,420.646l-6.229-5.5-3.247.506.671.592a3.969,3.969,0,0,1-1.776,6.852,125.566,125.566,0,0,1-48.148,1.12,3.938,3.938,0,0,0,3.074,3.283,125.566,125.566,0,0,0,53.88,0A3.969,3.969,0,0,0,66.444,420.646Z" transform="translate(-6.017 -308.123)" fill="#b2b555"/>
      <path id="Trazado_131151" data-name="Trazado 131151" d="M207.547,27.547H169.436a19.056,19.056,0,1,0,38.111,0Z" transform="translate(-132.137 -5.849)" fill="#f3f095"/>
      <path id="Trazado_131152" data-name="Trazado 131152" d="M221.54,27.547a13.553,13.553,0,0,1-27.105,0Z" transform="translate(-151.633 -5.849)" fill="#529ad9"/>
      <path id="Trazado_131153" data-name="Trazado 131153" d="M115.658,327.23l1.329,4.09a.567.567,0,0,0,.539.392h4.3a1.1,1.1,0,0,1,.644,1.983l-3.479,2.528a.567.567,0,0,0-.206.634l1.329,4.09a1.1,1.1,0,0,1-1.687,1.226l-3.479-2.528a.567.567,0,0,0-.667,0l-3.479,2.528a1.1,1.1,0,0,1-1.687-1.226l1.329-4.09a.567.567,0,0,0-.206-.634l-3.479-2.528a1.1,1.1,0,0,1,.644-1.983h4.3a.567.567,0,0,0,.539-.392l1.329-4.09a1.1,1.1,0,0,1,2.086,0Z" transform="translate(-82.903 -237.324)" fill="#a0a603"/>
      <path id="Trazado_131154" data-name="Trazado 131154" d="M208.166,155.946l2.239,6.889a.955.955,0,0,0,.908.66h7.244a1.847,1.847,0,0,1,1.085,3.341l-5.86,4.258a.955.955,0,0,0-.347,1.068l2.239,6.889a1.847,1.847,0,0,1-2.842,2.065l-5.86-4.258a.955.955,0,0,0-1.123,0l-5.86,4.258a1.847,1.847,0,0,1-2.842-2.065l2.239-6.889a.955.955,0,0,0-.347-1.068l-5.86-4.258a1.847,1.847,0,0,1,1.085-3.341h7.244a.955.955,0,0,0,.909-.66l2.239-6.889a1.847,1.847,0,0,1,3.513,0Z" transform="translate(-150.055 -104.988)" fill="#e5dec1"/>
      <path id="Trazado_131155" data-name="Trazado 131155" d="M359.282,341.077H322.776a.887.887,0,0,1-.884-.965l3.309-37.828a.888.888,0,0,1,.884-.81h29.887a.888.888,0,0,1,.884.81l3.31,37.828A.887.887,0,0,1,359.282,341.077Z" transform="translate(-251.029 -219.474)" fill="#d8d9bc"/>
      <path id="Trazado_131156" data-name="Trazado 131156" d="M360.166,340.112l-3.31-37.828a.888.888,0,0,0-.884-.81h-7.607l2.316,26.468a8.033,8.033,0,0,1-8,8.733H322.193l-.3,3.438a.888.888,0,0,0,.884.965h36.506A.888.888,0,0,0,360.166,340.112Z" transform="translate(-251.03 -219.474)" fill="#f7f5ed"/>
      <path id="Trazado_131157" data-name="Trazado 131157" d="M377.171,347.8l1.482,4.561a.632.632,0,0,0,.6.437h4.8a1.223,1.223,0,0,1,.719,2.212l-3.88,2.819a.633.633,0,0,0-.23.707l1.482,4.561a1.223,1.223,0,0,1-1.882,1.367l-3.88-2.819a.632.632,0,0,0-.744,0l-3.88,2.819a1.223,1.223,0,0,1-1.882-1.367l1.482-4.561a.632.632,0,0,0-.23-.707l-3.88-2.819a1.223,1.223,0,0,1,.719-2.212h4.8a.632.632,0,0,0,.6-.437l1.482-4.561A1.223,1.223,0,0,1,377.171,347.8Z" transform="translate(-286.009 -254.943)" fill="#f4dd45"/>
      <path id="Trazado_131158" data-name="Trazado 131158" d="M448.716,376.341a1.23,1.23,0,0,0-.164-1.875Z" transform="translate(-349.81 -276.399)" fill="#f1d333"/>
      <path id="Trazado_131159" data-name="Trazado 131159" d="M105.929,337.658l2.842-2.065,2.842,2.065a2.747,2.747,0,0,0,4.228-3.072l-1.085-3.341,2.842-2.065a2.747,2.747,0,0,0-1.615-4.97h-3.513l-1.085-3.341h0a2.747,2.747,0,0,0-5.226,0l-1.085,3.341H101.56a2.747,2.747,0,0,0-1.615,4.97l2.842,2.065-1.086,3.341a2.747,2.747,0,0,0,4.228,3.071Zm2.314-15.768v0Zm-2.383,5.622a2.213,2.213,0,0,0,2.11-1.533l.8-2.466.8,2.466a2.212,2.212,0,0,0,2.11,1.533h2.593l-2.1,1.524a2.213,2.213,0,0,0-.806,2.48l.8,2.466-2.1-1.524a2.212,2.212,0,0,0-2.608,0l-2.1,1.524.8-2.466a2.212,2.212,0,0,0-.806-2.48l-2.1-1.524Z" transform="translate(-77.059 -233.121)"/>
      <path id="Trazado_131160" data-name="Trazado 131160" d="M212.7,156h-6.738l-2.082-6.409a3.5,3.5,0,0,0-6.653,0L195.143,156H188.4a3.5,3.5,0,0,0-2.056,6.327l5.451,3.961-2.082,6.409A3.5,3.5,0,0,0,195.1,176.6l5.451-3.961L206,176.6a3.5,3.5,0,0,0,5.382-3.911l-2.082-6.409,5.451-3.96A3.5,3.5,0,0,0,212.7,156Zm.115,3.656-5.86,4.258a2.6,2.6,0,0,0-.947,2.914l2.238,6.889a.2.2,0,0,1-.3.219l-5.86-4.258a2.6,2.6,0,0,0-3.064,0l-5.86,4.258a.2.2,0,0,1-.3-.219l2.238-6.889a2.6,2.6,0,0,0-.947-2.914l-5.86-4.258a.2.2,0,0,1,.115-.354h7.244a2.6,2.6,0,0,0,2.479-1.8l2.239-6.889a.2.2,0,0,1,.372,0l2.239,6.89a2.6,2.6,0,0,0,2.479,1.8H212.7a.2.2,0,0,1,.115.354Z" transform="translate(-144.197 -99.14)"/>
      <path id="Trazado_131161" data-name="Trazado 131161" d="M360.434,350.494l3.281,2.384-1.253,3.857a2.874,2.874,0,0,0,4.422,3.213l3.281-2.384,3.281,2.384a2.874,2.874,0,0,0,4.422-3.213l-1.253-3.857,3.28-2.384a2.874,2.874,0,0,0-1.689-5.2h-4.056l-1.253-3.857h0a2.874,2.874,0,0,0-5.466,0l-1.253,3.857h-4.056a2.874,2.874,0,0,0-1.689,5.2Zm6.484-1.9a2.277,2.277,0,0,0,2.172-1.578l1.075-3.307,1.074,3.307a2.278,2.278,0,0,0,2.172,1.578h3.477l-2.814,2.044a2.278,2.278,0,0,0-.829,2.553l1.074,3.307-2.813-2.044a2.279,2.279,0,0,0-2.684,0l-2.813,2.044,1.074-3.307a2.279,2.279,0,0,0-.83-2.553l-2.813-2.044Z" transform="translate(-280.165 -249.094)"/>
      <path id="Trazado_131162" data-name="Trazado 131162" d="M93.831,63.854a2.256,2.256,0,0,0,3.187,0l15.031-15.031a2.254,2.254,0,0,0,0-3.187L93.922,27.509a25.31,25.31,0,0,0-18.014-7.462H36.8a25.309,25.309,0,0,0-18.014,7.462L.66,45.635a2.254,2.254,0,0,0,0,3.187L15.691,63.853a2.257,2.257,0,0,0,3.187,0l6.4-6.4v22.9h-1.41a16.316,16.316,0,0,0-16.3,16.3v9.633L1.9,111.286a5.621,5.621,0,0,0,2.515,9.7,128.093,128.093,0,0,0,54.588,0,5.6,5.6,0,0,0,4.312-4.418h6.243l-.343,3.923a2.539,2.539,0,0,0,2.529,2.76h36.506a2.539,2.539,0,0,0,2.529-2.76l-3.31-37.829a2.525,2.525,0,0,0-2.529-2.317h-3.57A11.385,11.385,0,0,0,87.428,69.622V57.451ZM41.714,25.808a1.651,1.651,0,1,0,3.179-.89,11.86,11.86,0,0,1-.326-1.569H68.142a11.9,11.9,0,0,1-19.785,7.163,1.651,1.651,0,0,0-2.22,2.445,15.2,15.2,0,0,0,25.332-9.608h2.213a17.406,17.406,0,0,1-34.654,0H41.24a15.147,15.147,0,0,0,.473,2.459Zm4.148,59.478a13.005,13.005,0,0,1,6.686,11.358v8.964l-2.63.41v-8.1a20.576,20.576,0,0,0-4.056-12.634ZM34.84,80.348H28.583v-.961a1.247,1.247,0,0,1,1.246-1.246h3.766a1.247,1.247,0,0,1,1.246,1.246v.961Zm-23.965,16.3a13.005,13.005,0,0,1,6.686-11.358A20.577,20.577,0,0,0,13.505,97.92v8.1l-2.63-.41ZM60.044,116.08a2.279,2.279,0,0,1-1.747,1.683,124.767,124.767,0,0,1-53.171,0,2.318,2.318,0,0,1-1.037-4l5.648-4.988,3.887.606c2.276.355,4.592.646,6.885.866a1.651,1.651,0,0,0,.315-3.287c-1.335-.128-2.679-.281-4.017-.457V97.92c0-7.869,4.518-14.271,10.071-14.271h9.666c5.553,0,10.071,6.4,10.071,14.271v8.58a114.451,114.451,0,0,1-18.111.933,1.651,1.651,0,0,0-.093,3.3A117.711,117.711,0,0,0,49.8,109.379l3.887-.606,5.648,4.988a2.289,2.289,0,0,1,.76,1.365c0,.019.005.037.008.055A2.354,2.354,0,0,1,60.044,116.08ZM90,72.631a8.087,8.087,0,0,1,8.069,7.716H87.428v-7.3A8.037,8.037,0,0,1,90,72.631Zm-8.069,7.716a8.048,8.048,0,0,1,2.2-5.178v5.178Zm-3.3,0h-3.57a2.525,2.525,0,0,0-2.529,2.318l-.805,9.2a1.651,1.651,0,0,0,3.289.288l.744-8.5h28.488l3.176,36.3H72.579l.426-4.865c0-.014,0-.028,0-.042l1.3-14.845a1.651,1.651,0,0,0-3.289-.288L69.85,113.268H62.963a5.629,5.629,0,0,0-1.443-1.982l-5.671-5.009V96.644a16.316,16.316,0,0,0-16.3-16.3h-1.41v-.961a4.553,4.553,0,0,0-4.548-4.548H29.829a4.536,4.536,0,0,0-1.246.173V36.749a1.651,1.651,0,1,0-3.3,0V52.924a2.268,2.268,0,0,0-.545.4l-7.451,7.451L3.736,47.229,21.121,29.844a22.014,22.014,0,0,1,14.593-6.469,20.708,20.708,0,0,0,41.279,0,22.011,22.011,0,0,1,14.593,6.469l17.385,17.385L95.424,60.777l-7.451-7.452a2.261,2.261,0,0,0-.545-.4V36.749a1.651,1.651,0,1,0-3.3,0V70.966a11.387,11.387,0,0,0-5.5,9.382Z"/>
    </g>
  </g>
</svg>
