<svg xmlns="http://www.w3.org/2000/svg" width="141" height="102" viewBox="0 0 141 102">
  <g id="Grupo_77668" data-name="Grupo 77668" transform="translate(-467 -7882)">
    <g id="XMLID_816_" transform="translate(494 7888.137)">
      <g id="XMLID_1455_" transform="translate(1.717 12.363)">
        <path id="XMLID_1522_" d="M10,345.117H89.292v5.641a5.157,5.157,0,0,1-5.157,5.157H15.157A5.157,5.157,0,0,1,10,350.758Z" transform="translate(-10 -298.219)" fill="#72d8ff"/>
        <path id="XMLID_1521_" d="M10,77.157A5.157,5.157,0,0,1,15.157,72H84.134a5.157,5.157,0,0,1,5.157,5.157V118.9H10Z" transform="translate(-10 -72)" fill="#fff"/>
        <path id="XMLID_1500_" d="M148.928,468.869h31.6v-2.4A4.471,4.471,0,0,0,176.053,462H153.4a4.471,4.471,0,0,0-4.471,4.471Z" transform="translate(-125.072 -395.032)" fill="#72d8ff"/>
        <rect id="XMLID_1497_" width="10.99" height="9.273" transform="translate(34.159 57.696)" fill="#c9f3ff"/>
      </g>
      <g id="XMLID_1469_" transform="translate(44.989 1.717)">
        <path id="XMLID_1468_" d="M303.209,34.29V26.919h-3.972a16.927,16.927,0,0,0-2.265-5.471,0,0,0,0,1,0,0l2.807-2.807h0l-5.212-5.212h0l-2.807,2.807h0a16.921,16.921,0,0,0-5.471-2.265V10h-7.371v3.976a16.924,16.924,0,0,0-5.463,2.268h0l-2.815-2.815h0l-5.212,5.212h0l2.82,2.82a0,0,0,0,1,0,0,16.926,16.926,0,0,0-2.257,5.458H262V34.29h4a16.925,16.925,0,0,0,2.26,5.45,0,0,0,0,1,0,0l-2.828,2.828h0l5.212,5.212h0l2.828-2.828h0a16.924,16.924,0,0,0,5.45,2.26v4h7.371V47.217a16.92,16.92,0,0,0,5.458-2.256h0l2.82,2.82h0l5.212-5.212h0l-2.815-2.815a0,0,0,0,1,0,0,16.925,16.925,0,0,0,2.268-5.463Z" transform="translate(-261.997 -9.998)" fill="#72d8ff"/>
        <circle id="XMLID_1466_" cx="8.5" cy="8.5" r="8.5" transform="translate(12.066 12.147)" fill="#fff"/>
      </g>
      <g id="XMLID_1663_">
        <path id="XMLID_1667_" d="M116.3,139.887a9.312,9.312,0,0,0-.194-1.9l2.661-1.536-2.9-5.022L113.2,132.97a9.269,9.269,0,0,0-3.283-1.9V128h-5.8v3.072a9.265,9.265,0,0,0-3.283,1.9l-2.663-1.537-2.9,5.022,2.661,1.536a9.348,9.348,0,0,0,0,3.793l-2.661,1.536,2.9,5.022,2.663-1.537a9.269,9.269,0,0,0,3.283,1.9v3.072h5.8V148.7a9.265,9.265,0,0,0,3.283-1.9l2.663,1.537,2.9-5.022-2.661-1.536A9.312,9.312,0,0,0,116.3,139.887Z" transform="translate(-78.915 -106.021)" fill="#fff"/>
        <path id="XMLID_1666_" d="M116.3,139.887a9.312,9.312,0,0,0-.194-1.9l2.661-1.536-2.9-5.022L113.2,132.97a9.269,9.269,0,0,0-3.283-1.9V128h-5.8v3.072a9.265,9.265,0,0,0-3.283,1.9l-2.663-1.537-2.9,5.022,2.661,1.536a9.348,9.348,0,0,0,0,3.793l-2.661,1.536,2.9,5.022,2.663-1.537a9.269,9.269,0,0,0,3.283,1.9v3.072h5.8V148.7a9.265,9.265,0,0,0,3.283-1.9l2.663,1.537,2.9-5.022-2.661-1.536A9.312,9.312,0,0,0,116.3,139.887Z" transform="translate(-78.915 -106.021)" fill="#a0e557"/>
        <g id="XMLID_709_">
          <path id="XMLID_710_" d="M232.647,364.99a1.718,1.718,0,1,0,1.214.5A1.729,1.729,0,0,0,232.647,364.99Z" transform="translate(-191.276 -302.316)"/>
          <path id="XMLID_734_" d="M423.487,335.12a1.718,1.718,0,1,0,1.214.5A1.73,1.73,0,0,0,423.487,335.12Z" transform="translate(-349.346 -277.575)"/>
          <path id="XMLID_735_" d="M127.656,287a1.718,1.718,0,1,0,1.214.5A1.729,1.729,0,0,0,127.656,287Z" transform="translate(-104.314 -237.718)"/>
          <path id="XMLID_744_" d="M87.917,18.637A1.717,1.717,0,0,0,86.2,16.92H83.556a18.552,18.552,0,0,0-1.44-3.478l1.869-1.869a1.717,1.717,0,0,0,0-2.428L78.773,3.932a1.717,1.717,0,0,0-2.429,0L74.475,5.8A18.564,18.564,0,0,0,71,4.362V1.717A1.717,1.717,0,0,0,69.28,0H61.909a1.717,1.717,0,0,0-1.717,1.717V4.368a18.558,18.558,0,0,0-3.471,1.441L54.845,3.932a1.717,1.717,0,0,0-2.429,0L47.2,9.144a1.714,1.714,0,0,0-.477,1.5H6.874A6.882,6.882,0,0,0,0,17.521V64.9a6.882,6.882,0,0,0,6.874,6.874H34.159v5.838H30.044A6.2,6.2,0,0,0,23.856,83.8v2.4a1.717,1.717,0,0,0,1.717,1.717h31.6A1.717,1.717,0,0,0,58.886,86.2V83.8A6.2,6.2,0,0,0,52.7,77.615H48.583V71.776H75.852A6.882,6.882,0,0,0,82.726,64.9V36.761l1.26-1.26a1.717,1.717,0,0,0,0-2.428L82.109,31.2a18.564,18.564,0,0,0,1.441-3.471H86.2a1.717,1.717,0,0,0,1.717-1.717ZM55.451,83.8v.681H27.29V83.8a2.757,2.757,0,0,1,2.754-2.754H52.7A2.757,2.757,0,0,1,55.451,83.8Zm-10.3-6.188H37.593V71.776h7.555ZM79.292,64.9a3.444,3.444,0,0,1-3.44,3.44H6.874a3.444,3.444,0,0,1-3.44-3.44V60.979H67.273a1.717,1.717,0,1,0,0-3.434H3.434V52.716H16.542a1.717,1.717,0,1,0,0-3.434H3.434V17.521a3.444,3.444,0,0,1,3.44-3.44H48.768a18.567,18.567,0,0,0-1.114,2.84H44.989a1.717,1.717,0,0,0-1.717,1.717v7.371a1.717,1.717,0,0,0,1.717,1.717h2.672a18.576,18.576,0,0,0,1.434,3.457L47.2,33.073a1.717,1.717,0,0,0,0,2.428l5.212,5.212a1.717,1.717,0,0,0,2.429,0l1.891-1.891a18.557,18.557,0,0,0,3.457,1.434v2.672a1.717,1.717,0,0,0,1.717,1.717H69.28A1.717,1.717,0,0,0,71,42.928V40.263a18.557,18.557,0,0,0,3.464-1.432l1.883,1.883a1.717,1.717,0,0,0,2.428,0l.518-.518V64.9Zm5.192-40.611H82.224a1.717,1.717,0,0,0-1.677,1.346,15.171,15.171,0,0,1-2.037,4.907,1.718,1.718,0,0,0,.231,2.142l1.6,1.6-2.784,2.784-1.606-1.606a1.718,1.718,0,0,0-1.983-.322,1.69,1.69,0,0,0-.155.088,15.171,15.171,0,0,1-4.9,2.028,1.717,1.717,0,0,0-1.348,1.677v2.276H63.626V38.931a1.717,1.717,0,0,0-1.346-1.677,15.174,15.174,0,0,1-4.9-2.031,1.717,1.717,0,0,0-2.139.233L53.63,37.071l-2.784-2.784,1.614-1.614a1.718,1.718,0,0,0,.232-2.141,15.17,15.17,0,0,1-2.029-4.894,1.717,1.717,0,0,0-1.677-1.346H46.706V20.354h2.276a1.718,1.718,0,0,0,1.677-1.348,15.169,15.169,0,0,1,2.025-4.9,1.718,1.718,0,0,0-.232-2.141l-1.606-1.606L53.63,7.575l1.6,1.6a1.719,1.719,0,0,0,2.166.216A15.164,15.164,0,0,1,62.28,7.37a1.717,1.717,0,0,0,1.346-1.676V3.434h3.937V5.689a1.717,1.717,0,0,0,1.348,1.677A15.172,15.172,0,0,1,73.827,9.4a1.719,1.719,0,0,0,2.139-.233l1.593-1.593,2.784,2.784L78.75,11.951a1.718,1.718,0,0,0-.231,2.142,15.163,15.163,0,0,1,2.033,4.913,1.717,1.717,0,0,0,1.677,1.348h2.255v3.937Z"/>
          <path id="XMLID_999_" d="M330.646,68a10.646,10.646,0,1,0,10.646,10.646A10.658,10.658,0,0,0,330.646,68Zm0,17.858a7.212,7.212,0,1,1,7.212-7.212A7.22,7.22,0,0,1,330.646,85.858Z" transform="translate(-265.052 -56.323)"/>
          <path id="XMLID_1012_" d="M155.387,187.22a1.718,1.718,0,1,0,1.214.5A1.727,1.727,0,0,0,155.387,187.22Z" transform="translate(-127.283 -155.072)"/>
          <path id="XMLID_1094_" d="M112.136,128.616a1.717,1.717,0,0,0-.172-1.3l-2.9-5.022a1.717,1.717,0,0,0-2.346-.628l-1.652.954a10.861,10.861,0,0,0-1.718-.994v-1.906A1.717,1.717,0,0,0,101.633,118h-5.8a1.717,1.717,0,0,0-1.717,1.717v1.906a10.874,10.874,0,0,0-1.718.994l-1.652-.954a1.717,1.717,0,0,0-2.346.628l-2.9,5.022a1.717,1.717,0,0,0,.628,2.346l1.652.954c-.03.329-.044.661-.044.991s.015.662.044.991l-1.652.954A1.717,1.717,0,0,0,85.5,135.9l2.9,5.022a1.717,1.717,0,0,0,2.346.628l1.652-.954a10.86,10.86,0,0,0,1.718.994v1.906a1.717,1.717,0,0,0,1.717,1.717h5.8a1.717,1.717,0,0,0,1.717-1.717v-1.906a10.874,10.874,0,0,0,1.718-.994l1.652.954a1.717,1.717,0,0,0,2.346-.628l2.9-5.022a1.717,1.717,0,0,0-.628-2.346l-1.652-.954c.03-.33.045-.661.045-.991s-.015-.662-.045-.992l1.652-.954A1.719,1.719,0,0,0,112.136,128.616Zm-6,1.441a7.634,7.634,0,0,1,0,3.095,1.717,1.717,0,0,0,.823,1.836l1.174.678-1.182,2.048-1.176-.679a1.717,1.717,0,0,0-2,.207,7.5,7.5,0,0,1-2.674,1.546,1.717,1.717,0,0,0-1.181,1.631v1.355H97.551v-1.355a1.717,1.717,0,0,0-1.181-1.631,7.506,7.506,0,0,1-2.674-1.546,1.717,1.717,0,0,0-2-.207l-1.176.679-1.182-2.048,1.173-.678a1.717,1.717,0,0,0,.823-1.836,7.642,7.642,0,0,1,0-3.095,1.717,1.717,0,0,0-.823-1.836l-1.173-.678,1.182-2.047,1.176.679a1.717,1.717,0,0,0,2-.207,7.5,7.5,0,0,1,2.674-1.546,1.717,1.717,0,0,0,1.181-1.631v-1.355h2.364v1.355a1.717,1.717,0,0,0,1.181,1.631,7.506,7.506,0,0,1,2.674,1.546,1.717,1.717,0,0,0,2,.207l1.176-.679,1.182,2.048-1.174.678A1.717,1.717,0,0,0,106.136,130.057Z" transform="translate(-70.63 -97.738)"/>
        </g>
      </g>
    </g>
    <rect id="Rectángulo_8988" data-name="Rectángulo 8988" width="141" height="102" transform="translate(467 7882)" fill="none"/>
  </g>
</svg>
