<svg xmlns="http://www.w3.org/2000/svg" width="141" height="102" viewBox="0 0 141 102">
  <g id="Grupo_77669" data-name="Grupo 77669" transform="translate(-992 -7882)">
    <g id="cloud-network" transform="translate(1022 7892.828)">
      <g id="Grupo_77666" data-name="Grupo 77666" transform="translate(2.261 2.25)">
        <g id="Grupo_77656" data-name="Grupo 77656" transform="translate(0.191 0)">
          <ellipse id="Elipse_5501" data-name="Elipse 5501" cx="20" cy="20.5" rx="20" ry="20.5" transform="translate(-0.451 -0.078)" fill="#69d6f4"/>
        </g>
        <g id="Grupo_77657" data-name="Grupo 77657" transform="translate(0 17.662)">
          <path id="Trazado_144347" data-name="Trazado 144347" d="M27.91,29.831A18.912,18.912,0,0,1,65.017,33.98a10.086,10.086,0,1,1,2.547,19.846H12.087a10.09,10.09,0,0,1-2.8-19.783,10.211,10.211,0,0,1,2.8-.391,10.063,10.063,0,0,1,3.152.5,8.818,8.818,0,0,1,8.2-5.548A8.694,8.694,0,0,1,27.91,29.831Z" transform="translate(-2 -16)" fill="#e6e9ed"/>
        </g>
        <g id="Grupo_77658" data-name="Grupo 77658" transform="translate(45.182 64.585)">
          <ellipse id="Elipse_5502" data-name="Elipse 5502" cx="3" cy="2.5" rx="3" ry="2.5" transform="translate(-0.443 0.336)" fill="#ff826e"/>
        </g>
        <g id="Grupo_77659" data-name="Grupo 77659" transform="translate(24.863 64.585)">
          <circle id="Elipse_5503" data-name="Elipse 5503" cx="2.5" cy="2.5" r="2.5" transform="translate(-0.124 0.336)" fill="#ff826e"/>
        </g>
        <g id="Grupo_77660" data-name="Grupo 77660" transform="translate(65.502 70.391)">
          <ellipse id="Elipse_5504" data-name="Elipse 5504" cx="2.5" cy="3" rx="2.5" ry="3" transform="translate(0.238 -0.469)" fill="#ff826e"/>
        </g>
        <g id="Grupo_77661" data-name="Grupo 77661" transform="translate(35.023 70.391)">
          <ellipse id="Elipse_5505" data-name="Elipse 5505" cx="2.5" cy="3" rx="2.5" ry="3" transform="translate(-0.284 -0.469)" fill="#ff826e"/>
        </g>
        <g id="Grupo_77662" data-name="Grupo 77662" transform="translate(5.27 70.391)">
          <ellipse id="Elipse_5506" data-name="Elipse 5506" cx="2.5" cy="3" rx="2.5" ry="3" transform="translate(0.469 -0.469)" fill="#ff826e"/>
        </g>
        <g id="Grupo_77663" data-name="Grupo 77663" transform="translate(22.687 42.815)">
          <circle id="Elipse_5507" data-name="Elipse 5507" cx="2.5" cy="2.5" r="2.5" transform="translate(0.053 0.107)" fill="#ff826e"/>
        </g>
        <g id="Grupo_77664" data-name="Grupo 77664" transform="translate(32.846 42.815)">
          <circle id="Elipse_5508" data-name="Elipse 5508" cx="2.5" cy="2.5" r="2.5" transform="translate(-0.107 0.107)" fill="#ff826e"/>
        </g>
        <g id="Grupo_77665" data-name="Grupo 77665" transform="translate(43.005 42.815)">
          <circle id="Elipse_5509" data-name="Elipse 5509" cx="2.5" cy="2.5" r="2.5" transform="translate(-0.266 0.107)" fill="#ff826e"/>
        </g>
      </g>
      <g id="Grupo_77667" data-name="Grupo 77667" transform="translate(1 1)">
        <path id="Trazado_144348" data-name="Trazado 144348" d="M40.13,21.522V19A15.147,15.147,0,0,0,25,34.13h2.522A12.623,12.623,0,0,1,40.13,21.522Z" transform="translate(5.26 3.695)"/>
        <path id="Trazado_144349" data-name="Trazado 144349" d="M38.819,21.678a12.623,12.623,0,0,1,2.291.652l.919-2.348a15.117,15.117,0,0,0-2.752-.783Z" transform="translate(8.865 3.747)"/>
        <path id="Trazado_144350" data-name="Trazado 144350" d="M61.087,39.3a6.311,6.311,0,0,0-6.3-6.3v2.522a3.783,3.783,0,1,1,0,7.565H51v2.522h3.783A6.311,6.311,0,0,0,61.087,39.3Z" transform="translate(12.042 7.347)"/>
        <path id="Trazado_144351" data-name="Trazado 144351" d="M47,41h2.522v2.522H47Z" transform="translate(10.998 9.433)"/>
        <path id="Trazado_144352" data-name="Trazado 144352" d="M43,41h2.522v2.522H43Z" transform="translate(9.955 9.433)"/>
        <path id="Trazado_144353" data-name="Trazado 144353" d="M67.824,59A11.348,11.348,0,1,0,66.4,36.4,19.991,19.991,0,0,0,43.552,18.875,21.424,21.424,0,1,0,7.237,37.533,11.339,11.339,0,0,0,12.348,59h8.826V72.868a1.263,1.263,0,0,1-1.261,1.261H13.376a3.783,3.783,0,1,0,0,2.522h6.536A3.787,3.787,0,0,0,23.7,72.868V59h5.043v6.536a3.783,3.783,0,1,0,2.522,0V59h7.565v12.84a3.783,3.783,0,1,0,2.522,0V59h7.565v6.536a3.783,3.783,0,1,0,2.522,0V59h5.043V72.868a3.787,3.787,0,0,0,3.783,3.783H66.8a3.783,3.783,0,1,0,0-2.522H60.259A1.263,1.263,0,0,1,59,72.868V59Zm-58,17.652a1.261,1.261,0,1,1,1.261-1.261A1.263,1.263,0,0,1,9.826,76.65ZM30,70.346a1.261,1.261,0,1,1,1.261-1.261A1.263,1.263,0,0,1,30,70.346Zm10.087,6.3a1.261,1.261,0,1,1,1.261-1.261A1.263,1.263,0,0,1,40.086,76.65Zm10.087-6.3a1.261,1.261,0,1,1,1.261-1.261A1.263,1.263,0,0,1,50.173,70.346Zm20.173,3.783a1.261,1.261,0,1,1-1.261,1.261A1.263,1.263,0,0,1,70.346,74.129ZM27.435,31.989a10.086,10.086,0,0,0-3.74-.729H14.684A35.558,35.558,0,0,1,13.65,23.7H31.231c-.021.667-.057,1.329-.112,1.986A20.163,20.163,0,0,0,27.435,31.989ZM3.591,23.7h7.537a38.524,38.524,0,0,0,.959,7.565H5.733A18.812,18.812,0,0,1,3.591,23.7ZM22.434,3.522c2.814,0,5.364,3.01,6.993,7.565H15.442C17.071,6.531,19.62,3.522,22.434,3.522ZM30.2,13.608a35.761,35.761,0,0,1,1.029,7.565H13.639a35.761,35.761,0,0,1,1.029-7.565Zm-19.08,7.565H3.586a18.759,18.759,0,0,1,2.135-7.565h6.347A38.349,38.349,0,0,0,11.119,21.173ZM32.8,13.608h6.374a18.851,18.851,0,0,1,1.906,5.776,20.119,20.119,0,0,0-7.315,3.73c.005-.227.016-.453.016-.68a38.932,38.932,0,0,0-.981-8.826Zm4.775-2.522H32.1a20.932,20.932,0,0,0-3.253-6.44,18.842,18.842,0,0,1,8.731,6.44ZM16.006,4.67a21,21,0,0,0-3.235,6.416H7.341A18.962,18.962,0,0,1,16.006,4.67ZM7.318,33.782h9.727A10.129,10.129,0,0,0,14.8,36.6a11.336,11.336,0,0,0-2.451-.3,11.32,11.32,0,0,0-2.436.27,19.017,19.017,0,0,1-2.594-2.791Zm-3.8,13.869A8.777,8.777,0,0,1,13.9,38.973a10.027,10.027,0,0,0-.294,2.374H16.13a7.557,7.557,0,0,1,10.587-6.931,20.094,20.094,0,0,0-.5,4.409h2.522a17.641,17.641,0,0,1,35.19-1.818,11.357,11.357,0,0,0-7.452,10.644H59a8.826,8.826,0,1,1,8.826,8.826H12.348a8.836,8.836,0,0,1-8.826-8.826Z" transform="translate(-1 -1)"/>
        <path id="Trazado_144354" data-name="Trazado 144354" d="M38.783,35a3.783,3.783,0,1,0,3.783,3.783A3.787,3.787,0,0,0,38.783,35Zm0,5.043a1.261,1.261,0,1,1,1.261-1.261A1.263,1.263,0,0,1,38.783,40.043Z" transform="translate(7.868 7.868)"/>
        <path id="Trazado_144355" data-name="Trazado 144355" d="M30.783,35a3.783,3.783,0,1,0,3.783,3.783A3.787,3.787,0,0,0,30.783,35Zm0,5.043a1.261,1.261,0,1,1,1.261-1.261A1.263,1.263,0,0,1,30.783,40.043Z" transform="translate(5.782 7.868)"/>
        <path id="Trazado_144356" data-name="Trazado 144356" d="M22.783,35a3.783,3.783,0,1,0,3.783,3.783A3.787,3.787,0,0,0,22.783,35Zm0,5.043a1.261,1.261,0,1,1,1.261-1.261A1.263,1.263,0,0,1,22.783,40.043Z" transform="translate(3.695 7.868)"/>
        <path id="Trazado_144357" data-name="Trazado 144357" d="M52.043,21.565h2.522A7.573,7.573,0,0,0,47,14v2.522A5.048,5.048,0,0,1,52.043,21.565Z" transform="translate(10.998 2.391)"/>
        <path id="Trazado_144358" data-name="Trazado 144358" d="M57.087,22.608h2.522A12.623,12.623,0,0,0,47,10v2.522A10.1,10.1,0,0,1,57.087,22.608Z" transform="translate(10.998 1.348)"/>
        <path id="Trazado_144359" data-name="Trazado 144359" d="M62.13,23.652h2.522A17.671,17.671,0,0,0,47,6V8.522A15.147,15.147,0,0,1,62.13,23.652Z" transform="translate(10.998 0.304)"/>
      </g>
    </g>
    <rect id="Rectángulo_8988" data-name="Rectángulo 8988" width="141" height="102" transform="translate(992 7882)" fill="none"/>
  </g>
</svg>
