<svg xmlns="http://www.w3.org/2000/svg" width="476.729" height="226.141" viewBox="0 0 476.729 226.141">
  <g id="Grupo_78321" data-name="Grupo 78321" transform="translate(-256.271 -8339.309)">
    <text id="Beneficios_del_software_del_punto_de_venta" data-name="Beneficios del software del 
punto de venta" transform="translate(441 8435)" fill="#12263f" font-size="20" font-family="Roboto-Black, Roboto" font-weight="800"><tspan x="0" y="0">Beneficios del software del </tspan><tspan x="0" y="27">punto de venta</tspan></text>
    <g id="Layer_10" transform="translate(256.272 8355.493)">
      <g id="Grupo_77721" data-name="Grupo 77721" transform="translate(-0.001 2.6)">
        <g id="Grupo_77671" data-name="Grupo 77671" transform="translate(1.753 135.548)">
          <g id="Grupo_77670" data-name="Grupo 77670">
            <path id="Trazado_144360" data-name="Trazado 144360" d="M174.575,195.962H6.378A3.878,3.878,0,0,0,2.5,199.84a13.647,13.647,0,0,0,13.647,13.647H164.8a13.647,13.647,0,0,0,13.647-13.647A3.877,3.877,0,0,0,174.575,195.962Z" transform="translate(-2.5 -195.962)" fill="#edf4fc"/>
          </g>
        </g>
        <g id="Grupo_77673" data-name="Grupo 77673" transform="translate(58.837 135.548)">
          <g id="Grupo_77672" data-name="Grupo 77672">
            <path id="Trazado_144361" data-name="Trazado 144361" d="M83.931,195.962v4.188a4.029,4.029,0,0,0,4.029,4.029h53.726a4.029,4.029,0,0,0,4.029-4.029v-4.188Z" transform="translate(-83.931 -195.962)" fill="#c7d7e5"/>
          </g>
        </g>
        <g id="Grupo_77675" data-name="Grupo 77675" transform="translate(15.285 23.58)">
          <g id="Grupo_77674" data-name="Grupo 77674">
            <path id="Trazado_144362" data-name="Trazado 144362" d="M160.982,36.238H31.513a9.711,9.711,0,0,0-9.71,9.71V148.206h148.89V45.948A9.711,9.711,0,0,0,160.982,36.238Z" transform="translate(-21.803 -36.238)" fill="#5290db"/>
          </g>
        </g>
        <g id="Grupo_77677" data-name="Grupo 77677" transform="translate(22.638 30.935)">
          <g id="Grupo_77676" data-name="Grupo 77676">
            <path id="Trazado_144363" data-name="Trazado 144363" d="M164.074,46.729H34.695a2.4,2.4,0,0,0-2.4,2.4V151.342H166.475V49.131A2.4,2.4,0,0,0,164.074,46.729Z" transform="translate(-32.293 -46.729)" fill="#70d6f9"/>
          </g>
        </g>
        <g id="Grupo_77679" data-name="Grupo 77679" transform="translate(70.152 68.31)">
          <g id="Grupo_77678" data-name="Grupo 77678">
            <circle id="Elipse_5510" data-name="Elipse 5510" cx="19.578" cy="19.578" r="19.578" fill="#edf4fc"/>
          </g>
        </g>
        <g id="Grupo_77682" data-name="Grupo 77682" transform="translate(53.494 51.496)">
          <g id="Grupo_77681" data-name="Grupo 77681">
            <g id="Grupo_77680" data-name="Grupo 77680">
              <path id="Trazado_144364" data-name="Trazado 144364" d="M147.953,106.847H140.79a.829.829,0,0,1-.808-.657,27.95,27.95,0,0,0-3.721-8.98.83.83,0,0,1,.107-1.036l5.065-5.065a.827.827,0,0,0,0-1.17L134.9,83.406a.827.827,0,0,0-1.17,0l-5.065,5.065a.831.831,0,0,1-1.036.107,27.935,27.935,0,0,0-8.98-3.721.83.83,0,0,1-.657-.808V76.887a.827.827,0,0,0-.827-.827h-9.239a.827.827,0,0,0-.827.827v7.162a.83.83,0,0,1-.657.808,27.935,27.935,0,0,0-8.98,3.721.83.83,0,0,1-1.036-.107l-5.065-5.065a.827.827,0,0,0-1.17,0l-6.533,6.533a.827.827,0,0,0,0,1.17l5.065,5.065a.83.83,0,0,1,.107,1.036,27.935,27.935,0,0,0-3.721,8.98.83.83,0,0,1-.808.657H77.137a.827.827,0,0,0-.827.827v9.239a.827.827,0,0,0,.827.827H84.3a.829.829,0,0,1,.808.657,27.951,27.951,0,0,0,3.721,8.98.83.83,0,0,1-.107,1.036l-5.065,5.065a.827.827,0,0,0,0,1.17l6.533,6.533a.827.827,0,0,0,1.17,0l5.065-5.065a.831.831,0,0,1,1.036-.107,27.934,27.934,0,0,0,8.98,3.721.83.83,0,0,1,.657.808V147.7a.827.827,0,0,0,.827.827h9.239a.827.827,0,0,0,.827-.827v-7.162a.829.829,0,0,1,.657-.808,27.951,27.951,0,0,0,8.98-3.721.83.83,0,0,1,1.036.107l5.065,5.065a.827.827,0,0,0,1.17,0l6.533-6.533a.827.827,0,0,0,0-1.17l-5.065-5.065a.83.83,0,0,1-.107-1.036,27.935,27.935,0,0,0,3.721-8.98.831.831,0,0,1,.808-.657h7.163a.827.827,0,0,0,.827-.827v-9.239a.825.825,0,0,0-.826-.827ZM112.545,132.03a19.578,19.578,0,1,1,19.578-19.578,19.578,19.578,0,0,1-19.578,19.578Z" transform="translate(-76.31 -76.06)" fill="#f5c84c"/>
            </g>
          </g>
        </g>
        <g id="Grupo_77684" data-name="Grupo 77684" transform="translate(79.061 81.347)">
          <g id="Grupo_77683" data-name="Grupo 77683">
            <path id="Trazado_144365" data-name="Trazado 144365" d="M132.683,119.7a3.6,3.6,0,0,0-5.089,0l-5.774,5.774-2.894-2.894a3.6,3.6,0,0,0-5.089,5.089l5.439,5.439a3.6,3.6,0,0,0,5.089,0l8.319-8.319a3.6,3.6,0,0,0,0-5.089Z" transform="translate(-112.781 -118.643)" fill="#f5c84c"/>
          </g>
        </g>
        <g id="Grupo_77686" data-name="Grupo 77686" transform="translate(22.638 30.935)">
          <g id="Grupo_77685" data-name="Grupo 77685">
            <path id="Trazado_144366" data-name="Trazado 144366" d="M164.074,46.729H34.695a2.4,2.4,0,0,0-2.4,2.4v7.526H166.475V49.131A2.4,2.4,0,0,0,164.074,46.729Z" transform="translate(-32.293 -46.729)" fill="#dae6f1"/>
          </g>
        </g>
        <g id="Grupo_77688" data-name="Grupo 77688" transform="translate(22.638 30.935)">
          <g id="Grupo_77687" data-name="Grupo 77687">
            <path id="Trazado_144367" data-name="Trazado 144367" d="M34.695,46.729a2.4,2.4,0,0,0-2.4,2.4v7.526h14.34V46.729Z" transform="translate(-32.293 -46.729)" fill="#fc657e"/>
          </g>
        </g>
        <g id="Grupo_77690" data-name="Grupo 77690" transform="translate(13.532 21.828)">
          <g id="Grupo_77689" data-name="Grupo 77689">
            <path id="Trazado_144368" data-name="Trazado 144368" d="M160.235,33.738H30.765A11.475,11.475,0,0,0,19.3,45.2V146.7a1.753,1.753,0,1,0,3.505,0V45.2a7.967,7.967,0,0,1,7.958-7.958h129.47a7.967,7.967,0,0,1,7.958,7.958V146.725a1.753,1.753,0,0,0,3.505,0V45.2A11.475,11.475,0,0,0,160.235,33.738Z" transform="translate(-19.302 -33.738)"/>
          </g>
        </g>
        <g id="Grupo_77692" data-name="Grupo 77692" transform="translate(20.886 29.182)">
          <g id="Grupo_77691" data-name="Grupo 77691">
            <path id="Trazado_144369" data-name="Trazado 144369" d="M163.326,44.229H33.948a4.16,4.16,0,0,0-4.155,4.154V149.862a1.753,1.753,0,1,0,3.505,0V48.383a.65.65,0,0,1,.65-.649H163.326a.651.651,0,0,1,.65.649v101.48a1.753,1.753,0,1,0,3.505,0V48.383A4.159,4.159,0,0,0,163.326,44.229Z" transform="translate(-29.793 -44.229)"/>
          </g>
        </g>
        <g id="Grupo_77694" data-name="Grupo 77694" transform="translate(35.226 29.873)">
          <g id="Grupo_77693" data-name="Grupo 77693">
            <path id="Trazado_144370" data-name="Trazado 144370" d="M52,45.214a1.752,1.752,0,0,0-1.753,1.753v8.579a1.753,1.753,0,0,0,3.505,0V46.967A1.752,1.752,0,0,0,52,45.214Z" transform="translate(-50.25 -45.214)"/>
          </g>
        </g>
        <g id="Grupo_77696" data-name="Grupo 77696" transform="translate(22.082 39.11)">
          <g id="Grupo_77695" data-name="Grupo 77695">
            <path id="Trazado_144371" data-name="Trazado 144371" d="M165.743,58.391H33.253a1.753,1.753,0,1,0,0,3.505h132.49a1.753,1.753,0,1,0,0-3.505Z" transform="translate(-31.5 -58.391)"/>
          </g>
        </g>
        <g id="Grupo_77699" data-name="Grupo 77699" transform="translate(0.001 133.795)">
          <g id="Grupo_77698" data-name="Grupo 77698" transform="translate(0)">
            <g id="Grupo_77697" data-name="Grupo 77697">
              <path id="Trazado_144372" data-name="Trazado 144372" d="M173.828,193.462H5.63A5.636,5.636,0,0,0,0,199.092a15.417,15.417,0,0,0,15.4,15.4H164.058a15.418,15.418,0,0,0,15.4-15.4,5.638,5.638,0,0,0-5.63-5.63Zm-9.771,17.525H15.4a11.908,11.908,0,0,1-11.9-11.895,2.127,2.127,0,0,1,2.125-2.125h168.2a2.127,2.127,0,0,1,2.125,2.125A11.908,11.908,0,0,1,164.057,210.987Z" transform="translate(0 -193.462)"/>
            </g>
          </g>
        </g>
        <g id="Grupo_77701" data-name="Grupo 77701" transform="translate(57.085 134.48)">
          <g id="Grupo_77700" data-name="Grupo 77700">
            <path id="Trazado_144373" data-name="Trazado 144373" d="M144.968,194.438a1.752,1.752,0,0,0-1.753,1.753v3.5a2.279,2.279,0,0,1-2.277,2.277H87.214a2.279,2.279,0,0,1-2.277-2.277v-3.417a1.753,1.753,0,0,0-3.505,0v3.417a5.788,5.788,0,0,0,5.782,5.782H140.94a5.788,5.788,0,0,0,5.782-5.782v-3.5a1.753,1.753,0,0,0-1.753-1.753Z" transform="translate(-81.432 -194.438)"/>
          </g>
        </g>
        <g id="Grupo_77703" data-name="Grupo 77703" transform="translate(97.09)">
          <g id="Grupo_77702" data-name="Grupo 77702">
            <path id="Trazado_144374" data-name="Trazado 144374" d="M151.363,8.8a7.779,7.779,0,0,1-6.239-6.1c0-.14-.28-.14-.28,0a7.779,7.779,0,0,1-6.239,6.1c-.14,0-.14.21,0,.28a7.779,7.779,0,0,1,6.239,6.1c0,.14.28.14.28,0a7.779,7.779,0,0,1,6.239-6.1C151.5,9.014,151.5,8.8,151.363,8.8Z" transform="translate(-138.5 -2.6)" fill="#f5c84c"/>
          </g>
        </g>
        <g id="Grupo_77705" data-name="Grupo 77705" transform="translate(0 59.586)">
          <g id="Grupo_77704" data-name="Grupo 77704">
            <path id="Trazado_144375" data-name="Trazado 144375" d="M9.025,91.954a5.459,5.459,0,0,1-4.378-4.279c0-.1-.2-.1-.2,0A5.458,5.458,0,0,1,.073,91.954c-.1,0-.1.147,0,.2A5.459,5.459,0,0,1,4.45,96.429c0,.1.2.1.2,0a5.457,5.457,0,0,1,4.378-4.279c.1-.05.1-.2,0-.2Z" transform="translate(0.001 -87.601)" fill="#fc657e"/>
          </g>
        </g>
        <g id="Grupo_77707" data-name="Grupo 77707" transform="translate(41.01 159.549)">
          <g id="Grupo_77706" data-name="Grupo 77706">
            <path id="Trazado_144376" data-name="Trazado 144376" d="M68.454,234.056H66.842v-1.612A2.259,2.259,0,0,0,64.6,230.2a2.215,2.215,0,0,0-2.243,2.243v1.612H60.743A2.259,2.259,0,0,0,58.5,236.3a2.215,2.215,0,0,0,2.243,2.243h1.612v1.612A2.259,2.259,0,0,0,64.6,242.4a2.215,2.215,0,0,0,2.243-2.243v-1.612h1.612A2.259,2.259,0,0,0,70.7,236.3,2.215,2.215,0,0,0,68.454,234.056Z" transform="translate(-58.5 -230.2)" fill="#70d6f9"/>
          </g>
        </g>
        <g id="Grupo_77709" data-name="Grupo 77709" transform="translate(64.774 171.045)">
          <g id="Grupo_77708" data-name="Grupo 77708">
            <path id="Trazado_144377" data-name="Trazado 144377" d="M94.783,246.6a2.383,2.383,0,1,0,2.383,2.383A2.383,2.383,0,0,0,94.783,246.6Z" transform="translate(-92.4 -246.6)" fill="#f5c84c"/>
          </g>
        </g>
        <g id="Grupo_77711" data-name="Grupo 77711" transform="translate(169.925 116.367)">
          <g id="Grupo_77710" data-name="Grupo 77710">
            <path id="Trazado_144378" data-name="Trazado 144378" d="M244.783,168.6a2.383,2.383,0,1,0,2.383,2.383A2.383,2.383,0,0,0,244.783,168.6Z" transform="translate(-242.4 -168.6)" fill="#fc657e"/>
          </g>
        </g>
        <g id="Grupo_77713" data-name="Grupo 77713" transform="translate(119.452 11.216)">
          <g id="Grupo_77712" data-name="Grupo 77712">
            <path id="Trazado_144379" data-name="Trazado 144379" d="M172.783,18.6a2.383,2.383,0,1,0,2.383,2.383A2.383,2.383,0,0,0,172.783,18.6Z" transform="translate(-170.4 -18.6)" fill="#87d147"/>
          </g>
        </g>
        <g id="Grupo_77716" data-name="Grupo 77716" transform="translate(51.742 49.743)">
          <g id="Grupo_77715" data-name="Grupo 77715">
            <g id="Grupo_77714" data-name="Grupo 77714">
              <path id="Trazado_144380" data-name="Trazado 144380" d="M111.8,90.374a21.33,21.33,0,1,0,21.331,21.33A21.355,21.355,0,0,0,111.8,90.374Zm0,39.156a17.825,17.825,0,1,1,17.826-17.825A17.846,17.846,0,0,1,111.8,129.53Zm35.408-25.183h-6.428a29.58,29.58,0,0,0-3.4-8.2l4.545-4.546a2.581,2.581,0,0,0,0-3.648l-6.533-6.533a2.582,2.582,0,0,0-3.649,0L127.2,85.965a29.635,29.635,0,0,0-8.2-3.4V76.14a2.583,2.583,0,0,0-2.58-2.58h-9.239a2.583,2.583,0,0,0-2.58,2.58v6.427a29.575,29.575,0,0,0-8.2,3.4L91.852,81.42a2.582,2.582,0,0,0-3.649,0L81.67,87.953a2.581,2.581,0,0,0,0,3.648l4.545,4.546a29.636,29.636,0,0,0-3.4,8.2H76.39a2.583,2.583,0,0,0-2.58,2.58v9.239a2.582,2.582,0,0,0,2.58,2.58h6.428a29.593,29.593,0,0,0,3.4,8.2l-4.545,4.546a2.582,2.582,0,0,0,0,3.649l6.533,6.533a2.582,2.582,0,0,0,3.649,0l4.545-4.545a29.6,29.6,0,0,0,8.2,3.4v6.428a2.583,2.583,0,0,0,2.58,2.58h9.239a2.583,2.583,0,0,0,2.58-2.58v-6.428a29.6,29.6,0,0,0,8.2-3.4l4.545,4.545a2.582,2.582,0,0,0,3.649,0l6.533-6.533a2.582,2.582,0,0,0,0-3.649l-4.545-4.546a29.617,29.617,0,0,0,3.4-8.2h6.428a2.583,2.583,0,0,0,2.58-2.58v-9.239a2.583,2.583,0,0,0-2.58-2.58Zm-.926,10.894h-6.237a2.567,2.567,0,0,0-2.519,2.03,26.125,26.125,0,0,1-3.489,8.417,2.568,2.568,0,0,0,.346,3.216l4.411,4.411-5.225,5.225-4.411-4.411a2.569,2.569,0,0,0-3.217-.346,26.12,26.12,0,0,1-8.418,3.488,2.568,2.568,0,0,0-2.03,2.519v6.238H108.1v-6.238a2.568,2.568,0,0,0-2.03-2.519,26.133,26.133,0,0,1-8.418-3.488,2.568,2.568,0,0,0-3.216.346l-4.411,4.411L84.8,133.317l4.41-4.411a2.569,2.569,0,0,0,.347-3.218,26.144,26.144,0,0,1-3.488-8.416,2.567,2.567,0,0,0-2.519-2.032H77.314v-7.389h6.237a2.567,2.567,0,0,0,2.519-2.03A26.116,26.116,0,0,1,89.559,97.4a2.569,2.569,0,0,0-.346-3.217L84.8,89.776l5.225-5.225,4.411,4.411a2.569,2.569,0,0,0,3.217.346,26.12,26.12,0,0,1,8.418-3.488A2.568,2.568,0,0,0,108.1,83.3V77.065h7.389V83.3a2.568,2.568,0,0,0,2.03,2.519,26.137,26.137,0,0,1,8.418,3.488,2.569,2.569,0,0,0,3.216-.346l4.411-4.411,5.225,5.225-4.411,4.411a2.568,2.568,0,0,0-.346,3.216,26.145,26.145,0,0,1,3.488,8.416,2.567,2.567,0,0,0,2.519,2.032h6.237v7.39Z" transform="translate(-73.81 -73.56)"/>
            </g>
          </g>
        </g>
        <g id="Grupo_77720" data-name="Grupo 77720" transform="translate(77.311 79.596)">
          <g id="Grupo_77719" data-name="Grupo 77719">
            <g id="Grupo_77718" data-name="Grupo 77718">
              <g id="Grupo_77717" data-name="Grupo 77717">
                <path id="Trazado_144381" data-name="Trazado 144381" d="M133.175,117.71a5.359,5.359,0,0,0-7.568,0l-4.536,4.535-1.655-1.655a5.351,5.351,0,0,0-7.567,7.567l5.44,5.44a5.35,5.35,0,0,0,7.567,0l8.32-8.319a5.358,5.358,0,0,0,0-7.568ZM130.7,122.8l-8.318,8.318a1.893,1.893,0,0,1-2.613,0l-5.439-5.439a1.846,1.846,0,0,1,2.611-2.611l2.894,2.894a1.751,1.751,0,0,0,2.478,0l5.774-5.773A1.847,1.847,0,0,1,130.7,122.8Z" transform="translate(-110.284 -116.146)"/>
              </g>
            </g>
          </g>
        </g>
      </g>
    </g>
    <path id="Trazado_144382" data-name="Trazado 144382" d="M-3576.012-3286.691v226.141" transform="translate(4298 11626)" fill="none" stroke="#a0a603" stroke-width="1"/>
    <path id="Polígono_3" data-name="Polígono 3" d="M6.5,0,13,11H0Z" transform="translate(733 8434) rotate(90)" fill="#b2b555"/>
  </g>
</svg>
